<?xml version="1.0" standalone="yes"?><!--
************* Copyright (c) 2017 Pareto Softare, LLC DBA Simplemaps.com *******************             
************* Free for Commercial Use, full terms at  http://simplemaps.com/resources/svg-license ************
************* Attribution is appreciated! http://simplemaps.com ***************************
--><svg xmlns="http://www.w3.org/2000/svg" baseprofile="tiny" fill="#C7DDDA" height="701" stroke="#ffffff" stroke-linecap="round" stroke-linejoin="round" stroke-width="2" version="1.2" viewBox="0 0 1000 701" width="1000" style="zoom: 2;"><path d="M245.8,523.3 l-0.9,0.6 l-1.5,-1.5 l-0.3,-0.9 l-1.2,-1.3 l0.8,-0.8 l1,0.8 l0.2,0.9 l1,0.9 l0.9,1.3 z m-8.8,32.2 l-9.6,0.5 l-8,-8.7 l7.6,-1.5 l2.4,-1.7 l2.2,-3.5 l0.7,1.2 l0.6,0.2 l1.1,-1.4 l0,-1.3 l-1.6,-1.6 l-2.2,-1.6 l-2.1,-0.6 l-1.5,0.9 l0.9,-3.4 l2.3,-1.6 l2.4,-0.2 l1.8,0.9 l-0.7,0.2 l-1.7,1.4 l1.6,0.9 l1.8,0.2 l1.8,-0.4 l1.5,-0.7 l0,-1.6 l-1.8,0 l1.8,-1.4 l-5.6,-5.2 l-3,-1.7 l-3.1,-0.2 l2.7,-2.1 l13.6,2.5 l1.6,2.5 l2.8,1.6 l1.5,-0.2 l1.3,-1.4 l-2,0 l-0.9,-0.5 l-0.8,-0.9 l1.1,-1.7 l1.4,-1.2 l-1.8,-1.4 l2.3,-0.9 l3.2,1 l3,-0.1 l1.9,-4.1 l-3.1,1.8 l-1.7,0.2 l-0.7,-1.4 l0.6,-2.5 l1.5,-1.2 l2.8,-1.4 l-1.8,-1.2 l-2.7,-0.3 l-2.8,0.4 l-2,1.1 l0.6,-3.6 l-1.1,-1.6 l-1.8,-0.4 l-2.5,0.1 l-1.6,0.9 l-0.7,1 l-3.4,-0.7 l2.7,-2.3 l0.9,-1.7 l-0.5,-3.1 l1.7,-1.2 l12.6,-0.4 l10.9,3.8 l0.9,14.8 l-4.5,21.7 l-16.4,7.1 l-8.4,8.9 z" id="ISL5131" name="Reykjavík"></path><path d="M155.1 287.5l-0.4 0.5-0.7-0.8 1.2-0.8-0.1 1.1z m2.1-21.6l-0.7 1.1 0-1.9 1.6-1.1-0.3 1.2-0.6 0.7z m16.9-16.8l-0.5 1.8-1.7 0.8-0.5-0.7 1-1.3 0.4 0.2 1.3-0.8z m47.7-2l-0.8 0.1 0.4-1.3 0.7-0.6 0.5 0.5-0.8 1.3z m-94.9-1.4l-0.9 1.4-0.3-0.6 1.2-0.8z m186.6 64.3l0 1.9 0.9 3 0.1 3.7-0.3 3.9 0.1 1.9 0.4 2.2 0.7 2.6 1.4 3 2.2 6 1.5 8.1 0.5 2.3 1.5 3.5-6-0.2-3-1.1-2.7-1.6-7-6.2 0.1-2.2-0.4-1.7-1.6-1.7-1.6-2.8-0.9-1-1.6-1.5-0.6-1.1-0.6-2-1.4-4.9-0.3-3.6 0.3-2.5 0.6-2 2.3-4.8 0.6-1.6 0.1-1.5-0.2-1.7-1.7-5.7-0.8-3-0.6-1.5-4.7-5.8-2.1-1.3-0.6-0.8-0.7-1.6-2.5-3.2-5.3-10.9-1.6-4.8-0.7-1.3-1-0.6-3.3 0-7.8 2.2-2.7-3.3-0.6-1.2-0.2-1.3 0.3-1.5 1-1.8 2.2-2 0.7-0.9 0.2-0.9-0.3-2.2 0.5-3.4 0.3-2.5-0.1-6.5-1-2.9-2.4 1.7-1.1 1.8-2.2 5.6-1.6 1.4-8.7 2.9-3.1 0.1-6.5-1.5-5.3 1.6-1.8-0.1 1.8-3.4 1.9-2.5-3.3-3.3-1.2-2.3-0.4-3.4-1.2 0.9-1.3 0.6-1.3 0.2-1.2-0.2 0.5 3.1-0.8 1-1.3-0.3-1-0.8-0.8-2-1.7-5.2-1.2-1.8 0.5 3.7-0.2 3.1-0.8 2.7-1.3 2.5-1.6 2-0.9 0.8-0.9 0.3-0.8 3-0.8 2-0.8 0.9-3.5 0.3-1.5-0.6-2.4-3.8-5.3-4.9-3.8-2-0.5-1.9 1.7-3.6 2-1.4 10-2.2 4.2-3 2.2-0.7 1-0.9 0.2-2.3 0-2.6 0.3-1.9 0.7-1.6 1-1.1 2-1.7-2.7 0.8-6.6 9.7-3.1 2.6-2.9 1.4-6.4 0.4 0-1.4 3.8-2.8 1.2-1.6 0-1.6-1.9 0.1-1.3 1.3-2.4 3.2-1.8 0.7-1.2-0.8-1-1.3-1.6-0.2 0 1.6 1.1 1.7-0.5 1.9-1.3 1.7-5 2-1.3-0.7-1-3.8-0.1-3.5 0.3-2.7 0-2.7-1.2-3.7-1.7-7.8-1.1-2.6-1.1 2 0 3.5 0.1 2.4 1.4 4.6 0.1 1.8-0.6 1.7-1.7 3.9-1 1.5-1.1 0.1-1.3-2.1-1.8-4.1-0.7-0.4-0.6 5.7-0.7 1.7-1 0.8-1.1-0.1-0.7-0.9-0.8-1.7-2-6.9-0.4-3.6 0.6-3.6 2.1-4.2-0.8-1.2-0.9 1.1-0.8 0.1-2.5-1.6-1.5 0-0.5 0.4-0.4 1.2 0 1.3 0.8 4.7 0.9 2.7 2.5 16.7-1.3 1.4-1.5-0.4-1.7-0.8-1.6-0.2 0-1.3 0.5-1.8-0.5-1.5-1-1-1.2-0.3-3 0.9-1-0.2-0.1-2.1-0.7 0.2-2.3-0.2 0-1.6 2.2-2.2 4-5.6 2.5-1.2-1-2.4-1.5-1.7-3.2-2-0.5 4.9-1.8 4.2-2.3 2.1-1.8-1.4-0.6-2.4-0.4-2.7-0.6-2.2-0.9-0.9-0.3 1.5-0.4 6.9-0.3 2.1-1.9 2.5-5.5 1.3-2.5 1.5-5-2.5-2.7-2.7 0.3-3.2 0-1.4-2.5 1.5-1.5 4.3-0.2 4.8 1.7 2.8 0 1.7-1.1 1.2-2.1 3.4-1.2 1.2-1.4 0.5-6.1-0.8-2.4-1.1-1.5-0.2-1.4-0.7-1.1-1.6-1-2-1.1 0.2-1.3 1.2 1.3 1.5-2.6 1.1-4.8 4-12.2 2.5-2.8-1.6-0.1 2.6-0.4 0.8-1.3 1-3.4 6-16.6 4.6-4.2-0.5-3.7-2.5 0-1.6 0.5-1.8-0.3-1.5-0.9-1.5-1.1-1.2 1.6 0.2 0.7 0.4 0.8 0.9 0.2-4-1.6-2-2.1 0.3-0.9 2.9-2.2-3.3-13.9-5.8-25.7 2.8-3.3-0.6-2-3.7 4-2.4 2-2 0.8-2.2 1.2-1.5 5.3-3.4 1.6-1.9 0.3-3.4 0-3.9 0.5-3.3 2.8-1.9 1.6-2.1 1.3-0.5 2.3 0.4 8.8 5.3 2.5 0.4 1.6 1 4.9 6.4 3.6 2.2 6.3 1.8 1.5 2 1.3 2.5 1.6 2 2.7 1.4 2.7-0.2 5.1-2.6-4.1 0.1-2.2-0.6-1.7-0.9-1.5-2-1.2-2.5-1.4-2.3-1.8-0.9-4.5-5-2.5-4.3-2.8-3.9-1.6-3.1 13.6 2.8 8.9 5.2 2.8 0.9-1.7-3.4-2.5-2.8-2.5-2-4-1.5-4.7-3.2-4.1-1.5-2-1.9-3.3-4.7-3.7-7.6-0.3-2.8 0.1-2.7-0.1-2.6-0.9-2.6 3.8-3.4 3.9 0.3 38.2 21.4 0.8 1.1 1.6 3.3 2.5 1.9 0.6 1.1 0.9 3.9-0.4 2.5-0.9 2.3-0.8 3.3 1.6 0.9 2.1-1.7 3.7-5.2 0.4 1.1 1.4 1.9 1-2.1 4.9 1.3 2.2-0.7 0-1.5-1.2-0.9-0.6-2.1 1.5-0.1 4.1-2.9 1.4-0.2 1.5 0.2 1.4-0.1 1.2-1.4-10.7 0.9-4.9-1.6-3.6-2.3-1.2-1.5-1.6-2.6-0.9-2.4 0.9-1.1 5.6-2.7 1.2 0.5 1.5 1.3 7.3-1 2.4-2.2 1.8-0.5 4 1.6 1.9 0.2 1.9-1.8-1.7-1.5-0.8 0 0-1.3 4.3-3 1.3-1.7-5 0.7-2.8 1.4-3.9 3.5-24.4-0.6-4.8-2-3.1-3-4.8 1.8-1.1-1-1.2-2.2-5.3-6-2.9-6-1.9-7.2 0.3-6.7 3.8-4.4 1.8-0.1 5.2 3.1 6.7 1.6 1.7 1.1 2.9 3.6 1.6 1.3 1.7 0.2 5.7-1.7 11.2 4.5 3.7 0 6.4 4.8 3.5 1.5 3.2-1.6-7.5-2.4-2.4-3.1-7.5-0.7-2.3-1.4-4.2-3.8-9.4-2.3-2.1-1.6-4.9-6.7-2.5-1.4-1.2-2.1-1.9-0.9-4.2-3.9-3.7-5.2-0.8-1.8 0-6.9 0.5-3.6 1.4-2.7 3.7-1.3 4.7 1 16.4 10.1 4.8 1.2 3.2-1.8 0.4 3.5 1.1 2.9 1.6 2.1 1.8 0.7 0-1.4-1.5-2.3-2.8-7-1.8-1.4-2.1-0.5-4.1-2.1-2.2-0.5-1-0.7-2.8-3.9-5.3-4.8-3-4.3 2.9-2.4 7.9-0.8 6 1 8 6.7-2.2-2.1-3.5-5.9-2.1-1.2-8.6 0.2-2.2-1.6 0-1.7 0.9-1.7 1.3-2 1.5-1.7 1.6-0.7 3.7-0.2 1.4-1.3 0.2-2.9 2-1.1 14.2 4.1 9.2 6.9 2.7 0.6 1.8 1.5 2.3 3.4 1.6 4-0.4 3.4 0.6 4.8 4.5-7.1 1.8-0.8 0.9 0.6 0.9 1.3 1.3 2.8 1.6 2.4 0.2 1.2 0 3.3 0.5 3.6 0.1 2.1-0.6 1.7-1.5 2.8-0.3 0.5-4.1 7.7-0.9 2.2 0.6 0 1.9-3.1 5-6.2 1.8-3 0.9-3.8 0.6-1.6 0.9-0.7 1.1 0.7 0.7 1.7 1.3 5.3 0.7 0.3 1.5-2.1 1.4-1.2 1.4 1.4-1.6 5.2-2.1 5.2-2.6 4.2-3 2.1 3.6-0.2 1.7-0.9 1.5-1.9 1.7-5.7 1.3-3.4 1-0.7 1.3 6-0.6 6.2-0.8 5.2 0.5 3.1 3.1-10.7-0.2-5 0.4-5.7 0.7-5.3 1-3.8 0.7-1.6 0.5-0.4 6.1 0.6 0.6 0.7 0.3 3 0.5 1.8 0.8 1.2 3.5 3.7 3.2 6.2 0.6 0.8 0.1 1-0.5 4.8-0.3 2.5-0.6 2.1-0.7 1.1 0.6 1.4-4.6 13-1 4.1 0.7 1.9 1.1-0.4 2.2-8.5 6-16.2 0.6-4.4 0-1.6 1.9-0.4 1.2 2.1 1.1 3.2 1.4 2.8 0.6 0.1 1.1-0.5 0.7 1.9 0 1.8-0.5 1.7-0.1 1.5 1.3 1.1 0.5-3.4 0.6-1.7 0.7 0.5 0 1.5-0.6 7.6-0.8 2.5-2.1 4.2-0.8 2.5 0 1.4 3.4-2 3.6-12.4 2.9-2.3 0-1.6-1.9-2.1-1-4.2-0.7-5-0.8-3.9-1.3-3.1-1.7-3-1.9-2.3-1.9-0.8 0.9-2.9 0.4-2.8 0.5-2.5 1.3-2.2 1.8-0.9 1.8-0.1 1.5-0.8 1.1-3-1.9 0-4.4 2.3-1.7 1.7-1.7 0.6-7.6-3.8-5-5.3-21.5-9.4-6.4-6.8-3.7-9.9 4.2-2.8 13.4-3.6 2.9 0.1 9.6 3.1 2.4 0 1 0.4 1.2 2.8 2.4 2.5 1.3 0.4 1.3-1.4-1.1-1.8-0.8-2.9 4.5 0 2.3-0.6 3.9-3.2 4.5-0.5 2.1-1.7-12.3 1.9-3.7-1.9-1.8-1.9 0.4-0.3 1.4-0.2 1.5-1.6 1-1.6 1.3-1.4 1.5-0.8 1.5 0.1 0-1.7-2-1.2-1.2 0.5-3.6 3.8-4.6 2.5-5.3 0.6-4.3-0.9-0.7-0.5-0.2-2.5 0.8-1.6 1.9-2.2 0.3-1.6 0.5-4.6 0.4-1.4 1.2-1.4 4.3-1.8-3.9 0.8-3 2.1-7.1 7.8-1.7 1-3.8 0.6-1.1-1.3 0.6-3 1.4-3.1 1.3-1.7 0-1.7-3.1 1.3-1.6 1.4-1.5 2-3.6 6.5-0.7 0.4-2.2 2.7-14.3-3.8-3.8-2.2-2.4-3.2-1.5-1.5-0.6-1.5 1.2-2.1 3.5-0.2 4.3 1.7 3.9-0.6 2-7-2.6-0.4-2.8-2.2-2.7-3.2-1.9-3.5 2.8-2.3 2.8 1.4 2.9 2.5 2.7 1.5-0.7-2.6-1.2-2.2 9.9-1.7 0.7 0.3 0.5 0.9 0.8 2.8 0.5 0.9 2 0.5 0.8-1.7-0.3-2.2-1.5-1.2-1.5-0.6-4.5-4 9.1 0 1.6 0.7 3.2 3.2 4.1 1.6 3.2 4 1.8 1.3 2.4-0.4 3.5-4.2 2.1-1.6-0.5-3.1 3.5-1.3 2.9 2.4 2.9 3.4 6.2 3.1 1.4-0.3 0.4-2.8-0.7-2.2-2.3-1.7-0.7-2.1 2.9 0.5 2.8 2.8 2.1 4.5 0.8 5.3 1.6 3.3 7.4 4.2 2.3 4.2-1.3 2.3 1.1 1.3 3.9 0.9 0 1.5-1.7-0.5-0.7 0.9-0.1 2 0 2.4 1.2 2.7 0.2 1.7-1.4 1.6 0 1.7 1.2 1.5 1.2-1.4 1.4-1.1 1.5-0.7 1.4 0 0.9 1 0.7 1.5 0.9 0.7 2-4.4 1.5-0.4 0.8 1.5-0.5 3.3 6.4-0.7 1.6 0.7 0.8-1.4 0.8-0.1 1.5 1.5 3.7 6.1-0.8 1.6-5.3 4.6 1.2 0.8 1.1-0.6 1.2-1.2 1.4-0.7 1.3 0.3 4.3 3.6 1.1 1.7 0.7 0.6 0.9 0.1 1.8-1.2 1-0.2 5.7 3-0.7 3 1.6 1 0.9 2.7 0 2.7-1.3 1.2 1.1 3.6 0.2 1 0.2 3.7 0.4 4.3 0.6 1.5 1.2 1.1 1.3-0.2 1.6-1 1.6-0.4 1.1 1.6 0.2 3.1-0.8 2.8-1.1 2.6-0.7 2.3 1.1-0.3 1.5-1 1.2-1.3 0.5-1.2 0.1-3.7-0.1-1.7-1.9-4.5 1.1-1.2 3.2-1.7 4.1-0.2 0.6 0.7 0.9 3.3 0.4 0.8 1.6 0.8-1 1.7-2 1.6-0.8 0.3-0.6 2.2 0.4 1.6 1.7 3 2.3 1.9 9.8-2.7 2.6 0.7 2.2 1.2 1.6 2.6 1.1 4.7-12.7 1.2-2.5 2.1-9.5 2.8-1.4 0 1.7 3.1 2.5-0.3 5.1-2.8 8.5-1.6 2.7 1.6-1.1 1.9-3.9 2.8 0 1.5 9.7-2.8 2.4 2 1.3 4.5 0.3 3.8-1.1 2.9-2.7 1.7 4.3 3 0 1.7-4.4 10.5-1.7 2.9-2.6 2.5-9.2 3.5 0 1.7 1.9 0.1 3.4-0.6 1.5 0.5 4.8 3.1 1.5 1.4-7.5 9-2.6 2.1-12.3-0.6-0.9-1-1.9-3.5-1.7-1.3-1.6-2.9-1.1-3.1-0.2-1.9-2.2-3.1-2.8-1.6-2.9 0.1-2.6 1.6 1.7 0.3 4.3 2.8 1.4 1.4 0.2 0.6 1.9 3.6 0.4 0.4 0.2 2.6-0.3 1.8-0.7 1.4-1.1 1.8 1.4 1.5 0.8 1.1 0.3 1.2 0.5 2.9 1 1.6 3.1 3 15.1-0.4 2.6 1.4 1.2 2.8-0.9 2.5-4.7 7.5-1.8 2 0 1.5 4.4-2.5 5.5-5 4.8-1.1 2 9.4-1.9 8-4.6 7.7-5.3 5.6-4.3 1.7 0 1.5 9.1-3.5 3.5-3.2 2-0.7 2 0.4 1.3 1.2 2.6 4.3 3.4 3.3 0.9 2.2-0.6 3.6 1.2 0.8 0.2 1.6-0.2 2.3 0.1 2.7 0.5 4.8 0 3.4-0.4 4.3 0.1 2.2 3.5 11.3 1.2 2.2-0.7 1.4 1.8 1.9 1.9 3.6 0.9 4.2-0.8 3.8 0 1.4 1.5 1.3 0.5-0.5z" id="ISL690" name="Vestfirðir"></path><path d="M662.7,601 l-7.3,0.9 l0,-0.4 l5.4,-1.3 l1.6,0.3 l0.3,0.5 z m37.7,-1 l-9.2,1.1 l3.7,-1.1 l0.5,-1.2 l4.5,0.3 l0.5,0.9 z m14.7,-2.8 l-3.7,0.9 l1.3,-1.1 l1.7,-0.2 l0.7,0.4 z m-30,-1.4 l-0.4,2 l-0.7,-0.4 l0.4,-2.7 l0.5,-0.7 l0.2,1.8 z m30.4,0.3 l-0.8,0.2 l-0.4,-0.7 l0.7,-1 l2.3,-1.8 l0.4,0.3 l-2.2,3 z m9.1,-14 l-5.1,7.6 l-0.5,-0.5 l0.3,-1.4 l4.3,-5.2 l1,-0.5 z m213.1,-150.7 l2.7,0.5 l0.1,1 l-0.4,0.8 l-0.9,0.4 l-1.1,-0.2 l-0.6,-0.9 l-0.6,-0.1 l0.8,-1.5 z m-289.8,171.6 l-0.2,-2.3 l0.4,-35.8 l0.5,-4.1 l3.3,-12.6 l42,-90.1 l17.2,-35.1 l2.2,-7.7 l1.9,-8.3 l0.5,-2.9 l0.3,-3.6 l-0.2,-1.9 l-0.9,-3.5 l-0.2,-1.7 l-0.5,-1.7 l-2.2,-5.8 l-0.1,-1.7 l0.3,-1.7 l2.4,-5.4 l1.3,-2 l0.7,-1.2 l0.2,-2 l-0.6,-2.4 l0.2,-2.7 l0.6,-3.2 l0.4,-1.2 l0.5,-0.7 l2.3,-0.2 l5.2,-2.6 l1.6,-0.4 l3.7,-0.1 l1.6,-0.4 l1.6,-1.3 l4.8,-6.8 l3.9,-4.2 l1,-0.8 l6,-1.9 l1.1,-0.9 l1.3,-1.5 l2.3,-3.7 l0.7,-1.7 l0,-1.2 l-1.6,-1.3 l-0.3,-0.6 l-0.1,-1.9 l0.6,-2.9 l1.2,-7.3 l0,-4.7 l-0.2,-2.8 l0,-1.8 l0.3,-3.2 l-0.3,-1.9 l0.1,-1.6 l0.6,-3.1 l1.1,-2.9 l2.5,-3.9 l2.7,-5.6 l1,-1 l4.7,-3.5 l1,-1.2 l0.7,-1.7 l1.2,-3.5 l0.4,-1.8 l0.1,-1.4 l-0.5,-2.6 l-0.4,-1.5 l-2.6,-4.5 l-1.7,-2.3 l-6.9,-4.8 l-0.4,-0.6 l-0.9,-1.9 l0,-2 l0.3,-2.5 l0.8,-2.1 l1.2,-1.4 l1.8,-3.5 l1.6,-0.7 l1,-0.9 l1.1,-1.6 l1.2,-2.8 l1.4,-4.2 l0.9,-3.4 l0.2,-1.6 l0.6,-5.3 l0.5,-1.5 l0.8,-1 l1.3,-0.2 l28,5.8 l1,-0.2 l0.2,-1 l0.1,-2.6 l0.6,-3.6 l2.1,-7.1 l0.1,-1.9 l-0.2,-1.7 l-0.6,-3.4 l-0.2,-2.2 l-0.1,-5.8 l-0.4,-2.8 l-0.7,-1.7 l-0.2,-2.6 l0.2,-3.4 l0.2,-1.5 l0.5,-1.4 l1,-0.7 l18.8,-5.2 l0.7,-0.5 l0.6,-3.3 l0.7,-1.4 l1.4,-1.8 l1.3,-1.1 l4.8,-2.9 l1.2,-1.2 l0.8,-1.6 l1.2,-5.1 l8.1,-1.3 l5.4,-4.1 l3.6,-4.1 l2.3,-4.9 l36.8,-4.8 l2.8,-8.3 l4.4,-1.1 l0.9,4.9 l0.1,2.5 l-0.3,0.9 l-1.1,1.2 l-0.5,0.9 l0.1,3.4 l-0.1,1 l-2,5.4 l-0.4,1.5 l-1,1 l-5.9,7.3 l-6.6,5.1 l-2.1,2.6 l0.2,3.9 l-1.8,3.1 l-4.5,5.1 l2.7,-0.2 l2.4,-1.9 l4.2,-5.6 l-1.4,4.5 l-2.6,5 l-1.1,3.9 l3.2,1.7 l3.3,-1 l7.1,-4.1 l19.4,-5.3 l7,-3.9 l3.7,-1 l2.9,3.2 l-4,9.3 l-2.2,2.3 l0.2,1.8 l0.7,1.9 l0.8,1.3 l2,1.6 l5.8,3.9 l1.6,2.1 l-4.9,1.5 l-2.6,2.1 l-2.2,5.7 l-4.7,5.6 l-1.8,4.6 l-6.9,8.3 l-1.4,2.8 l-1,3.3 l-0.5,3.6 l1.2,-1.7 l1.9,-4.8 l0.9,-0.9 l1.1,-0.6 l3,-3.2 l0.9,-1.4 l1.7,-3.5 l11.2,-17 l2,-1.4 l2.4,0.6 l7.2,5.4 l-1.5,-2.1 l-2.5,-2.8 l-1,-2.4 l19.8,11.9 l2.6,0.4 l9.9,-2.5 l1.7,0.2 l1,1.1 l0.7,2.6 l0.1,2.3 l-0.5,1.5 l-1.2,0.4 l0,1.4 l2.9,-0.1 l1.2,0.4 l0.9,1.3 l0.1,1.5 l-0.7,4.6 l0.6,1.6 l0.8,1.2 l1.7,1.5 l4.2,-6.2 l2.3,-1.8 l2.7,0.7 l0.5,0.9 l0.2,3.5 l0.5,0.1 l1.3,-0.4 l0.6,0.3 l3.2,3.6 l0.6,1 l0.1,4.8 l-1.3,3 l-1.7,2.1 l-0.9,2 l0.2,1.2 l1.1,4.2 l0,1.9 l-0.6,0.8 l-3.1,2.3 l0.9,1.3 l0,1.7 l-0.3,2 l0,2.4 l-3,2.2 l-8.3,-1.2 l-3.6,2 l2.3,1.9 l7,2.5 l0.3,3.6 l-2.1,2.4 l-2.9,1.3 l-4.5,0.1 l-1.9,0.6 l-3.8,2.4 l-7.5,1.4 l-2.4,1.5 l1.5,2.1 l14.3,-5.4 l4.4,0.4 l8.7,-2.3 l2.7,0.8 l4.5,3 l2.3,2.5 l1.3,3.5 l-2.1,1.7 l-3.7,5.9 l-2,1.3 l-11.4,2.9 l-12.1,0 l-5.3,1.3 l-5.5,0 l2.8,2.3 l10.5,-2.3 l13.9,1.6 l6.2,-1.6 l3.4,0 l0.9,0.8 l-0.4,1.5 l-1.4,2.4 l-0.2,1.4 l0,1.8 l-0.4,1 l-3.5,1.6 l-3,0.3 l-2.8,1.1 l0,1.6 l7,-1.5 l1.6,1.5 l0,1.4 l-0.9,0.2 l-0.8,0.6 l-0.7,0.9 l-0.7,1.3 l2.8,0 l0.9,0.5 l1.6,2.3 l0.9,-0.6 l1.5,-3 l0.7,-0.6 l0.2,-0.9 l2.6,-5.1 l3.7,-4.4 l0.3,3.1 l0,4.6 l-0.3,4.4 l-0.6,2.5 l0,1.6 l1.7,1.3 l0.5,2 l-0.6,2.6 l-1.6,2.9 l-1.8,1.7 l-3.8,1.2 l-1.8,1.5 l1.6,3 l0.8,2 l-0.3,0.9 l-1.4,0.7 l-2.8,3.1 l-1.4,0.7 l-6.5,-1.6 l-5.6,1 l-1.8,-1 l-0.9,-2 l-0.8,-3 l-0.9,-2.6 l-1.4,-1.2 l-1.5,-0.5 l-3,-2 l-4.7,-1.6 l-5,-5 l-2.8,-1.1 l0.5,2.3 l1,1.8 l1.1,1.1 l1,0.6 l-3.2,3.7 l-18.5,0.7 l0,1.6 l28.6,2.8 l0.9,0.9 l1.2,1.6 l1.1,2.1 l0.5,2.1 l0.8,1.1 l4.2,3.9 l9.3,4.4 l1.8,3 l-3.7,3 l-4.5,-0.7 l-7.9,-3.8 l-9,1.5 l-5.5,-2.4 l-1.6,0.9 l5.4,3.8 l12.9,3 l5.9,4.9 l0.7,1.3 l0.8,1.9 l0.3,1.9 l-0.9,0.7 l-1.5,0.7 l-2.3,3 l-1.2,0.7 l-9.4,-3.7 l-2.7,2.4 l9.8,4 l1.6,1.6 l0.1,2.3 l-2.6,0.8 l-10.3,-0.4 l-2.9,-1.2 l-0.5,1 l-0.8,0.8 l-1.8,1.1 l0,1.6 l2.8,3.5 l1.4,2.3 l1.4,2.9 l-1.5,0.5 l-4.1,3.8 l-20.1,4.4 l-3.3,-1.1 l-1.7,-1.1 l-1.2,-1.4 l-2.6,-8.3 l-2.3,-2.4 l-2.5,-4.9 l-1.3,-1.1 l-7.1,-1.6 l0.9,1.2 l0.9,0.5 l2.2,-0.1 l1.2,1 l-0.1,2.2 l-0.6,2.4 l-0.2,1.5 l1.4,1.8 l4.6,2.5 l1.5,0.2 l-0.2,4.1 l1.3,3.4 l1.7,2.8 l1.2,1.3 l4.5,1.5 l1.7,1.9 l-1,2.3 l0.6,1.5 l-15.1,-5.1 l-4.7,3.6 l1.5,1.8 l3.6,1.9 l1.8,2.1 l0.9,2.4 l-0.2,2 l-0.9,1.6 l-1.7,1.2 l-12.1,0 l-1.1,1.4 l1.1,2.8 l1.8,2.4 l1,-0.1 l0.9,2.2 l1.9,1.4 l1.8,0.1 l0.4,-1.5 l3.7,-1.1 l5.6,-8.4 l2.8,-2.1 l0.5,1.1 l-1.3,2.3 l-8.3,10.2 l-1.2,2.4 l-0.3,2 l-0.3,4.3 l-0.4,1.7 l-2.9,5.2 l-0.4,1.9 l0.4,3.5 l-0.1,0.8 l-1.4,1.7 l-0.4,2.2 l-1,3.2 l-0.3,0.7 l-9.4,1.1 l-6.5,2.3 l-2.4,1 l4,-3.1 l8,-2.3 l4.1,-1.7 l-2.3,-1.6 l-10,-1.6 l-0.7,0.3 l-0.1,0.9 l0.1,2.8 l-2.9,3 l-1.1,0.5 l-0.4,0.5 l-1.9,3.6 l-1,1.1 l-5,3.3 l-2.1,2.1 l-1.8,2.6 l-0.7,0.1 l0.8,-1.9 l0,-1.4 l-0.7,0 l-0.6,2.1 l-1.4,1.8 l-1.5,1.3 l-1.1,0.5 l-0.3,0.7 l0.3,1.5 l0.7,1.5 l0.9,0.7 l1.9,-0.2 l0.9,-0.5 l0.9,-0.9 l0.4,3 l0.8,2.8 l-2,-0.1 l-2.7,3.5 l-1.8,0.9 l-4.2,-0.4 l-1.8,-0.9 l-1.8,-1.5 l-2.8,-3.5 l-1.8,-1.6 l-1.8,-0.6 l-0.8,0.6 l-1.7,2.7 l-0.9,0.9 l-1.1,-0.3 l-1,-0.8 l-1.1,-0.3 l-1.2,1.4 l1.2,1.5 l-1,1 l-1,0.4 l-2.2,-0.1 l1.7,-5.7 l0,-1.3 l-2.9,0.8 l-1.4,-0.1 l-0.6,-1.5 l-0.4,-3.2 l-1,-2.2 l-1.2,-0.7 l-1.1,1.1 l0,1.4 l1.3,2.1 l0.3,1.4 l0.3,2.2 l-1.2,-0.9 l-2.6,-0.9 l-1.2,-1.1 l0,-1.2 l0.9,-3 l-1.3,-4.4 l-2.3,-4 l-1.9,-1.8 l-1.9,-2 l-3.6,-1.5 l-2.3,-0.6 l1.6,1.3 l3.1,1.3 l1.8,0.9 l1,2.3 l1.6,5.1 l0.8,1.8 l-0.7,1.1 l-0.8,0.4 l-0.8,-0.4 l-0.7,-1.1 l0,1.6 l1.8,1.6 l0.3,3.3 l-0.7,3.6 l-1.4,3 l-2.3,1.2 l-5,-1.4 l-2.1,1.5 l1.3,1.1 l1.4,0.4 l3,0 l-2.3,1.9 l-5.8,2.2 l-5.2,0.5 l-5.5,2 l-2.3,2 l-1,-2 l-0.3,-1 l-2.5,3.6 l-8,6.5 l7.5,-2.6 l1.8,1.3 l-3.1,2.5 l-23.4,7.2 l-3.3,3 l4.3,0 l0,1.3 l-5.7,5 l-2,0.7 l-0.9,0.5 l-3.1,3.7 l-2.1,1.6 l-0.9,1 l-0.7,1.8 l-0.9,-2 l-0.9,-0.4 l-0.9,0.9 l-1,1.5 l0,1.4 l1.2,0 l0,1.3 l-5.4,3.8 l-2,0.5 l0.6,-2.9 l-4.9,3.7 l-2.4,2.9 l-1.4,3.4 l1.5,0.1 l1.2,-1.1 l0.9,-1.2 l-2.4,4.8 l-1.2,1.7 l-6.5,5.7 l-4.3,6.9 l-0.6,-0.1 l1,-1.6 l0.5,-2.4 l-13.7,11.3 l-12.1,3.6 l-1.8,-0.5 l0.7,0.9 l0.9,0.1 l-1.7,1 l-1.5,0.4 l0.3,2.2 l0,2.8 l-0.5,2.5 l-1,0.9 l-0.4,-0.6 l-0.2,-1.4 l0,-2.8 l-0.2,-0.7 l-1.7,-1.5 l-3.4,-4.7 l-0.9,-0.9 l-1.4,-0.5 l-0.8,0.6 l-0.2,1.8 l0,3 l0.3,3.8 l-0.1,2.7 l-0.6,1.2 l-1.2,-0.7 l-0.2,-1.8 l0.5,-5.2 l-0.3,-1.8 l-0.6,-2.4 l-0.7,-1.3 l-0.3,1.3 l0,5.5 l-0.1,2.6 l-0.5,2.3 l1.3,1.9 l-0.5,1.4 l-1.4,0.9 l-1.8,0.2 l1,-4.6 l0.1,-2 l-0.6,-1.8 l0.7,-2.5 l1.1,-1 l0,-1.1 l-0.5,-1.1 l0.5,-5.5 l0.1,-3 l-0.6,-2.1 l-1,-1.6 l-1,-0.9 l-0.5,1.1 l-0.2,5.3 l0.1,2.2 l0.8,1.8 l-1.5,1.4 l-1.7,-0.1 l-1.5,0.3 l-0.9,2.5 l1.1,2.1 l0.4,2.4 l0.7,2.2 l1.5,1.6 l-1.7,2.3 l-3.3,0.8 l-6.5,-0.2 l-1.4,-0.4 l-3.2,-2.5 l-1.3,0.9 l-1.2,1.4 l-0.9,-0.1 l-0.3,-3.5 l-11.2,7 l-5,1.7 z" id="ISL695" name="Austurland"></path><path d="M553.8,371.6 l-40.2,9 l-25.7,11.5 l-22.6,-0.1 l-23.7,7.2 l-2.6,0.2 l-2.2,-0.5 l-23.2,-10.4 l4.8,-8.4 l10.4,-11.4 l0.8,-1.5 l0.6,-1.9 l0,-2.9 l-0.7,-2.1 l-0.8,-0.4 l-26.7,-1.2 l-21.6,-0.5 l-4.3,-2.3 l-1.3,-0.1 l-29,8.8 l-1.5,-0.2 l-3.4,-3.5 l-1,-0.4 l-7.5,-0.6 l-1.3,-0.4 l-7.8,-5.2 l-0.8,-2.2 l-1.5,-3.5 l-0.5,-2.3 l-1.5,-8.1 l-2.2,-6 l-1.4,-3 l-0.7,-2.6 l-0.4,-2.2 l-0.1,-1.9 l0.3,-3.9 l-0.1,-3.7 l-0.9,-3 l0,-1.9 l1,-0.8 l0.7,-3 l-1.3,-5.2 l-0.3,-3.5 l-0.3,-1.6 l-0.8,-2.2 l-1.5,-3.3 l-0.8,-1.9 l1.4,-2.4 l0.5,-0.7 l-0.3,-1.8 l0.6,-1.4 l0.9,-1.2 l0.6,-1.4 l0.5,-3.3 l0,-3 l-1.9,-16.4 l-0.4,-6.9 l1.2,-3.1 l2.8,1.6 l1.9,3.9 l2.8,9.2 l2.6,5.3 l0.4,1.5 l0.6,1.6 l3.1,1 l1.3,1.1 l0.6,-1.6 l-2.3,-5 l-2.1,-6.7 l-1.7,-7.1 l-0.7,-6.4 l-0.3,-5.2 l-0.1,-3.5 l0.4,-3.3 l0.4,-1.2 l1.1,-2 l0.4,-1.1 l1,-6.3 l0.2,-1.4 l2.8,-5.4 l10.2,-8.1 l5.6,-7.5 l1.6,-0.9 l1.8,-0.5 l1.2,-0.9 l0.4,-2.2 l1.1,-0.2 l0.9,0.7 l1.7,2.5 l1.6,-0.2 l0.3,0.2 l0.2,1.9 l-0.9,1.3 l-0.6,8.7 l-0.1,4.5 l0.7,3.2 l-1.1,3.7 l0,3.8 l0.9,2.3 l2,-0.8 l-0.9,-4 l0.2,-3.6 l1.1,-1.6 l2.2,1.7 l0.8,1.4 l0,2.2 l0.4,2.5 l-0.6,3.2 l0.3,1.1 l1.7,1 l0.5,0.5 l0.7,1.9 l0.7,2.8 l1,1.3 l1,0.8 l1.1,0.6 l1.2,0.2 l1.1,-0.2 l2,-1.4 l0.8,-2.4 l0.5,-3.3 l1,-4.7 l-1,-0.9 l-1.4,-3 l-1,-0.6 l-3.1,0.3 l-1.5,-0.5 l-1.3,-1.4 l3,-1.2 l2.9,-0.2 l1.2,-0.5 l2.5,-2 l1.3,-0.5 l1.1,2.1 l-0.3,9.7 l1.3,3.1 l-0.4,-3.5 l0.9,-2.6 l0.6,-2.5 l-1.1,-3.3 l1,-2.9 l2.9,-4.3 l1.4,-2.6 l0.3,-1.6 l0.2,-3.6 l0.4,-1.6 l0.9,-0.8 l1.6,0 l1.9,-0.5 l-2,-0.5 l-1.3,-2.7 l-0.1,-3 l1.2,-1.5 l1.2,-0.9 l0.9,-2.2 l0.5,-3.2 l0.2,-3.5 l-0.7,-5.7 l-1.8,-5.2 l-2.2,-4.1 l-2.1,-2.3 l0,-1.6 l2.4,-2.3 l-1,-6.4 l-2.3,-7.2 l-3.4,-7.8 l-0.7,-2.1 l-0.5,-7.6 l-0.6,-3.7 l-1,-2.9 l-1.3,-2.3 l-1.6,-1.9 l1.4,-2.2 l1.3,-3.4 l0.4,-3.6 l-1.2,-2.9 l1.8,-1.6 l2.2,-0.4 l3.8,0.5 l0.9,-0.4 l1.6,-1.9 l0.9,-0.7 l1.2,-0.4 l3.2,0.4 l1.7,-1 l3.3,-4.2 l1.4,-0.9 l4.4,1.6 l2.1,0.2 l1.9,-1.8 l0.5,4.7 l1.2,2.8 l1.7,1.7 l2.1,1.4 l-0.6,1.7 l1,0.9 l0.6,1.7 l0.9,3.3 l1.2,3.4 l3.8,7.3 l0.5,2 l0.4,1.7 l0.4,1.4 l1.1,1 l-1.2,3 l1.8,3 l2.3,2.4 l1.7,2.8 l-0.2,4.1 l1.6,1.5 l4.9,0.8 l3.6,2.5 l2.1,0.1 l1.6,2.5 l1.2,-0.2 l0.5,0.3 l0.5,1.6 l0.7,4.6 l2,4.4 l0.5,1.6 l0.4,2.8 l0.5,5.9 l0.6,2.6 l2,2.7 l4.6,1.4 l1.8,2.7 l0.6,-4.7 l0.6,-1.7 l2.8,0.4 l1.6,2.2 l0.6,0.6 l2.8,0.7 l-0.6,0.7 l-0.3,1 l0.3,1.8 l0.8,0.1 l1.6,-1.1 l1,-1.3 l0.8,-3.1 l1.1,-6.3 l0.6,-6.4 l0,-5.6 l-0.6,-5.2 l-1.3,-5.4 l-2.5,-7.7 l-0.3,-1.4 l-5.3,-6 l-0.1,-1.6 l0.4,-2.1 l0.8,-1.8 l1.1,-0.7 l1.7,-0.4 l1.8,-1.2 l1.7,-1.8 l1.3,-2.6 l-1,-1.3 l-0.8,-1.8 l-0.7,-2.2 l-0.9,-4.7 l0,-0.8 l1.2,-2.3 l1.7,-2.1 l5.1,-2.8 l12.1,-2 l4.2,3.2 l2.3,0.4 l-0.2,-3.6 l1.4,-1.5 l0.8,-0.2 l0.9,0.3 l-0.6,3 l1.8,0.7 l3,3.3 l1.9,0.4 l-1.1,-1.1 l-0.9,-1.2 l-0.6,-1.7 l-0.4,-2 l0.6,0 l0,-1.4 l-1.9,-1.7 l0,-1.4 l0.9,-1.5 l0.9,-5.3 l0.6,-2.2 l0.5,0.2 l4.2,3.9 l1.4,2.6 l1.5,4.3 l3.1,6.5 l1,1.6 l7.5,9.3 l1.1,2.5 l0.1,1.8 l-1.6,1.4 l-0.8,1.2 l0,1.1 l0.1,3.1 l-0.2,0.7 l-0.6,1 l-1.2,0.9 l-0.7,1.6 l0.6,0.9 l1.5,0.9 l1.1,1 l0.5,1.1 l0.5,1.5 l0.2,2 l0,1.9 l-0.1,1.6 l-0.4,1.4 l-0.6,1.4 l-2.3,3.9 l-1.4,1.3 l-0.8,0.3 l-3.2,0.3 l-1.1,0.7 l-0.8,1.7 l-0.6,2.7 l-0.1,2.3 l0.2,1.5 l0.5,1.3 l0.8,0.9 l3.4,2.6 l4.4,4.7 l1.9,0.6 l0.8,0.9 l0.9,1.5 l1.4,3.8 l0.6,1.9 l0.2,1.4 l-0.4,1.7 l-0.1,1.6 l0.3,1.2 l1.9,3.3 l0.3,3.4 l-0.3,1.2 l-0.5,1 l-3.9,3.1 l-0.9,1.4 l-0.2,1 l0,2.7 l-0.7,1.8 l-1.2,2.1 l-0.3,2.4 l-0.2,0.9 l-1,1.5 l-1.4,1.3 l-0.3,1.8 l0.3,1.5 l0.7,1.1 l0.6,0.5 l1.3,0.4 l1.3,1.2 l1.7,2.9 l0.9,0.6 l3,0.5 l0.8,0.6 l1.3,1.4 l2.1,1.6 l1.3,1.7 l1.6,1.7 l0.6,1.1 l0.2,1.7 l-0.4,1.5 l-0.5,0.9 l-1.9,2.4 l-0.5,1 l0,3.3 l-0.5,1.8 l-0.9,2.2 l-0.4,1.4 l-0.1,1.8 l0.5,1 l0.9,0.8 l1.3,0.6 l1.4,1.1 l1.2,1.5 l0.9,2.2 l0.5,4.5 l0.7,1.6 l1,1.1 l1.2,0.6 l6.2,0.9 l0.8,0.6 l0.7,1.1 l0.5,2.2 l1.1,7.4 l1.2,3.5 l1.5,2.8 l4,4.6 l7.4,4.7 l1.4,1.3 l1.5,2.5 l0.6,2.3 l0.9,5 l1,8.2 l0.3,10.9 l0,5.8 l-0.2,4.8 l-0.4,4 l-2.2,14.1 l-4,17.3  z " id="ISL697" name="Norðurland vestra"></path><path d="M560.1,132 l-1.2,0.8 l-1.1,-0.4 l-0.8,-0.8 l-0.5,-1.3 l-0.2,-1.8 l-0.5,-2.7 l-0.9,-3.2 l0.5,-0.8 l1.8,2 l1.6,2.7 l1.3,2.9 l0,2.6  z m47.6,-42.6 l-0.1,2.5 l-0.7,-0.1 l-0.5,1.2 l-1.6,-0.6 l-1.5,0 l-0.1,-2.1 l0.9,-0.7 l2.4,-0.5 l1.2,0.3  z m290.8,41.6 l-4.4,1.1 l-2.8,8.3 l-36.8,4.8 l-2.3,4.9 l-3.6,4.1 l-5.4,4.1 l-8.1,1.3 l-1.2,5.1 l-0.8,1.6 l-1.2,1.2 l-4.8,2.9 l-1.3,1.1 l-1.4,1.8 l-0.7,1.4 l-0.6,3.3 l-0.7,0.5 l-18.8,5.2 l-1,0.7 l-0.5,1.4 l-0.2,1.5 l-0.2,3.4 l0.2,2.6 l0.7,1.7 l0.4,2.8 l0.1,5.8 l0.2,2.2 l0.6,3.4 l0.2,1.7 l-0.1,1.9 l-2.1,7.1 l-0.6,3.6 l-0.1,2.6 l-0.2,1 l-1,0.2 l-28,-5.8 l-1.3,0.2 l-0.8,1 l-0.5,1.5 l-0.6,5.3 l-0.2,1.6 l-0.9,3.4 l-1.4,4.2 l-1.2,2.8 l-1.1,1.6 l-1,0.9 l-1.6,0.7 l-1.8,3.5 l-1.2,1.4 l-0.8,2.1 l-0.3,2.5 l0,2 l0.9,1.9 l0.4,0.6 l6.9,4.8 l1.7,2.3 l2.6,4.5 l0.4,1.5 l0.5,2.6 l-0.1,1.4 l-0.4,1.8 l-1.2,3.5 l-0.7,1.7 l-1,1.2 l-4.7,3.5 l-1,1 l-2.7,5.6 l-2.5,3.9 l-1.1,2.9 l-0.6,3.1 l-0.1,1.6 l0.3,1.9 l-0.3,3.2 l0,1.8 l0.2,2.8 l0,4.7 l-1.2,7.3 l-0.6,2.9 l0.1,1.9 l0.3,0.6 l1.6,1.3 l0,1.2 l-0.7,1.7 l-2.3,3.7 l-1.3,1.5 l-1.1,0.9 l-6,1.9 l-1,0.8 l-3.9,4.2 l-4.8,6.8 l-1.6,1.3 l-1.6,0.4 l-3.7,0.1 l-1.6,0.4 l-5.2,2.6 l-2.3,0.2 l-0.5,0.7 l-0.4,1.2 l-0.6,3.2 l-0.2,2.7 l0.6,2.4 l-0.2,2 l-0.7,1.2 l-1.3,2 l-2.4,5.4 l-0.3,1.7 l0.1,1.7 l2.2,5.8 l0.5,1.7 l0.2,1.7 l0.9,3.5 l0.2,1.9 l-0.3,3.6 l-0.5,2.9 l-1.9,8.3 l-2.2,7.7 l-17.2,35.1 l-51.2,-30.9 l-45.6,-27 l-25.9,-15.1 l-9,-5.5 l-8.4,-8 l4,-17.3 l2.2,-14.1 l0.4,-4 l0.2,-4.8 l0,-5.8 l-0.3,-10.9 l-1,-8.2 l-0.9,-5 l-0.6,-2.3 l-1.5,-2.5 l-1.4,-1.3 l-7.4,-4.7 l-4,-4.6 l-1.5,-2.8 l-1.2,-3.5 l-1.1,-7.4 l-0.5,-2.2 l-0.7,-1.1 l-0.8,-0.6 l-6.2,-0.9 l-1.2,-0.6 l-1,-1.1 l-0.7,-1.6 l-0.5,-4.5 l-0.9,-2.2 l-1.2,-1.5 l-1.4,-1.1 l-1.3,-0.6 l-0.9,-0.8 l-0.5,-1 l0.1,-1.8 l0.4,-1.4 l0.9,-2.2 l0.5,-1.8 l0,-3.3 l0.5,-1 l1.9,-2.4 l0.5,-0.9 l0.4,-1.5 l-0.2,-1.7 l-0.6,-1.1 l-1.6,-1.7 l-1.3,-1.7 l-2.1,-1.6 l-1.3,-1.4 l-0.8,-0.6 l-3,-0.5 l-0.9,-0.6 l-1.7,-2.9 l-1.3,-1.2 l-1.3,-0.4 l-0.6,-0.5 l-0.7,-1.1 l-0.3,-1.5 l0.3,-1.8 l1.4,-1.3 l1,-1.5 l0.2,-0.9 l0.3,-2.4 l1.2,-2.1 l0.7,-1.8 l0,-2.7 l0.2,-1 l0.9,-1.4 l3.9,-3.1 l0.5,-1 l0.3,-1.2 l-0.3,-3.4 l-1.9,-3.3 l-0.3,-1.2 l0.1,-1.6 l0.4,-1.7 l-0.2,-1.4 l-0.6,-1.9 l-1.4,-3.8 l-0.9,-1.5 l-0.8,-0.9 l-1.9,-0.6 l-4.4,-4.7 l-3.4,-2.6 l-0.8,-0.9 l-0.5,-1.3 l-0.2,-1.5 l0.1,-2.3 l0.6,-2.7 l0.8,-1.7 l1.1,-0.7 l3.2,-0.3 l0.8,-0.3 l1.4,-1.3 l2.3,-3.9 l0.6,-1.4 l0.4,-1.4 l0.1,-1.6 l0,-1.9 l-0.2,-2 l-0.5,-1.5 l-0.5,-1.1 l-1.1,-1 l-1.5,-0.9 l-0.6,-0.9 l0.7,-1.6 l1.2,-0.9 l0.6,-1 l0.2,-0.7 l-0.1,-3.1 l0,-1.1 l0.8,-1.2 l1.6,-1.4 l-0.1,-1.8 l-1.1,-2.5 l-7.5,-9.3 l-1,-1.6 l-3.1,-6.5 l-1.5,-4.3 l-1.4,-2.6 l-4.2,-3.9 l-0.5,-0.2 l0.9,-1.5 l3.2,-2.8 l8,-3.1 l2.9,1.4 l-0.6,7.2 l1.7,-0.7 l1.2,-1.9 l2.1,-4.9 l-0.7,-3 l1.6,-1.4 l2.5,0.5 l4.5,2.2 l-0.7,3.4 l-1.5,4.9 l-0.3,3.3 l1,-0.1 l6.5,-6.8 l2.7,0.6 l2.1,2.7 l1.9,2.9 l1.7,1.4 l0.8,1.6 l-1,3.5 l-2.6,5.7 l1.2,0.1 l1.3,-0.3 l1.2,-0.9 l0.9,-1.2 l1.1,-0.9 l1.1,1 l1.2,1.4 l1,0.8 l1.4,1.7 l0.9,3.9 l0.7,4.5 l1,3.5 l-1.7,6.6 l-0.7,3.9 l0.2,1.8 l6.5,1.6 l4.2,2.7 l6.7,1 l0.9,0.7 l1,1.8 l1.5,3.6 l2.1,1.7 l0.7,2.2 l0.4,2.6 l1.3,4.6 l0.7,0.3 l1.7,-0.2 l0.8,0.2 l0.6,0.8 l0.9,2.7 l0.3,1.8 l-0.2,6.2 l0.3,2.5 l1.7,3.9 l0.5,1.7 l0,9.3 l0.3,1.4 l0.8,0.6 l2.6,3.9 l4.3,4.5 l-0.5,2.9 l0.4,4 l1.1,3.1 l1.5,0.5 l1.1,-2.7 l0,-4.1 l-0.8,-3.9 l-0.9,-2.7 l-0.7,-0.8 l-1.9,-1.4 l-0.5,-0.9 l-0.4,-2.5 l0.2,-1.4 l0.8,-2.3 l0,-2 l-0.3,-3.1 l0.3,-2.4 l0.5,-0.8 l1.5,-1.5 l0.5,-0.7 l0.5,-4.1 l-0.3,-3.5 l-2.7,-10.5 l0,-3.8 l-0.2,-0.8 l-1.2,0.3 l-0.5,-0.2 l-1.8,-4 l-0.7,-0.7 l-0.4,-1.2 l-1,0.3 l-0.7,2.1 l-0.3,0.4 l-1.2,-0.8 l-2.8,-3.6 l-1,-1.6 l0.9,-3.2 l-0.4,-2.9 l-1.1,-2.3 l-2.6,-1.7 l-1.8,-4.6 l-1.2,-2.1 l0,-1.6 l0.7,0 l0,-1.6 l-2.5,-6.3 l-1.1,-10.4 l0.5,-10.4 l2.4,-6.5 l1.2,-0.5 l8.1,0.5 l1.3,0.8 l2.1,1.9 l1.3,0.4 l3.8,-0.4 l1.5,0.4 l-0.3,1.2 l-0.4,0.4 l3.4,2 l8.9,-2.3 l3.8,1.7 l0.8,1.8 l0.9,4.4 l0.8,1.6 l1,0.5 l3.7,-0.5 l1.6,1 l2.9,4.2 l1.6,0.9 l1.3,1.1 l3.5,5.6 l1.1,2.4 l1.5,6.5 l1,2.9 l2.9,2.2 l1.6,2.3 l2.3,4.5 l3.1,9.2 l1.3,2.9 l0.3,-4.2 l-0.7,-3.3 l-1.2,-3 l-0.9,-3.2 l1.7,0.1 l2.1,-0.6 l2,-1.1 l1.6,-1.5 l-8.3,0.5 l-2.2,-1.9 l14.4,-0.2 l1.1,1.1 l0.6,2.5 l1.3,4.1 l0.5,0 l0.5,-1.6 l0.1,-1.6 l-0.3,-1.6 l-0.8,-1.3 l0,-1.4 l1.1,-1 l1.1,-1.6 l0.5,-2.3 l-0.3,-2.9 l1.5,-1.7 l0.6,-1.1 l0.4,-1.7 l0.1,-1.2 l-0.2,-3.5 l0.1,-2.9 l1.1,-3 l2.3,-3 l2.7,-2.2 l2.3,-0.9 l0.9,-1.2 l0.6,-2.6 l0,-2.7 l-0.3,-1.2 l-1,-0.6 l0.4,-1.6 l1.9,-3.2 l2.4,-2.6 l5.6,-2.1 l0.9,-3.9 l2.4,2.3 l9.1,0.9 l2.4,1.7 l1.8,4 l3.5,9.6 l-0.1,1.2 l0.1,2 l-1.2,0 l0,1.5 l1,1 l1.2,0.5 l1.1,-0.3 l1.1,-1.2 l-0.6,-0.2 l-1.4,-1.3 l3.3,-2.5 l11.4,-3.2 l1.8,1 l-1.4,0.5 l-1.4,1 l-1.3,1.7 l1.2,0.8 l1.6,3.2 l0.7,-0.3 l1.8,-4.5 l1.1,-1.8 l1.1,-0.5 l2.5,2.5 l1.9,4 l2,3.3 l2.9,0.8 l0,-1.4 l-2.9,-2.2 l-1.4,-1.6 l-1,-1.6 l-0.7,-2.9 l0,-2.2 l-0.4,-1.8 l-1.6,-1.6 l4.1,-3 l6.1,-2.1 l3.8,-2.4 l2.1,0 l-8,4.7 l-2.5,2.8 l7.9,-3.2 l1.9,0.1 l2.2,2 l3.5,5.4 l2.4,0.4 l0,-1.7 l-3.2,-3.3 l-1.6,-2.5 l-0.7,-2.5 l0.3,-3.4 l1,-2.9 l1.3,-2.2 l1.6,-1.5 l-0.1,-1.4 l0.3,-1 l0.8,-1.8 l0.6,-2.2 l0.3,-2.1 l-0.2,-3.4 l-0.7,-1.9 l-0.8,-1.5 l-1.5,-3.4 l-0.9,-1.3 l-0.6,-0.1 l-0.5,-0.9 l-0.2,-3.9 l-0.2,-1.3 l-2.5,-2 l-0.6,-1.8 l0.7,-4 l-1.3,0 l1.3,-3.2 l-0.7,-0.7 l-0.4,-0.9 l-0.9,-2.9 l2,0 l0,-1.6 l-1.6,-2.2 l-1.7,-7.2 l-2.6,-3 l0.8,-3.1 l1.9,-2.8 l1.9,-0.4 l0.5,1.4 l0.1,1.7 l0.3,1.4 l1,0.3 l0.6,-3.2 l0.7,-2.1 l1.1,-1 l2.6,-1.1 l1.5,0.1 l0,1.8 l-0.5,2.5 l0.3,2.1 l0.8,1.6 l1,0.7 l-0.4,-3.2 l-0.3,-1.3 l1.4,-0.5 l2.7,-2.3 l0.8,-0.4 l1.4,1.2 l1,1.7 l1,1.4 l1.6,0.3 l-1.3,1.4 l-0.5,0.3 l1.5,1.4 l1.7,-0.3 l2.3,-1.1 l0,-1.7 l1,-1.6 l0.9,-2.2 l1.1,-1.4 l0.8,3.2 l1,0.4 l1,-1.3 l0.8,-4.3 l0.7,-1.1 l2,-1 l2.5,0 l5.2,2.3 l1,-0.6 l4.2,-1.8 l7.6,7.7 l4.3,1.7 l-1.2,2.1 l-1.4,0.9 l-1.2,1.4 l-0.5,3.5 l1.2,0 l0,1.4 l-1.8,1.7 l0.4,0.6 l1.4,2.5 l-1.1,2 l1.3,0.4 l3.2,-0.9 l3.7,0.9 l1.5,-0.9 l-0.5,4.7 l8.6,0 l1.7,0.6 l1.4,1.6 l0.9,2 l-0.2,3.5 l1.8,6.2 l-3.8,7.1 l-2.1,2.9 l-2.8,2.3 l1.3,3.2 l1.1,-1.3 l1.1,0.7 l1.2,1.4 l3,1.3 l0.3,1.6 l-0.4,2.4 l-0.7,3.1 l1.4,1.2 l6.6,0.3 l3.2,-1.5 l1.1,0.3 l1.3,2.6 l1,-0.4 l0.8,-1 l0.2,2.4 l0.6,2 l0.9,1.4 l2.6,1.2 l2.7,3 l2.9,2.4 l1.7,3 l1.8,2 l2.2,-2 l-0.8,-0.3 l-0.5,-1.3 l1.6,-1.2 l1.1,-2.5 l0.8,-3.5 l0.2,-4.4 l-0.3,-4.5 l-0.4,-3.2 l0.6,-2.2 l2.6,-1.5 l11.1,0 l6.4,-2.3 l0.5,-1.7 l0.1,-2.1 l0.5,-1.7 l6.4,-4.2 l1,-2.7 l0.6,-3.5 l1.5,-2.7 l3.6,-3.7 l2.4,-1.8 l7.7,-1.4 l2.2,0.6 l3.4,3 l2.2,1 l17.2,-3 l-4.3,4.8 l-16,7.4 l-7.2,5.6 l-8.3,2.1 l-2.8,2.4 l-2.2,3.9 l2.2,0.8 l1.1,1.2 l0.5,1.8 l0.4,0.4 l2,4 l1,2.2 l-0.4,2.7 l-1.1,3.7 l-0.8,1.7 l-8.6,8.5 l-1.6,0.7 l-5.5,0.4 l-2.4,2.1 l-1.7,5 l2.8,2.2 l1.4,0.6 l5.3,0.4 l1.2,1.7 l0.5,4.2 l-1,0.7 l-1.6,1.8 l-1.1,0.7 l1.9,1.5 l10.2,0.3 l5.8,2.8 l4.1,-0.4 l7.5,-6.8 l4.6,-0.6 l2,1.1 l1.8,2.1 l1.3,3.4 l0.5,5 l0.5,2.6 l1.3,0.9 l1.3,0.3 l0.6,0.8 l0.2,2.6  z m-304.4,-124.3 l-1.7,1.3 l-1.6,-2.6 l-0.2,-3.8 l1,-0.6 l2.2,3.1 l0.7,0.5 l-0.4,2.1  z " id="ISL702" name="Norðurland eystra"></path><path d="M219.4,547.3 l8,8.7 l9.6,-0.5 l11.7,-0.7 l13.4,1.5 l-21.9,24.8 l-1.6,2.7 l-1.8,3.8 l-2.5,0.9 l-3.7,0.2 l-1.2,-0.1 l-4.7,1.5 l-24.5,-5.6 l-1.9,1.4 l-1.6,2.5 l-1.7,1.7 l-1.9,-1.4 l1.3,-1.4 l-2.2,0 l-3.4,2.2 l-2.9,1 l-1.7,1.7 l-1,0.7 l-1,0.2 l-8.7,-1 l-2,0.8 l-1.5,2.3 l-0.7,0.4 l-1.1,-0.6 l-1.4,-2.7 l-1,-0.7 l0.6,-2.1 l1.2,-2.7 l0.1,-2.3 l-0.3,-2.2 l-0.8,-1 l-1,-0.9 l-1,-1.6 l1.4,-2.1 l1.8,-7.5 l0.8,-1.7 l4,0 l0.6,-0.7 l-0.3,-2.1 l-1,0 l-2,1.4 l-1.8,-0.4 l-1.9,-1.5 l-1.5,-2.6 l-0.7,-3.9 l1.4,-4 l0.4,-1.7 l0.1,-2.3 l-0.2,-7.9 l0.5,-1.8 l1,-1.4 l1.1,-0.8 l1.3,0.5 l2.8,3.1 l3.1,2.2 l2.5,3.7 l2.2,5 l1.2,5.4 l-1.3,0 l1.5,2.2 l2.2,0.7 l8.8,0.4 l2.2,-0.5 l1.4,-1.4 l-1,-1.5 l0.5,-1.7 l1.3,-1.5 l1.1,-1 l1.3,-0.6 l4.3,-0.8 l3.3,-2.5 l1,-0.4 l1.1,0.4 l2.4,2.1 l1.2,0.4 l2.3,-0.8 l4.4,-3.9 z" id="ISL704" name="Suðurnes"></path><path d="M357,700 l-1.3,-0.3 l-0.4,-0.8 l0.9,-2 l1.3,0 l0.1,2.3 l-0.6,0.8  z m30.1,-23 l-0.9,1.3 l-0.6,-0.7 l-0.5,-1.8 l-0.5,-1.6 l-0.7,-2.3 l0.3,-2.3 l1.8,-0.9 l2.1,-0.2 l-0.3,1.4 l0.4,0.7 l0.5,2.3 l-0.7,2.2 l-0.9,1.9  z m228.5,-59.7 l-0.6,2.3 l-0.9,0.3 l-0.1,-1.1 l-0.7,-0.6 l-1,0.1 l-4,1.4 l0.3,-1.7 l2.7,-2.8 l1.6,-1 l0.6,-0.2 l1.3,0.3 l0.7,1.3 l0.1,1.7  z m78.3,-159.2 l-42,90.1 l-3.3,12.6 l-0.5,4.1 l-0.4,35.8 l0.2,2.3 l-7.4,2.5 l-8.4,2.1 l1,-1.5 l0.5,-1.8 l0,-2.2 l-0.5,-2.1 l-0.7,3 l-1.1,1.9 l-1.3,0.6 l-1.3,-1.4 l0.3,2.1 l0.4,0.7 l0,1.5 l-11.8,8.4 l0.9,-4.5 l2.3,-2.5 l2.9,-1.1 l2.6,-0.3 l0,-1.5 l-6,-3.1 l-2.1,-2.5 l-0.5,2.8 l0.5,2.8 l-2.4,1.6 l-2.2,-0.4 l-2.3,-1.1 l-2.4,-0.1 l1.8,1.5 l0,1.3 l-2.2,0 l-1.1,0.4 l-0.9,1.1 l-1.5,-0.8 l-1.6,1.2 l-1.4,2.3 l-0.5,2.2 l-0.5,3.6 l-1.2,2.5 l-1.6,0.7 l-1.7,-1.9 l-1.2,1.7 l-0.4,1.8 l0.4,1.5 l1.5,0.6 l1.2,-0.5 l1.8,-1.9 l1.3,-0.4 l7.2,0.8 l2.4,-0.8 l-3.9,7.6 l-2.3,2.1 l-2.4,-1.4 l0.6,-1.2 l-3.7,0 l0.1,1.9 l-2.5,-0.3 l-0.2,1 l0.8,0.6 l0.3,1.4 l-0.3,2.3 l6.7,-0.4 l1.3,-1.1 l-2.3,6.9 l-3.2,6.3 l-4.2,4.6 l-9.2,4.2 l-6,4.5 l-5.6,1.4 l-3,-4.2 l1.2,-1.5 l2.5,-0.9 l1,-1.1 l1.2,-2.2 l1.1,-1 l2.9,-0.2 l0,-1.4 l-2.6,-0.1 l-4.8,1.6 l-2.5,-0.1 l-6.1,-3.9 l-1.9,-0.4 l0.6,1.5 l-0.7,0.3 l-0.6,1.1 l0.9,1.2 l1.9,3.5 l1.5,2 l0.5,2.9 l0.2,2.8 l0.3,1.3 l3.8,0.3 l2.1,0 l1.6,0.3 l-19.4,2.9 l-11.2,5.4 l-19,5.2 l-4.6,-0.1 l-17.4,-5.4 l-7.3,2 l-1.6,-0.9 l0.8,-1.1 l-3.2,-0.8 l-1.6,-0.9 l-1.3,-1.2 l-1.9,2.6 l-12.1,-2.6 l-1.2,-0.6 l-4.7,-3.6 l-7.4,-1.5 l-10.6,-7.2 l-14.5,-3.9 l-2.9,-2.6 l1.3,-0.2 l0.6,-0.8 l0,-1 l-1.2,-0.9 l-1.1,-0.1 l-1.5,1.3 l-1.1,0.3 l-8.7,-1.5 l0.3,1 l9,1.9 l-23.8,-1.7 l-1.6,-2.5 l-1.2,1.3 l-0.4,-0.9 l-0.9,-0.4 l0.6,2.8 l-6.9,0.2 l-3.4,-0.9 l-13.7,-11.6 l1.4,0 l1.4,-0.4 l1.4,-1.3 l-1.1,-0.2 l-2.1,-1 l-1.1,-0.2 l0.6,-4 l-1.7,2.4 l-1.5,1 l-1.6,-0.4 l-2,-1.8 l0,-1.2 l3.1,1.2 l-1.2,-3.1 l-1.7,-1.8 l-1.8,-1.4 l-1.6,-2 l-1.4,-3.5 l-0.8,-2.4 l-1.1,-1.3 l-2.2,0.2 l0,1.3 l3.1,4.5 l1.9,3.4 l1.2,3.3 l-6,-5.5 l-2.8,-3.6 l-1.7,-4.8 l1.2,-1.5 l-0.6,-1 l-1.3,-3.2 l2.6,-2.9 l2.8,-1.7 l6.1,-1 l2.9,1.4 l5,5.3 l3,0.4 l-1.5,-1.9 l-2.2,-3.9 l-1.3,-1.3 l-6.9,-4.1 l2.8,-5.1 l0.4,-2 l-0.4,-2.9 l-1,-0.7 l-0.8,0.7 l0.3,1.6 l0,1.3 l-1.1,2 l-3.9,5.1 l-2.5,3 l-1.7,1.8 l-2.2,0.7 l-0.7,0.8 l-0.1,2 l0,2.3 l-0.2,2 l-0.7,2 l-0.4,0.4 l-4.1,-2.3 l-4,-3.5 l-3,-1.4 l-6.4,-5.1 l5.9,0 l1.1,0.6 l2.2,2.1 l1.3,0.1 l0.2,-1.2 l1.2,-0.3 l3,0.1 l0,-1.4 l-2.5,0 l0,-1.4 l1.3,0 l0,-1.3 l-6.4,1.7 l-2.3,-0.4 l0,-1.3 l3.1,-4 l0.9,-6.2 l-1.3,-5.3 l-3.4,-1.3 l0,1.3 l2.6,1.1 l-0.3,2.8 l-1.7,3.3 l-3.4,4.6 l-2.2,1.7 l-2.4,0.6 l-2.5,-1.5 l1.3,4.2 l-3.6,-3.9 l-8.2,-5.5 l-11.5,-4.4 l-4,-2.8 l-2.2,-1.1 l-2.1,-1.6 l-1.9,-3.2 l0.5,-1.6 l-0.1,-2.1 l-0.9,-4.8 l7,0.5 l3.9,-0.9 l2.6,-2.4 l-6.8,0 l-4.3,-2.4 l-1.5,-0.4 l-4.7,1.3 l-1,0.8 l-0.8,1.3 l-2.8,3.1 l-1,0.7 l0,1.3 l4.6,2 l2.3,2 l1.2,3.1 l-1.9,-1 l-4.1,-0.7 l-4.2,0.5 l-2.5,1.1 l-1.5,2.1 l1.2,3.6 l-0.4,0.1 l-0.9,1.3 l-26.5,3.6 l-3.2,-2.2 l-3,-3.2 l-2.8,-2.1 l-3,-0.4 l-12.6,4.6 l1.8,-3.8 l1.6,-2.7 l21.9,-24.8 l3.5,0.2 l0.7,-0.6 l0.6,-3.3 l0.5,-1.2 l2.2,-2.5 l2.1,-3.3 l3.8,-7.3 l7.8,-15.7 l0.8,-2.3 l0.7,-2.9 l-1.2,-5.2 l-0.3,-1.4 l0.1,-1.4 l0.3,-1.3 l1.3,-3.3 l1,-1.9 l21.6,-22.2 l6.4,-8.3 l13.4,-12.6 l10.5,-12.6 l2.2,-1.6 l14.6,-5.3 l28.4,-18.4 l24.3,-11.5 l2.6,-2.6 l1.4,-2 l0.8,-2.2 l0.2,-1.7 l-0.1,-2.5 l-0.2,-3.2 l0.1,-2.7 l1.4,-5 l23.2,10.4 l2.2,0.5 l2.6,-0.2 l23.7,-7.2 l22.6,0.1 l25.7,-11.5 l40.2,-9 l8.4,8 l9,5.5 l25.9,15.1 l45.6,27 l51.2,30.9  z " id="ISL705" name="Suðurland"></path><path d="M307.6,480.7 l-21.6,22.2 l-1,1.9 l-1.3,3.3 l-0.3,1.3 l-0.1,1.4 l0.3,1.4 l1.2,5.2 l-0.7,2.9 l-0.8,2.3 l-7.8,15.7 l-3.8,7.3 l-2.1,3.3 l-2.2,2.5 l-0.5,1.2 l-0.6,3.3 l-0.7,0.6 l-3.5,-0.2 l-13.4,-1.5 l-11.7,0.7 l8.4,-8.9 l16.4,-7.1 l4.5,-21.7 l-0.9,-14.8 l-10.9,-3.8 l-12.6,0.4 l3.8,-2.8 l2.8,-3.1 l1.9,-3.5 l1.6,-4.3 l0.9,-1.3 l1.5,-0.9 l2,-0.5 l4,0.6 l-0.1,-0.8 l-0.8,-0.7 l-0.7,0 l3.6,-3.1 l2,-1 l2.2,-0.4 l12.4,3.4 l2.1,-0.5 l1.5,-2.5 l5.7,-1.9 l8.4,-0.4 l3.6,-2.3 l1.1,-0.2 l4.1,0.7 l0.8,0.5 l1.3,1 l0.5,1.5 l-0.2,0.8 l-0.3,2.8 z" id="ISL709" name="Höfuðborgarsvæði"></path><path d="M200.2,445.6 l0.6,0.3 l-0.6,1.4 l-1.3,0.5 l-1,1.5 l-0.4,-0.6 l-0.1,-1.6 l-0.4,-0.5 l0.6,-1 l0.9,-1 l1.4,0 l0.3,1  z m-7.6,-44.2 l1.4,1.7 l1.4,-0.5 l0.4,0.1 l0.1,1.4 l-0.6,0.3 l-1,-0.3 l-1.2,-0.8 l-1.5,-1.8 l-1.7,-2.5 l-0.8,-1.1 l-0.4,-2.2 l3.9,5.7  z m-1.4,-73 l0.1,1 l-5.4,1 l-1,-0.3 l-1.2,1.7 l-0.2,-0.4 l0.4,-1.4 l0,-1.4 l1,0.5 l4,-1.4 l2.3,0.7  z m-13.8,-8.5 l0.4,0.4 l-0.2,2.2 l-2,1.3 l-0.6,-0.4 l1.3,-0.7 l-1.5,-2.6 l0.7,-0.1 l1,-1.1 l0.9,1  z m-11.5,-1 l1.3,0.7 l-1.1,0.3 l-0.2,-1  z m16.2,-2.1 l-0.2,0.9 l-1,1.4 l-0.9,0.1 l-0.1,0.8 l-0.6,0.1 l-1,-1.3 l0,-1.3 l1.1,0.7 l0.9,-0.5 l1.8,-0.9  z m-10.8,-2.7 l-2.2,1.5 l0,-1.3 l0.9,-1.1 l0.1,-0.5 l1.2,0.1 l0,1.3  z m1.6,-2.7 l-1.9,0.5 l-0.3,-0.8 l0.9,-1.7 l3.3,-2.8 l0.7,0.3 l-0.1,0.6 l-1.2,0.4 l-0.4,0.7 l-1.3,1.1 l-0.2,0.6 l0.5,1.1  z m149.6,40.7 l0.8,2.2 l7.8,5.2 l1.3,0.4 l7.5,0.6 l1,0.4 l3.4,3.5 l1.5,0.2 l29,-8.8 l1.3,0.1 l4.3,2.3 l21.6,0.5 l26.7,1.2 l0.8,0.4 l0.7,2.1 l0,2.9 l-0.6,1.9 l-0.8,1.5 l-10.4,11.4 l-4.8,8.4 l-1.4,5 l-0.1,2.7 l0.2,3.2 l0.1,2.5 l-0.2,1.7 l-0.8,2.2 l-1.4,2 l-2.6,2.6 l-24.3,11.5 l-28.4,18.4 l-14.6,5.3 l-2.2,1.6 l-10.5,12.6 l-13.4,12.6 l-6.4,8.3 l0.3,-2.8 l0.2,-0.8 l-0.5,-1.5 l-1.3,-1 l-0.8,-0.5 l-4.1,-0.7 l-1.1,0.2 l-3.6,2.3 l-8.4,0.4 l-5.7,1.9 l1,-1.7 l-4,2.4 l-2.2,-1.1 l0,-1.3 l1.6,-0.2 l1.4,-1.2 l0,-1.4 l-16.4,-1.1 l-7.7,1.9 l-6.8,6.2 l-1.1,3.3 l-0.8,1.1 l-0.8,0.6 l-1.7,0.6 l-0.9,0.1 l-1.4,0.6 l-4.1,3 l-1.3,1.6 l-3.4,3 l-4.2,-0.5 l-8.2,-3.1 l0,-1.6 l3.8,-2.3 l3.6,-3.4 l3,-4.3 l2,-1.2 l1.9,1.2 l1.7,-1.8 l4,-1.3 l1.8,-1.2 l-8.1,-0.9 l-2.5,0.9 l-1.7,1.2 l-1.5,0.5 l-1.3,-1.1 l-1.7,-3.6 l1.2,-1.9 l0.2,-2.6 l0,-2.9 l0.7,-3.3 l0.6,-0.2 l0.8,0.6 l0.6,0.1 l0.4,-3.7 l0.5,-1.6 l1.2,-3 l0.1,-2.2 l2.3,-2.1 l10.2,-5.3 l5.4,-0.5 l-0.5,-1.9 l-0.8,-1.1 l-1.2,-0.3 l-1.2,0.3 l0,-1.4 l1.6,-1.5 l3.5,-4.8 l3,-1.4 l1.5,-1.8 l0.8,-0.7 l1.3,-0.2 l3.7,0.2 l-0.3,3.8 l1.8,0.6 l2.3,0.1 l1.2,2.1 l1.2,1.6 l7.5,0.5 l-1.5,-1.2 l-3.2,0.3 l-1.5,-0.4 l-1.4,-1.5 l-1.9,-3.2 l-1.7,-1.1 l3.7,-1.6 l0,-1.3 l-9.3,0 l0,-1.6 l5.2,-3.2 l1.6,-1.7 l1.5,-0.4 l7.2,1.2 l0,-1.6 l-7,-1.5 l-2.3,0 l-5.8,5.5 l-2.3,0.3 l0,-1.4 l2.4,-2.3 l0.9,-1.6 l0.5,-2 l-3.6,3.9 l-1,0.7 l-0.9,1.1 l-0.6,4.8 l-1.1,1.1 l-0.9,0.6 l-3.7,3.8 l-4.7,1.8 l-1.4,1.2 l0.5,2.8 l-2.7,-0.9 l-2.5,0.7 l-5.3,4.6 l-2.1,2.6 l-1.4,0.8 l-1.5,-0.6 l-1,-2 l0.2,-2.1 l1.4,-4.6 l-1.8,0.6 l-0.9,2.3 l-0.3,3.3 l0,3.2 l-0.3,1 l-2.2,4.1 l-0.4,1.9 l-0.1,2.7 l-0.8,1.2 l-3.2,0 l-0.8,1.5 l-0.8,0.7 l-1.6,0.6 l-1.5,-0.7 l-1.6,-1.9 l-1.4,-2.7 l-0.8,-3.3 l-1.5,2 l-1.6,0.8 l1.3,-2.6 l1.1,-3.3 l0.3,-3.2 l-0.9,-2.3 l1.3,-1.5 l-1.5,-1.3 l-1.6,-0.2 l1.3,-2.9 l0,-1.3 l-4.2,3.1 l-2.6,1.2 l-1.9,-0.1 l-1.7,-2.6 l-0.6,-3.5 l0.3,-3.3 l1.3,-2.2 l0,-1.3 l-1.6,-0.3 l-1.1,-1.5 l-1.3,-2.6 l-1.2,-0.6 l-1.3,-1.6 l-1.2,-1.9 l-0.9,-1.8 l2.2,1 l2.4,2.4 l2.4,1.4 l2.3,-1.8 l-1.9,0 l0.5,-2.4 l0.9,-1.6 l1,-1 l1.3,-0.8 l-1.3,-1.4 l0,-1.5 l10.5,-5.3 l2.6,-3.4 l0,-1.4 l-5.6,4.9 l-3,1.6 l-2.9,0.6 l-2.5,1.6 l-2.7,3 l-2.6,1.8 l-1.8,-1.9 l1.2,-0.9 l2.5,-3.6 l1.8,-1.9 l1.1,-1.6 l0.9,-2.2 l-0.7,-1.4 l0.8,-0.4 l1.7,-2.5 l-2.1,-2.4 l-2.7,-0.8 l-5.8,0.3 l1.3,-2.9 l-1.8,0 l0.6,-2.2 l1.7,-4.1 l0.7,-2.5 l-0.9,0.2 l-0.8,0.9 l-0.7,1.4 l-0.6,1.8 l-0.6,-2 l-0.8,-0.8 l-0.8,0.3 l-0.9,1.1 l0,1.4 l-5,-1.4 l-1.4,0.7 l-2.7,3 l-1.5,0.6 l0,1.6 l0.7,0.2 l1.8,1.2 l-8.3,1.7 l-2.2,-1.7 l2.1,0.4 l1.1,-0.2 l0.8,-0.9 l-0.3,-1.2 l-0.9,-1.7 l-1.1,-1.6 l-0.8,-0.7 l-9.6,0 l1.4,1.6 l4.8,2.9 l0,1.4 l-2.5,0 l-4.2,-3.8 l-2,-0.5 l-11.3,-1.1 l-10.8,0 l-12.5,-0.9 l-5.2,-5.6 l-5,-0.3 l-8.8,2 l0,0.6 l-1.6,2.8 l-1.6,1.8 l-1,0.7 l-1.1,0.3 l-10.5,-3.3 l1,-0.9 l1,-0.6 l-0.4,-0.8 l-3.4,1.9 l-2.7,3.5 l-0.4,4.2 l-1.7,5 l-2.5,2.1 l-6.7,0.2 l-1.9,0.5 l-4,2.3 l-1.8,0.2 l-6.6,-3.8 l-1.4,-2 l-1.3,-0.6 l-0.9,-1 l-0.4,-3.6 l-0.5,-1.9 l-3.9,-6.2 l-1.6,-3.3 l-1.4,-3.6 l-2.5,-9.1 l0.6,-1.6 l1.8,1.9 l1.7,-0.8 l3.4,-4 l1.7,-1.1 l9.8,-2.8 l1.9,0.2 l7.3,4.8 l10,1.8 l0.8,-0.5 l1.7,-2.7 l0.8,-1 l3.8,0.2 l0.9,-0.9 l3.3,-5.3 l3.7,-1.3 l8.2,1.5 l0,-1.6 l-0.5,-0.6 l-0.8,-2.4 l3.8,-0.2 l1.2,1.1 l-0.6,3.7 l1.2,0.9 l0.7,-1.2 l0.8,-1.4 l1,0.1 l0.3,2 l0,3 l0.5,1.6 l1.6,-2.2 l1.5,1.3 l1.6,-0.8 l1.3,-2 l0.6,-2.1 l-0.4,-2.2 l-0.6,-2.8 l-0.5,-3.1 l0.3,-3 l2.4,-3.4 l3.8,-0.7 l7.4,1.2 l-0.7,2.5 l-1.1,1.6 l-2.6,1.9 l0.7,2.9 l-1.1,0.3 l-0.7,0.8 l-1.4,3.2 l5,7.4 l-0.5,-3.2 l-0.1,-2.7 l0.4,-2.3 l0.9,-2.2 l0.6,-0.4 l1.7,-0.4 l0.7,-0.5 l0.6,-1.2 l0.6,-2.7 l0.4,-1.3 l2.5,-3.3 l2.6,-0.3 l2.4,2.1 l2.1,3.8 l1.4,-2.2 l1.9,-1.4 l5.6,-1.4 l5.4,-3.8 l-1.5,-0.9 l-6.6,0.9 l0,-1.6 l3.8,-0.8 l6.8,-7.1 l3.6,-0.9 l-1.2,1.5 l1.6,0.5 l1.5,1 l-0.1,1.9 l0.1,0.9 l-1.2,1.8 l-2.8,1.6 l-0.9,1.2 l1.1,0.4 l1.6,-0.1 l1.5,-0.7 l1.3,-1.2 l0.6,4.2 l0.8,1.7 l3,1.4 l4,3.8 l1.5,0.6 l0,-1.3 l-1.1,-0.7 l-1,-1.3 l-2.2,-4 l2.4,-3.3 l1.4,-1 l1.8,-0.1 l0.2,-2.8 l1.6,-0.8 l7.6,0.3 l7.4,-1.8 l12.2,2.5 l8.1,4.2 l1,-0.5 l1.3,-2 l0.9,-0.5 l6.8,0 l1.8,0.8 l1.9,1.5 l1.9,0.7 l1.8,-1.6 l2.3,1.6 l10.1,-1.6 l2.4,-2 l0.1,-2.7 l-1.6,-2.1 l-2.8,-0.5 l0.9,-2.8 l1.1,-1 l1.3,-0.5 l1.7,-1.6 l1.1,-2.4 l3.8,-11 l0.3,-7.5 l-2.9,-3.1 l-3.9,0.4 l-2.8,2.9 l0,1.5 l0.7,0 l0,1.6 l-13.7,11.8 l-4.5,1.9 l-25.8,-5.1 l-6.5,-5.3 l-0.9,-0.5 l-1.8,1.1 l-8.2,1.3 l-2.4,-1 l-1.8,-2.1 l1.4,-1 l2.7,-0.8 l2,-1.9 l0.7,1.1 l0.7,0.5 l1.7,0 l0,-1.6 l-2,-1.5 l-2.3,-0.2 l-4.4,1.7 l0.9,-3.2 l1.7,-3.1 l3,-4 l4.2,-2 l1.6,-1.9 l-0.2,-3.5 l1.3,-0.6 l3.3,0.6 l0.8,-0.8 l2.7,-5.2 l2.4,-1.9 l10.1,-2.9 l8.5,-6.6 l3.3,-4.2 l5.7,-3 l2.1,-2.3 l-0.6,-0.4 l0.1,-0.9 l1.3,0.1 l2.2,2.5 l1.4,0.2 l-0.8,-3.4 l-0.4,-1.1 l5.6,-3.3 l11.7,-3.7 l5.6,-3.4 l1.6,-1.4 l2.2,-5.6 l1.1,-1.8 l2.4,-1.7 l1,2.9 l0.1,6.5 l-0.3,2.5 l-0.5,3.4 l0.3,2.2 l-0.2,0.9 l-0.7,0.9 l-2.2,2 l-1,1.8 l-0.3,1.5 l0.2,1.3 l0.6,1.2 l2.7,3.3 l7.8,-2.2 l3.3,0 l1,0.6 l0.7,1.3 l1.6,4.8 l5.3,10.9 l2.5,3.2 l0.7,1.6 l0.6,0.8 l2.1,1.3 l4.7,5.8 l0.6,1.5 l0.8,3 l1.7,5.7 l0.2,1.7 l-0.1,1.5 l-0.6,1.6 l-2.3,4.8 l-0.6,2 l-0.3,2.5 l0.3,3.6 l1.4,4.9 l0.6,2 l0.6,1.1 l1.6,1.5 l0.9,1 l1.6,2.8 l1.6,1.7 l0.4,1.7 l-0.1,2.2 l7,6.2 l2.7,1.6 l3,1.1 l6,0.2  z " id="ISL710" name="Vesturland"></path><circle stroke="#072F26" id="reykjavik" cy="525px" stroke-width="3px" fill="#072F26" r="4px" cx="240px" transform=""></circle><circle stroke="#072F26" id="kerio" cy="547px" stroke-width="3px" fill="#072F26" r="4px" cx="340px" transform=""></circle><circle stroke="#072F26" cx="379px" id="strokkur" stroke-width="3px" cy="478px" fill="#072F26" r="4px" transform=""></circle><circle stroke="#072F26" id="secretLagoon" cy="512px" stroke-width="3px" fill="#072F26" r="4px" cx="390px" transform=""></circle><circle stroke="#072F26" cx="398.5px" id="hella" stroke-width="3px" cy="599px" fill="#072F26" r="4px" transform=""></circle><circle stroke="#072F26" id="seljalandsfoss" cy="626.5px" stroke-width="3px" fill="#072F26" r="4px" cx="417px" transform=""></circle><circle stroke="#072F26" id="skogafoss" cy="655.5px" stroke-width="3px" fill="#072F26" r="4px" cx="473.5px" transform=""></circle><circle stroke="#072F26" id="vik" cy="675px" stroke-width="3px" fill="#072F26" r="4px" cx="526px" transform=""></circle><circle stroke="#072F26" transform="" id="fjorargljufur" stroke-width="3px" cy="634.5px" fill="#072F26" r="4px" cx="573.5px"></circle><circle stroke="#072F26" id="svartifoss" cy="560.5px" stroke-width="3px" fill="#072F26" r="4px" cx="687px" transform=""></circle><circle stroke="#072F26" id="fjallsarlon" cy="557px" stroke-width="3px" fill="#072F26" r="4px" cx="729px" transform=""></circle><circle stroke="#072F26" id="jokulsarlon" cy="547px" stroke-width="3px" fill="#072F26" r="4px" cx="752.5px" transform=""></circle><circle stroke="#072F26" id="hofn" cy="498px" stroke-width="3px" fill="#072F26" r="4px" cx="847px" transform=""></circle><circle stroke="#072F26" id="djupivogur" cy="414.5px" stroke-width="3px" fill="#072F26" r="4px" cx="927px" transform=""></circle><circle stroke="#072F26" id="sveinsstekksfoss" cy="395.5px" stroke-width="3px" fill="#072F26" r="4px" cx="906px" transform=""></circle><circle stroke="#072F26" id="breiodalsvik" cy="376.5px" stroke-width="3px" fill="#072F26" r="4px" cx="967.5px" transform=""></circle><circle stroke="#072F26" transform="" id="hengifoss" stroke-width="3px" cy="331.5px" fill="#072F26" r="4px" cx="858.5px"></circle><circle stroke="#072F26" id="egilsstaoir" cy="284px" stroke-width="3px" fill="#072F26" r="4px" cx="918px" transform=""></circle><circle stroke="#072F26" cx="709px" id="krafla" stroke-width="3px" cy="209px" fill="#072F26" r="4px" transform=""></circle><circle stroke="#072F26" transform="" id="hverir" stroke-width="3px" cy="223.5px" fill="#072F26" r="4px" cx="701.5px"></circle><circle stroke="#072F26" transform="" id="myvatin" stroke-width="3px" cy="235.5px" fill="#072F26" r="4px" cx="679px"></circle><circle stroke="#072F26" id="hverfjall" cy="235.5px" stroke-width="3px" fill="#072F26" r="4px" cx="694px" transform=""></circle><text stroke="none" style="outline-style:none;" id="thingvellir-label" stroke-width="1px" x="348px" text-rendering="geometricPrecision" font-family="Helvetica" fill="#000000" font-size="14px" y="511px" transform="" text-anchor="middle">Þingvellir</text><text stroke="none" style="outline-style:none;" id="thingvellir-label" stroke-width="1px" x="423px" text-rendering="geometricPrecision" font-family="Helvetica" fill="#000000" font-size="14px" y="603px" transform="" text-anchor="middle">Hella</text><text stroke="none" style="outline-style:none;" id="seljalandsfoss-label" stroke-width="1px" x="471px" text-rendering="geometricPrecision" font-family="Helvetica" fill="#000000" font-size="14px" y="631.5px" transform="" text-anchor="middle">Seljalandsfoss</text><text stroke="none" style="outline-style:none;" id="skogafoss-label" stroke-width="1px" x="514.5px" text-rendering="geometricPrecision" font-family="Helvetica" fill="#000000" font-size="14px" y="660px" transform="" text-anchor="middle">Skógafoss</text><text stroke="none" style="outline-style:none;" id="vik-label" stroke-width="1px" x="545px" text-rendering="geometricPrecision" font-family="Helvetica" fill="#000000" font-size="14px" y="679.5px" transform="" text-anchor="middle">Vik</text><text stroke="none" style="outline-style:none;" id="fjorargljufur-label" stroke-width="1px" x="622px" text-rendering="geometricPrecision" font-family="Helvetica" fill="#000000" font-size="14px" y="639.5px" transform="" text-anchor="middle">Fjaðrárgljúfur</text><text stroke="none" style="outline-style:none;" id="svartifoss-label" stroke-width="1px" x="646.5px" text-rendering="geometricPrecision" font-family="Helvetica" fill="#000000" font-size="14px" y="565px" transform="" text-anchor="middle">Svartifoss</text><text stroke="none" style="outline-style:none;" id="fjallsarlon-label" stroke-width="1px" x="767.5px" text-rendering="geometricPrecision" font-family="Helvetica" fill="#000000" font-size="14px" y="570px" transform="" text-anchor="middle">Fjallsárlón</text><text stroke="none" style="outline-style:none;" id="jokulsarlon-label" stroke-width="1px" x="715px" text-rendering="geometricPrecision" font-family="Helvetica" fill="#000000" font-size="14px" y="537.5px" transform="" text-anchor="middle">Jökulsárlón</text><text stroke="none" style="outline-style:none;" id="hofn-label" stroke-width="1px" x="823.5px" text-rendering="geometricPrecision" font-family="Helvetica" fill="#000000" font-size="14px" y="503px" transform="" text-anchor="middle">Höfn</text><text stroke="none" style="outline-style:none;" id="djupivogur-label" stroke-width="1px" x="885.5px" text-rendering="geometricPrecision" font-family="Helvetica" fill="#000000" font-size="14px" y="419px" transform="" text-anchor="middle">Djúpivogur</text><text stroke="none" style="outline-style:none;" id="breiodalsvik-label" stroke-width="1px" x="922.5px" text-rendering="geometricPrecision" font-family="Helvetica" fill="#000000" font-size="14px" y="380.5px" transform="" text-anchor="middle">Breiðdalsvík</text><text stroke="none" style="outline-style:none;" id="egilsstaoir-label" stroke-width="1px" x="877px" text-rendering="geometricPrecision" font-family="Helvetica" fill="#000000" font-size="14px" y="288.5px" transform="" text-anchor="middle">Egilsstaðir</text><text stroke="none" style="outline-style:none;" id="hengifoss-label" stroke-width="1px" x="819.5px" text-rendering="geometricPrecision" font-family="Helvetica" fill="#000000" font-size="14px" y="336px" transform="" text-anchor="middle">Hengifoss</text><text stroke="none" style="outline-style:none;" id="krafla-label" stroke-width="1px" x="734px" text-rendering="geometricPrecision" font-family="Helvetica" fill="#000000" font-size="14px" y="208px" transform="" text-anchor="middle">Krafla</text><text stroke="none" style="outline-style:none;" id="hverir-label" stroke-width="1px" x="741.5px" text-rendering="geometricPrecision" font-family="Helvetica" fill="#000000" font-size="14px" y="230px" transform="" text-anchor="middle">Hverarönd</text><text stroke="none" style="outline-style:none;" id="hverfjall-label" stroke-width="1px" x="726px" text-rendering="geometricPrecision" font-family="Helvetica" fill="#000000" font-size="14px" y="248px" transform="" text-anchor="middle">Hverfjall</text><text stroke="none" style="outline-style:none;" id="myvatin-label" stroke-width="1px" x="647.5px" text-rendering="geometricPrecision" font-family="Helvetica" fill="#000000" font-size="14px" y="240.5px" transform="" text-anchor="middle">Mývatn</text><text stroke="none" style="outline-style:none;" id="sveinsstekksfoss-label" stroke-width="1px" x="845px" text-rendering="geometricPrecision" font-family="Helvetica" fill="#000000" font-size="14px" y="400px" transform="" text-anchor="middle">Sveinsstekksfoss</text><circle stroke="#072F26" id="thingvellir" stroke-width="3px" cy="506px" fill="#072F26" r="4px" cx="310.5px" transform=""></circle><text stroke="none" style="outline-style:none;" id="reykjavik-label" stroke-width="1px" x="278.5px" text-rendering="geometricPrecision" font-family="Helvetica" fill="#000000" font-size="14px" y="529px" transform="" text-anchor="middle">Reykjavík</text><text stroke="none" style="outline-style:none;" id="secretLagoon-label" stroke-width="1px" x="444.5px" text-rendering="geometricPrecision" font-family="Helvetica" fill="#000000" font-size="14px" y="516.5px" transform="" text-anchor="middle">Secret Lagoon</text><text stroke="none" style="outline-style:none;" id="strokkur-label" stroke-width="1px" x="414.5px" text-rendering="geometricPrecision" font-family="Helvetica" fill="#000000" font-size="14px" y="482px" transform="" text-anchor="middle">Strokkur</text><text stroke="none" style="outline-style:none;" id="kerio-label" stroke-width="1px" x="365px" text-rendering="geometricPrecision" font-family="Helvetica" fill="#000000" font-size="14px" y="552px" transform="" text-anchor="middle">Kerið</text><circle stroke="#072F26" transform="" id="dettifoss" stroke-width="3px" cy="172px" fill="#072F26" r="4px" cx="731.5px"></circle><circle stroke="#072F26" id="asbyrgi" cy="131px" stroke-width="3px" fill="#072F26" r="4px" cx="712.5px" transform=""></circle><text stroke="none" style="outline-style:none;" id="dettifoss-label" stroke-width="1px" x="766.5px" text-rendering="geometricPrecision" font-family="Helvetica" fill="#000000" font-size="14px" y="177px" transform="" text-anchor="middle">Dettifoss</text><text stroke="none" style="outline-style:none;" id="asbyrgi-label" stroke-width="1px" x="745.5px" text-rendering="geometricPrecision" font-family="Helvetica" fill="#000000" font-size="14px" y="135px" transform="" text-anchor="middle">Ásbyrgi</text><circle stroke="#072F26" id="husavik" stroke-width="3px" cy="127px" fill="#072F26" r="4px" transform="" cx="652.5px"></circle><text stroke="none" style="outline-style:none;" id="husavik-label" stroke-width="1px" x="619.5px" text-rendering="geometricPrecision" font-family="Helvetica" fill="#000000" font-size="14px" y="132px" transform="" text-anchor="middle">Húsavík</text><circle stroke="#072F26" transform="" id="godafoss" stroke-width="3px" cy="204px" fill="#072F26" r="4px" cx="635.5px"></circle><text stroke="none" style="outline-style:none;" id="godafoss-label" stroke-width="1px" x="670.5px" text-rendering="geometricPrecision" font-family="Helvetica" fill="#000000" font-size="14px" y="200px" transform="" text-anchor="middle">Goðafoss</text><circle stroke="#072F26" id="akureyri" stroke-width="3px" cy="209px" fill="#072F26" r="4px" transform="" cx="586.5px"></circle><circle stroke="#072F26" id="kirkjufell" cy="363px" stroke-width="3px" fill="#072F26" r="4px" cx="125.5px" transform=""></circle><circle stroke="#072F26" id="gerouberg" cy="372px" stroke-width="3px" fill="#072F26" r="4px" cx="204.5px" transform=""></circle><circle stroke="#072F26" id="borgarnes" cy="437px" stroke-width="3px" fill="#072F26" r="4px" cx="235px" transform=""></circle><circle stroke="#072F26" id="hraunfossar" cy="406px" stroke-width="3px" fill="#072F26" r="4px" cx="321px" transform=""></circle><circle stroke="#072F26" id="arnarstapi" cy="389.5px" stroke-width="3px" fill="#072F26" r="4px" cx="83.5px" transform=""></circle><circle stroke="#072F26" id="londrangar" cy="404px" stroke-width="3px" fill="#072F26" r="4px" cx="69.5px" transform=""></circle><circle stroke="#072F26" id="saxholar" cy="375px" stroke-width="3px" fill="#072F26" r="4px" cx="57.5px" transform=""></circle><text stroke="none" style="outline-style:none;" id="akureyri-label" stroke-width="1px" x="552.5px" text-rendering="geometricPrecision" font-family="Helvetica" fill="#000000" font-size="14px" y="214px" transform="" text-anchor="middle">Akureyri</text><text stroke="none" style="outline-style:none;" id="kirkjufell-label" stroke-width="1px" x="159.5px" text-rendering="geometricPrecision" font-family="Helvetica" fill="#000000" font-size="14px" y="367.5px" transform="" text-anchor="middle">Kirkjufell</text><text stroke="none" style="outline-style:none;" id="gerouberg-label" stroke-width="1px" x="244.5px" text-rendering="geometricPrecision" font-family="Helvetica" fill="#000000" font-size="14px" y="376.5px" transform="" text-anchor="middle">Gerðuberg</text><text stroke="none" style="outline-style:none;" id="borgarnes-label" stroke-width="1px" x="275px" text-rendering="geometricPrecision" font-family="Helvetica" fill="#000000" font-size="14px" y="441px" transform="" text-anchor="middle">Borgarnes</text><text stroke="none" style="outline-style:none;" id="hraunfossar-label" stroke-width="1px" x="368px" text-rendering="geometricPrecision" font-family="Helvetica" fill="#000000" font-size="14px" y="410.5px" transform="" text-anchor="middle">Hraunfossar</text><text stroke="none" style="outline-style:none;" id="saxholar-label" stroke-width="1px" x="57.5px" text-rendering="geometricPrecision" font-family="Helvetica" fill="#000000" font-size="14px" y="365px" transform="" text-anchor="middle">Saxhólar</text><text stroke="none" style="outline-style:none;" id="arnarstapi-label" stroke-width="1px" x="124.5px" text-rendering="geometricPrecision" font-family="Helvetica" fill="#000000" font-size="14px" y="394px" transform="" text-anchor="middle">Arnarstapi</text><text stroke="none" style="outline-style:none;" id="londrangar-label" stroke-width="1px" x="113.5px" text-rendering="geometricPrecision" font-family="Helvetica" fill="#000000" font-size="14px" y="414px" transform="" text-anchor="middle">Lóndrangar</text></svg>