<?xml version="1.0" standalone="yes"?><!--
************* Copyright (c) 2017 Pareto Softare, LLC DBA Simplemaps.com *******************             
************* Free for Commercial Use, full terms at  http://simplemaps.com/resources/svg-license ************
************* Attribution is appreciated! http://simplemaps.com ***************************
--><svg xmlns="http://www.w3.org/2000/svg" baseprofile="tiny" fill="#C7DDDA" height="675px" stroke="#ffffff" stroke-linecap="round" stroke-linejoin="round" stroke-width="2" version="1.2" viewBox="0 0 765 675" width="765px" style="zoom: 2;"><path d="M286.4 203.8l3.4 0.1 0.4 15.5-0.6 0.7-0.3 1.1 0 1.3 0.2 1.3 0 0.1 0.4 2.6 0.4 0.8 0.5 0.3 1.1 0.1 0.6 0 0.7-0.1 1.3 0 0.6 0.1 0.8 0.1 0.8 0.4 0.5 0.6 0.6 0.2 1.5 0.2 0.9 0.3 0.5 0.5 0.6 0.9 0.3-0.2 0.7-0.1 3.1 2.2 0.2 0.8-0.4 1.9 0 1 0.2 1.8-0.2 1.1-0.7 1.1-0.3 1 0 0.7 1.6 5.3 1.3 2 0.3 0.4-0.2 0.4-0.6 0.3-2.1 0.9-0.6 0.8-0.3 1.4-0.1 1.6 0 1.1 0.2 1.3 0.5 1.6 0.6 0.7 0.7 0.6 2.3 0.3 1.9 1.7 4.1 4.7 1 0.6 0.9 0.2 2.3 0.2 1.2 0.3 1 0.5 2.6 2.2 0.5 0.2 0.4 0 1.1 0.1 1 0.8 0.3 0.6 0.2 0.5 0.1 0.7 4.1 0.5 1.4 0.4 1.9 1.2 1.9 0.9 2 0.7 1.1-0.1 1.1-1.1 0.5-0.8 0.1-0.2 0.7-0.3 1 0 1.6 0.2 0.9-0.1 0.7-0.4 0.2-0.5-0.1-0.6-0.8-0.5-0.1-0.6 0.2-0.8 0.6-0.6 0.9-0.2 1.4 0.3 1.6 0.1 0.3-0.5-0.3-1.2-0.1-0.8 0-1.2 0.4-0.8 0.2-0.4 0.2-0.6 1 1.2 1.2 1.9-0.1 5.4-0.2 0.9 0 0.8 0.2 1 0.3 3 1.3 2.4 0 3.2 1.2 2.9 14.4-3.3 0.3 0.9 0.4 1.1 0.3 3.6-0.2 1.2-0.4 0.8-1.5 1.5-0.5 1-0.5 1.2 0.3 1.1 0.6 0.6 1.1 0.2 0.7 0.5 1.3 1.7 0.1 1.1-0.3 0.5-0.3 0.8 0.1 0.8 3.7 3.2 1.2-1.2 0.5-0.8 0.3-1.1 0.4-0.4 1.9-1.7 0.3-1 0.1-1-0.1-1.3 0-0.4 0.1-1.3 0.8-1 0.5-1.1 0.3-0.3 0.8-0.3 0.3-0.3 0.3-0.4 0.3-0.7 0.1-0.5 0-0.8 0-0.6 0.3-1.2 0.1-0.6-0.1-1.3-0.3-0.5-0.7-0.4-0.1-0.2-0.3-1 0-0.6 0.1-0.4 0.4-1 0.1-0.3-0.3-1.2 0-0.9 0.1-0.6 0.3-0.5 0.5-0.3 0.7 0 1.3 0.3 0.2 0 0.6 0.7 0.5 1.6 0.5 1.1 0.1 0.9 0.4 0.6 1.2 0.4 7.3-0.1 0.9 0.1 0.6 0.2 0.4 0.2 0.6 0.7-8.5 10.4-0.8 0.1 5 9.9 0.3 0.1 0.4 0 0.7-0.4 1-1 0.4-0.1 0.5 0 0.4-0.1 0 1.7-0.1 0.8-1.4 3.8-0.5 1.1-0.9 1.4-1.2 1.3-1.1 0.7-0.3 0.7 0.2 0.6 0.4 0.6 0.4 0.4 0.1 0.6-0.2 1.1-1 3.7-0.5 1.2-0.8 1.3-0.9 2.8-0.2 3.3 0.4 1.5 0.5 0.9 0.6 0.3 0.2 0.3-0.1 0.6-5.2 11.4-5 10.8-11 23.5-3.2 6.7-0.4 0.7 0.3 0.6 0.4 2 0.4 0.8 2.1 2.8 0.9 0.7 0.6 0.4 1.5 0 0.2 0.2 0.2 1 0.3 0.3 1-0.1 0.5 0 0.4 0.2 2.1 2.7 1.4 0.9 1.9 0.3 0.5 0.4 0.3 0.9 0.1 1.2 0.2 0.8 0.4 0.6 0.6 0.4 0.7 0.3 1.5 0.3 0.7 0.1 1.4 0.3 1.1 1.8 4.6 9.7 0.3 0.3 0.6 0.3 0.4 0.1 0.5 0 0.7 1.4 0.3 0.5 0.5 0.4 0.4 0.5 2 0.9 0.2 0.3 0.1 1.2 0.1 0.6 0.2 0.4 4.1 3.7 2.5 3.1 1.5 1.1 1.9 1.1 0.7 0.7 0.3 1 0.5 0.8 1.1 0.2 2.2-0.1 1.6 1 1.6 1.5 1.7 1.1 0.7 7.7 0.9 1.1 0.9 1.4-0.3 1.2-1.1 1.4-0.1 1.1 0.4 1.4 0.4 2.1-0.3 1.3-1.3 2 0.3 1.9-0.6 1.2-0.7 1-0.2 1.3-1.1 1.7-1.6 1.9-0.4 2.7-1.3 0.9-6.3-1.4-7.1 3.4-3.7 0.8-0.7 0.3-2.6 1.9-1.8 0.9-1.2 1.3-1.8 0.5-2 1.1-3.2 0.5-6.4 0.2 0 1.1-0.7 2.7-0.9 1.4-0.5 3-0.6 8.3-7.7 0.8-4.3 1.6-2.8 0-1.2 0.5-0.4 1.7-3.7-0.9-2-2.9-1.3-0.2-1.5 0.6-1.4 1.9-1.5 1.1-1.7 1-2.2-1.8 0.1-1.2-0.5-1-1.1-1-4-2.3-3.2-0.4-1.7 0.2-1.9 0.8-1.2 0.3-5.8-0.1-2 2.1-3 1.7-3.2 4.5-1.1 2-0.9 1.1-5.2 4.7-1.4-2.4-0.1-0.5-0.5-2-1.7-0.9-2.1-0.7-3.4-0.2-2.1-0.9-3.2-0.2-2.8-1.7-4.2-1.4-2-3.1-2.2-2.3-1.7-1.4-8.7-4.5-1.3 1.9-5.5 13.6-1.8 0.4-0.4 1.1-0.4 0.7 0 0.9-0.2 0.9 0.1 1.7-0.4 2.2 0 0.6 0.3 0.5 0.8 2.2-1 2-1.1 0.3-2.7 3.2-1.2 2-2.7 1.9-2.8 0.7-3-0.6-1.6-0.6-1.8-0.5-1.8 0.6-2-0.4-1.4 0.3-2.3 1.1-1.4 2.7-2.6 1.6-2.1 1.6-1.9 0.4-3.5 1.2-1.6 2.1-0.8 0.9-0.8 0.6-2.1 0.9-0.9 3-2.5 5.2-3.6 1.6-2.1 0.6-2.7 0.4-3.4 1.2-1.9 2.2-0.5 2.1-0.4 3.1-0.9 2.8-3.7 3.1-4.5 0.2-1.7-0.9-1.2-0.2-2.6 1.4-3.2 0.6-2-2-1-0.5-1-1.7-1.2-1.2-1.3-1.9-1.1-0.7-1.1-0.6-1.1-1-1.1-1.5-0.6-2.8-2.3-4.9-1.3-4.1-0.7-3.5 0.1-2.6 1.2-0.9 1.4-1.5 3.5-4.6 0-2.3-0.7-1.1-0.6-1.3-0.8-0.7-1.3 0.2-2.9 3-1.3 0.8-1.5 2-4.3 3.4-2.6 0.7-3.1 0.2-1.1 0.8-2.2 1-1.2 1.7-1.5 0.7-0.9 0.2-1.1-0.6-0.9 0.8-0.6 1.9-0.9 2.2-0.2 1.7 0.6 1.6 0.5 0.7-0.3 0.5-2.6 1.3-2.9-2.9 0.7-5.2 0-1.3-1.9-3.5-0.3-0.9-0.3-1.3-0.4-2.9 1-1.7 2-2.1 0.2-0.5-0.5-2.8-0.4-1.3 0-0.4 0.2-0.8-0.1-0.4-0.1-0.6 0-0.4 0.2-1.2-0.1-0.4-0.3-0.1-0.5 0-0.6-0.1-0.5-0.5-0.4-0.7-0.4-0.5-0.4-0.3-0.5-0.1-0.6 0.2-0.4 0.3-0.5-0.1-0.5-0.5-0.2-0.1-0.8 0-0.4-0.2-0.3-0.5-0.8-1.7-0.4-0.7-0.6-0.3-1.3-0.7-0.2-0.4 0.1-0.7 0.7-2.8-0.3-0.3-0.6 0.3-1.6 1.4-0.7 0.3-0.5 0.1-0.2-0.1-0.5-0.3-0.6 0.1-0.7 0.4-0.5-0.1-0.6-0.5-0.4-0.3-0.7-0.4-0.7-0.2-2.4-0.1 0.8-3.6 1-1.9 0.2-2.5-0.8-4.7 0.3-1.3 0-2.2 0.3-1.1-0.3-1.3-0.6-0.8-0.2-1.3-1.2-1.1-0.4-1.3 0-2.2-0.9-5.1 0.3-1.7 0.1-0.8-0.5-0.8-1.3-1.5-1-2.8-1.5-10.1 1.1-3.7-1-3.2 1.4-2.1 0.1-6.5-4.5-1.5-2.1-2.2-1.2-2.1-1.7-2.1-2-1.6-2.8-1.6-3.3-2.5-2.5 0.2-1.3 1.2-0.7 1.6-2.5-1.5-0.8 1.7-1.4 2.5-1.2 4.2-1.9 3.6-2.2 3.3-2.2 1.3-2 0.8-1.7-0.8-1.2-0.6-0.9-0.7-0.8-0.3-0.7-0.2-0.9 0.1-1 0.8-1.3 1.4-1.1 3.8-2.7 2.6-0.7 3.9-2.3 3.1-0.3 5.7-2.5-0.7-0.8-1.3-0.2-0.2-0.5-1.3-0.2-0.3-0.6-1-1-2.4-0.4-0.9-3.3-4.6-2.5-5.2-0.3-0.8-0.4-2-0.5-1.8-2.8-3.8-1.2-2.4 0.2-2-1.2-1.3-2.6-4.8-0.4-1.3-0.8-1-3-5.2-0.2-0.6-0.2-1.4-0.4-1.7-0.2-0.4-0.1-1.5-2.4-4.3-0.6-1.7-0.2-2.1-1.1-4.3-2.9-6.9-0.3-1.8-0.1-0.3-0.4-0.6-0.1-0.6-0.1-0.6-1.2-4.4 0.3 0-0.2-0.6 0-1.5-0.1-0.7-1.1-3.1 0-0.6-0.6-0.5-0.4-1.1-0.1-2.1-1.4-3.8-0.4-0.6-1.7-5.2-0.2-0.4-0.9-1-0.3-0.7-0.8-1.1-1-3.2-0.3-0.5-0.5-0.5-0.2-0.4 0.1-1.3-0.2-0.5-0.4-0.8-0.4-1.2-0.2-1.2 0.2-0.9-0.7-1.2-2.9-2.6-0.5-0.7-0.7-2.1-0.3-0.7-2.1-2.9-3.2-2.7-0.5-1.2-0.4-1.8-0.3-1.9 0.2-1.1-0.6-1.3-0.1-0.4-0.2-0.3-0.8-0.1-0.3-0.1-1-2.2-0.7-0.6-1.2-1.3-0.1-0.3 0.5-0.3 0.3-0.8 0.1-0.9-0.1-0.5 0.8-0.4 1.3-0.8 1.2-0.7 1.8-0.6 3.5-3.5 0.5-0.2 0.4 0.3 0.2 0.6 0.2 0.7 0.2 0.5 0.7 0.1 0.9-0.8 0.9-1.2 0.5-0.9 0.1-0.9 0.1-1.2 0.2-1 0.7-0.5 0.5-0.4-0.3-1-1-1.5-0.4-0.8-0.1-1.1 0.2-0.9 0.8-0.4 0.4 0.2 0.5 0.3 0.4 0.2 0.5-0.4 0-0.6-0.2-0.7-0.4-0.5-0.1-0.4 0.2-0.5 0.2-0.2 1 0.1 0.7-0.2 0-0.4-0.8-1-0.1-0.3 0.1-0.3 0.2-0.3 0.4 0.3 0.8-0.1 0.4 0.3 0.4-0.6 0.3-4.1 0.2-0.2 0.8-0.9 0.3-0.2 0.3 0.1 0.5 0.5 0.5 0.1 0.5-0.2 0.7-0.7 0.5-0.1 1.3 0.3 1.5-1.2 0.5-0.3 0.9-0.2 0.5 0 0.5 0.2 0.7 0.8 0.5 1.1 0.6 1 0.9 0.4 1.2 0.3 0.4 1 0 1.1-0.1 1.2 0.2 2.5 1 1.2 1.5 0.3 2.9-0.7 1.2-0.1 0.5 0.3 0.2 0.6 0.1 0.6 0.2 0.5 0.4 0.7 0.1 0.5 0.1 0.6 0.2 0.6 0.3 0.6 0.7 1 0.3 0.6 0.1 1.1-0.2 1.4-0.3 1.3-0.8 0.5-0.8 0.2-0.8 0.5-0.6 0.7-0.2 0.8 0.4 1 1.3 1.6 0.2 1.2 0.4 0.9 1.7 0.6 0.5 1.2-0.3 2.1-0.6 2.2 0.1 1.6 1.8 0.2 2-0.5 1.9-0.2 1-0.2 0.9-0.4 0.7-0.2 0.7 0.5 0.3 1.1 0 1.3 0.2 1.1 1 0.4 1.5 0.5 0.6-0.1 0.4-0.2 0.9-0.6 0.5-0.3 1.5-0.1 7.8 1.7 1.7 0.8 1.5 1 2.8 2.3 1.8 1 3.9 1.3 0.9 0 1.6-0.5 4.1-0.6 1.1 0 1.9 0.8 1.1 0.2 0.9-0.4 0.4-0.2 0.5-0.2 0.9-0.2 0.7-0.3 0.2 0 0.2 0.1 0.6 0.5 0.2 0.1 1-0.3 1.7-0.9 8.9-1.4 9.7 1.5 0.8 0.7 1.1 1.9 0.5 0.5 0.3 0.1 1.7 0.2 0.5 0.2 0.2 0.2 0.8 1.1 1.8-0.1 1.9-0.7 2.6-1.4 0.4-0.4 0.5-0.8 0.3-0.2 1.5-0.1 0.6-0.4 0-0.6-1.7-3-0.3-1.2 0.1-1.1 0.8-1.5 0.6-0.7 0.6-0.5 0.6-0.1 1.1 0.9 0.5 0.1 0.7-0.3 3.8-1 0.9-0.4 0.8-0.7 0.5-0.7 1.3-4.3 0.3-0.4 0.8-0.4 0.4-1 0.2-0.4 0.4-0.5 0.6-0.8 0.5-0.3 0.4-0.1 4.6-0.4 0.8-0.4 1-0.7 1-0.4 2.2-0.2 1.4-0.4 2.1-1.9 1.2-0.7 0.5 0 1.5 0.2 0.5-0.1 1.4-0.3 0.1-1.6 0-11 0-5.9 0-20.6 0-2.9 0-17.6 0-5.9 0-14.6 0-2.9 0-11.6 0-5.9 0-14.5 0-2.9 0-11.6 0-5.8 0-20.2 0-2.9 0-17.2 0-5.8 0-8.6 0.5 0.6 0.8 0.6 0.9 1.4 2.4 1.9 1.2 1.4 0.5 0.4 0.5 0.1 0.9 0.1 0.5 0.1 3.5 2.2 6 5 0.5 0.6 1.5 3.2 1.2 2 0.5 1.1 0 0.7-0.4 0.9 0.4 0.7 0.9 0.5 0.8 0.4 0.1 1.3 0.1 0.4 0.3 0.3 0.9 0.4 0.3 0.3 0.1 0.5-0.4 0.6 0 0.4 0.2 0.3 0.5 0.7 0.2 0.4 0.3 1.6 0.3 0.6 0.7 0.5 1.4 0.6 0.2 0.5 0.2 1 0.7-0.1 0 0.4-0.3 0.6 0 0.6 0.5 0.2 0.4-0.2 0.4-0.3 0.5 0 0.6 0.6-1.4 0.8-0.3 0.9-0.1 1.4 2.1 1.9 0.4 1.3-0.3 0.5-1 0.6-0.3 0.4 0.1 0.6 0.5 0.2 0.6 0 0.3 0.3 0.1 0.6-0.4 1.1 0 0.6 0.3 0.5 1.2 0.6 0.5 0.4 0.5 0.9 0.9 3.4-0.5 1 0 0.5 0.6-0.2 0.5-0.3 0.3 0.1 0.5 0.6 0 0.1 1.2 3.1 0.4 4.5-0.1 3.7 0.2 1 1.7 3.1-0.1 0.8-2 2.8-0.9 2-1 1.9-2.7 3.4-1.4 2.6-0.6 0.8-1.4 1-0.2 0.7-0.6 2.7-0.2 1.5 0.2 1.4 0.3 0.6 0.7 1.1 0.2 0.7 0 1.2-1 3.5 0 1.6 0.2 1.9 0.5 1.9 0.6 1.4 0.6 0.7 0.7 0.5 0.4 0.6 0.5 1.6 0.3 0.5 0.1-0.1 1-0.7 3-1.4 2.1-1.6 1.2-0.6 2.6-0.3 2 0.8 1.9 1.2 6.1 1.4 1.4-0.1 4.1-1.2 0.6 0 1.3 0.2 0.7 0 3.9-1.1 2.1-0.1 1.1 0.2 2.2 1.1 4 0.1 2.8 0.7 0.9 0 1.1-0.4 2.6-1.8 0.9-0.8 0.5-0.9 0.2-1-0.1-1-0.4-2.3 0.1-0.8 0.5-0.6 1.3-0.4 1.4-0.3 4.5 0 3-0.7 2.7-1.7 2.3-2.4 1.8-2.7 1.5-4.1 0.9-1.9 1.8-1.9 0.5-1.1 0.4-0.3 2.2-0.4 0.7-0.2 1.1-0.6 2.4-2.3 1.6-2.4 1-0.8 1.5-0.3 2.1 0.4 0.8-0.3 0.9-1.3 0.7-1.8 0.6-0.7 0.9-0.7 0.4-0.4z" id="ZAF1188" name="Northern Cape"></path><path d="M993.700012,1421.300049 l-1.3,1.2 l-1.3,0.5 l-0.4,-0.1 l-0.8,-0.3 l-5.2,-0.3 l-0.7,0.2 l-1.7,-0.3 l-0.7,-0.4 l-0.7,-0.7 l-0.2,-0.5 l-0.3,-0.9 l-0.1,-0.9 l0.9,-0.8 l1,-1.6 l0.4,-0.4 l0.3,-0.3 l1,-1.5 l0.5,-0.5 l1.5,-0.5 l1.5,0.3 l4.3,1.2 l2.2,2.6 l1.3,0.5 l-0.5,1.8 l-1,1.7 z m5.2,-20.1 l-1.7,0.7 l-2.2,-0.3 l-1.4,-1 l0.2,-1.4 l1.6,-1 l2.1,-0.1 l1.5,1.2 l-0.1,1.9 z m-641.7,-896 l0.5,1.5 l-0.4,0.4 l-0.3,1.1 l-0.6,0.7 l-0.2,1.7 l1.3,0.7 l1,1.4 l0.3,1.4 l-1.1,1.7 l-0.8,0.7 l-0.8,0.4 l-0.4,0.7 l0,0.7 l-0.2,1 l-0.5,0.7 l0,1.3 l0.1,0.8 l-0.5,1.4 l-1.8,1.1 l-1.1,1.7 l-6.6,2.9 l-1.9,-0.3 l-4.1,-1.5 l-1.6,0.7 l-2.2,1.7 l-1.8,3.7 l-1.6,1 l-7.2,0.9 l-2.2,1.1 l-3.4,-0.3 l-1.7,2 l-2.1,1.8 l-0.3,2.1 l0,2.3 l1.2,2.1 l0.6,2.4 l0.3,1.9 l-0.2,2.6 l1.6,1.8 l0.8,1.9 l1.9,1.8 l-2,2.2 l-3,-0.2 l-3.1,0.2 l-2.4,1.1 l-0.9,0.3 l-0.5,0 l-0.6,-0.6 l-0.3,-0.6 l-0.3,-0.8 l-0.8,-0.8 l-0.1,0.2 l0.2,1.4 l0,1.9 l-0.6,1.2 l-1.8,0.6 l-1,0.6 l-2.2,3 l-0.2,1.7 l-1.5,2.2 l0.7,2.3 l-0.7,2.2 l-7.9,12.9 l-0.4,2 l0.6,2.1 l7.2,0.2 l5.8,-0.8 l10.7,0.5 l8.2,1.9 l3.4,1.5 l2.4,2 l0.9,3.8 l2.4,3.1 l-0.7,1.3 l-8.4,3.8 l-1,1.2 l-0.6,0.8 l-1.7,1.9 l4.2,0.4 l1.2,-0.5 l1.1,0.2 l1.8,0.7 l0.8,1.5 l5.8,2.8 l-2.2,3.5 l0,0.8 l0,1.7 l-0.2,0 l-2.2,0.1 l-7.5,1.7 l-1,0.5 l-0.8,0.6 l-0.8,0.7 l-0.4,1.3 l0.3,1.1 l0.8,0.7 l1.1,0.2 l0,0.4 l-16.1,-1.5 l-0.2,-0.4 l-0.3,-1.6 l-0.1,-0.4 l-1.4,-0.1 l-0.6,-0.2 l-0.4,-0.4 l0.2,0.8 l0.3,0.3 l0.5,0.2 l0.4,0.4 l0.5,0.8 l0,0.4 l-0.3,0.4 l-0.3,-0.3 l-0.6,-0.2 l-1.3,-0.2 l-0.6,0.2 l-0.9,0.3 l-0.8,0 l-3.7,-1.2 l-1.5,-0.9 l-0.5,-0.2 l-0.6,-0.4 l-0.3,-0.8 l-0.1,-0.5 l0,-0.4 l0.3,-0.2 l0.7,0 l-0.7,-0.7 l-1.1,-0.3 l-2,-0.2 l0.4,0.8 l0.7,0.9 l0.7,0.6 l0.7,0.4 l-0.8,0.3 l-1.1,-0.3 l-5.3,-1.8 l-0.9,-0.1 l-1.2,0 l-0.9,0.2 l-0.8,0.3 l-2.4,2 l-1.9,1 l-2,0.5 l-4.4,-0.5 l-1.9,0.1 l-4,0.9 l-0.9,0.5 l-0.8,0.6 l-1.4,1.5 l-0.5,1.2 l0.2,0.9 l0.6,0.6 l0.9,0.5 l-0.7,0.6 l-0.9,0.3 l-6,0.9 l-1.8,0.8 l-1.1,1.3 l-0.2,0.9 l0.3,1.8 l-0.5,0.6 l-0.9,1.7 l-0.3,0.2 l-2.7,1.6 l-1.9,0.7 l-2,0.4 l-2,0.1 l-4.9,-1 l-1.7,-1 l-1.1,-0.3 l-1,0.2 l-1.9,0.8 l-1.6,0.3 l-0.4,0.3 l-0.4,0.7 l-0.3,0.3 l-3.1,1.4 l-2,0.3 l-2,-0.2 l-7.6,-2.9 l-1.9,-0.4 l-4.5,-0.4 l-2.2,0.3 l-1.9,0.9 l0.4,0 l-2.7,0.7 l-0.8,0.5 l1.2,0.2 l1.1,0.8 l0.6,1.2 l-0.4,1.2 l-0.9,0.3 l-8.2,-1.5 l-6.5,0.9 l-1.9,0.9 l-1.6,1.3 l-2.6,3.5 l-0.8,0.8 l-0.9,0.4 l-0.7,0.1 l-0.3,0.4 l-0.2,0.5 l-0.5,0.5 l-0.4,0.3 l-1.5,0.5 l-0.8,0.6 l-0.8,0.8 l-0.7,0.9 l-0.3,1 l-0.5,-0.2 l-1.1,0.3 l-1.9,0.8 l-3.4,2.6 l-1.3,1.7 l0.6,1.6 l0,0.3 l-0.8,0.2 l-1.2,0.8 l-0.7,0.2 l-0.8,-0.1 l-0.7,-0.3 l-0.7,-0.4 l-2.9,-2.2 l-0.7,-0.7 l-0.8,-0.4 l-7.4,0.2 l-0.7,0.2 l-0.8,0.8 l-0.6,0.2 l-0.5,-0.1 l-0.3,-0.4 l-0.4,-0.7 l-2.4,-1.4 l-3.5,-3.6 l-2.4,-1.4 l-0.7,-0.6 l-0.7,-0.9 l-0.9,-0.7 l-1.1,-0.1 l-1.1,0.3 l-0.9,0.7 l-0.4,-0.3 l-0.4,0 l-0.4,0.1 l-0.4,0.2 l0.1,-0.6 l2.8,-3.8 l0.2,-0.6 l-0.2,-1.6 l-0.7,-1.8 l-1,-1.6 l-0.9,-1.2 l-0.6,-0.5 l-0.6,-0.2 l-3.3,0.7 l-2.8,-0.2 l-0.6,-0.2 l-0.7,-0.6 l-0.8,-1.6 l-0.7,-0.5 l0,-0.4 l1.1,-0.2 l0.6,-0.8 l0.3,-1.2 l0.5,-1.3 l-0.8,0.5 l-1.1,1.9 l-0.5,0.4 l-3.5,-0.3 l-0.6,0.1 l-1.4,0.5 l-4.5,0.7 l-1,0.7 l-0.2,0.4 l-0.4,0.2 l-0.5,-0.1 l-0.5,-0.3 l-0.4,-0.7 l0.1,-0.6 l0.3,-0.6 l-0.3,-1.9 l0,-0.4 l0.2,-0.7 l0.4,-0.4 l0.4,-0.5 l0.4,-1.1 l-0.1,-0.8 l-0.7,-1.9 l0,-1.2 l0.4,-0.5 l0.6,-0.5 l0.6,-0.9 l-1.9,-3 l-0.8,-0.5 l-2.7,-0.6 l-4.4,-0.5 l-4.3,0.3 l-0.6,0.3 l-0.4,0.2 l-1.7,0.7 l-0.8,0.6 l-0.4,0.4 l-0.4,0.6 l-0.7,0.7 l-0.2,0.4 l-0.1,0.8 l0.1,0.6 l0.3,0.3 l0.3,0.2 l0.3,0.4 l0.6,2.3 l0.1,1.1 l-0.4,3.7 l0.2,1.1 l0.8,0.7 l-0.9,0.2 l-1.1,-0.6 l-1.2,-1 l-0.7,-0.9 l-1.1,-2.3 l-0.1,-0.6 l0,-0.4 l0.2,-0.8 l0.1,-0.4 l-0.1,-0.2 l-0.5,-0.4 l-0.5,-1.4 l-0.4,-0.6 l-1.3,-0.5 l-0.4,-0.5 l-0.1,-0.8 l0.1,-0.8 l0.3,-0.4 l0.5,-0.2 l0.3,-0.2 l0.2,-0.9 l0,-0.7 l0.1,-0.6 l0.2,-0.6 l0.3,-0.6 l-0.7,0.1 l-0.6,0.3 l-0.6,-1 l-0.1,-0.8 l0.4,-0.8 l0.7,-0.8 l0.6,-1.1 l0.5,-2 l0.5,-1.2 l1.5,-1.2 l1.8,0.1 l1.5,-0.3 l0.6,-2 l-0.2,-1.1 l-0.9,-1.5 l-0.2,-0.7 l-0.1,-1.1 l-1.3,-4.9 l-1.2,-2.5 l-0.2,-1.1 l-0.5,-0.2 l-2.1,-2.6 l-0.8,-0.5 l-0.3,-0.3 l-0.2,-0.5 l0,-2.3 l-0.1,-1.2 l-0.3,-0.9 l-1.2,-1.9 l-1.3,-1.5 l-5,-3.5 l0.4,-0.9 l-0.2,-1.1 l-1.2,-2.2 l-0.6,-1.5 l-1.1,-1.5 l-0.2,-0.6 l-0.4,-0.7 l-2.1,-2.1 l-0.8,-0.4 l-1,-0.4 l-0.6,-0.9 l-0.6,-1 l-0.5,-0.8 l1.2,-0.6 l0.7,-0.2 l0.5,0.2 l0.3,0.7 l0.3,0.6 l0.3,0.5 l0.5,0.4 l-0.2,0.6 l0.4,0.4 l1.2,1 l0.9,1.2 l0.6,0.7 l0.6,0.2 l0.7,-0.4 l-0.2,-0.6 l-1,-1.1 l-0.2,-0.4 l-0.1,-1 l-0.2,-0.3 l-0.2,-0.2 l-0.5,0 l-0.2,-0.1 l-1,-1.1 l-0.4,-0.5 l-0.2,-0.6 l0.2,-2.4 l-0.2,-0.8 l-0.6,-1.1 l-1.1,-0.5 l-1.4,-0.1 l-1.4,0.2 l0.5,0.9 l0.2,0.3 l-0.6,0.1 l-0.4,0.3 l-1,0.7 l-0.5,-0.6 l-0.2,-0.6 l-0.2,-0.9 l-0.2,-0.5 l-0.3,-0.5 l-0.1,-0.6 l0.3,-0.8 l-0.2,-0.5 l-0.6,-1.6 l-0.3,-1.2 l0,-0.4 l0.1,-0.5 l0.5,-0.6 l0.3,-0.7 l-0.3,-0.6 l-1.1,-1.5 l-0.4,-0.3 l0.1,-0.5 l0.1,-0.1 l0.7,0.1 l0.3,-0.4 l0.7,-0.6 l0.6,-0.2 l0.1,-0.5 l0.2,-0.4 l0,-0.4 l0,-1.7 l0.1,-0.7 l0.7,-0.5 l1.1,-0.5 l1.1,-0.2 l0.7,0 l-0.4,0.4 l0.6,0.9 l2.3,2.2 l2,0.8 l1.8,-0.5 l1.6,-1.2 l5.6,-5.7 l1,-2.2 l0.7,-1.9 l1.1,-4.5 l0.2,-2.2 l-0.2,-3.8 l-0.3,-0.9 l-0.6,-1.2 l0.3,-0.9 l1.1,-1.5 l0.2,-2.2 l-1.8,-7.2 l-0.5,-5.9 l-0.8,-2.3 l-0.3,-1.2 l0.1,-2.4 l-0.1,-1.2 l-0.5,-1.1 l-0.6,-0.7 l-0.5,-1 l-0.3,-0.7 l0,-0.5 l0,-0.4 l0,-0.6 l-1,-3.8 l-0.8,-1.8 l-1.1,-1.9 l-2.1,-2.8 l-0.4,-0.7 l-0.1,-0.5 l-2.1,-3.1 l-2.2,-2.3 l-0.4,-0.9 l-0.3,-1 l-0.7,-0.8 l-1.5,-1.4 l-1.8,-2.8 l-1.3,-1 l-0.5,-1.4 l-0.6,-2.5 l-0.5,-0.7 l-1.9,-1.6 l-0.4,-0.5 l-0.3,-0.7 l-1.7,-2.9 l2.5,0.7 l0.3,-5.7 l2.3,-3.1 l0.7,-3.9 l2.7,-2.6 l1.1,-3.8 l1.3,-1.4 l1,-0.8 l0.9,-0.1 l0.7,0.2 l0.8,0.3 l0.9,0.7 l1.2,0.6 l1.7,0.8 l2,-0.8 l2.2,-1.3 l2.2,-3.3 l1.9,-3.6 l1.2,-4.2 l1.4,-2.5 l0.8,-1.7 l2.5,1.5 l0.7,-1.6 l1.3,-1.2 l2.5,-0.2 l3.3,2.5 l2.8,1.6 l2,1.6 l1.7,2.1 l1.2,2.1 l2.1,2.2 l4.5,1.5 l-0.1,6.5 l-1.4,2.1 l1,3.2 l-1.1,3.7 l1.5,10.1 l1,2.8 l1.3,1.5 l0.5,0.8 l-0.1,0.8 l-0.3,1.7 l0.9,5.1 l0,2.2 l0.4,1.3 l1.2,1.1 l0.2,1.3 l0.6,0.8 l0.3,1.3 l-0.3,1.1 l0,2.2 l-0.3,1.3 l0.8,4.7 l-0.2,2.5 l-1,1.9 l-0.8,3.6 l2.4,0.1 l0.7,0.2 l0.7,0.4 l0.4,0.3 l0.6,0.5 l0.5,0.1 l0.7,-0.4 l0.6,-0.1 l0.5,0.3 l0.2,0.1 l0.5,-0.1 l0.7,-0.3 l1.6,-1.4 l0.6,-0.3 l0.3,0.3 l-0.7,2.8 l-0.1,0.7 l0.2,0.4 l1.3,0.7 l0.6,0.3 l0.4,0.7 l0.8,1.7 l0.3,0.5 l0.4,0.2 l0.8,0 l0.2,0.1 l0.5,0.5 l0.5,0.1 l0.4,-0.3 l0.6,-0.2 l0.5,0.1 l0.4,0.3 l0.4,0.5 l0.4,0.7 l0.5,0.5 l0.6,0.1 l0.5,0 l0.3,0.1 l0.1,0.4 l-0.2,1.2 l0,0.4 l0.1,0.6 l0.1,0.4 l-0.2,0.8 l0,0.4 l0.4,1.3 l0.5,2.8 l-0.2,0.5 l-2,2.1 l-1,1.7 l0.4,2.9 l0.3,1.3 l0.3,0.9 l1.9,3.5 l0,1.3 l-0.7,5.2 l2.9,2.9 l2.6,-1.3 l0.3,-0.5 l-0.5,-0.7 l-0.6,-1.6 l0.2,-1.7 l0.9,-2.2 l0.6,-1.9 l0.9,-0.8 l1.1,0.6 l0.9,-0.2 l1.5,-0.7 l1.2,-1.7 l2.2,-1 l1.1,-0.8 l3.1,-0.2 l2.6,-0.7 l4.3,-3.4 l1.5,-2 l1.3,-0.8 l2.9,-3 l1.3,-0.2 l0.8,0.7 l0.6,1.3 l0.7,1.1 l0,2.3 l-3.5,4.6 l-1.4,1.5 l-1.2,0.9 l-0.1,2.6 l0.7,3.5 l1.3,4.1 l2.3,4.9 l0.6,2.8 l1.1,1.5 l1.1,1 l1.1,0.6 l1.1,0.7 l1.3,1.9 l1.2,1.2 l1,1.7 l1,0.5 l2,2 l3.2,-0.6 l2.6,-1.4 l1.2,0.2 l1.7,0.9 l4.5,-0.2 l3.7,-3.1 l0.9,-2.8 l0.4,-3.1 l0.5,-2.1 l1.9,-2.2 l3.4,-1.2 l2.7,-0.4 l2.1,-0.6 l3.6,-1.6 l2.5,-5.2 l0.9,-3 l2.1,-0.9 l0.8,-0.6 l0.8,-0.9 l1.6,-2.1 l3.5,-1.2 l1.9,-0.4 l2.1,-1.6 l2.6,-1.6 l1.4,-2.7 l2.3,-1.1 l1.4,-0.3 l2,0.4 l1.8,-0.6 l1.8,0.5 l1.6,0.6 l3,0.6 l2.8,-0.7 l2.7,-1.9 l1.2,-2 l2.7,-3.2 l1.1,-0.3 l1,-2 l-0.8,-2.2 l-0.3,-0.5 l0,-0.6 l0.4,-2.2 l-0.1,-1.7 l0.2,-0.9 l0,-0.9 l0.4,-0.7 l0.4,-1.1 l1.8,-0.4 l5.5,-13.6 l1.3,-1.9 l8.7,4.5 l1.7,1.4 l2.2,2.3 l2,3.1 l4.2,1.4 l2.8,1.7 l3.2,0.2 l2.1,0.9 l3.4,0.2 l2.1,0.7 l1.7,0.9 l0.5,2 l0.1,0.5 l1.4,2.4 l5.2,-4.7 l0.9,-1.1 l1.1,-2 l3.2,-4.5 l3,-1.7 l2,-2.1 l5.8,0.1 l1.2,-0.3 l1.9,-0.8 l1.7,-0.2 l3.2,0.4 l4,2.3 l1.1,1 l0.5,1 l-0.1,1.2 l2.2,1.8 l1.7,-1 l1.5,-1.1 l1.4,-1.9 l1.5,-0.6 l1.3,0.2 l2,2.9 l3.7,0.9 z" id="ZAF1189" visibility="visible" name="Western Cape"></path><path d="M462 127.8l0 4.2 0.3 1.3 1.3 2.3 0.3 1.2 0.4 0.2 8 0.7 1.1 0.3 1.5 0.9 1.2 0.6 0.9 0.2 1.1 0.2 0.7-0.2 2.9-1.6 5.3-2.3 2-1.4 0.5-1.3 0.5-0.5 0.7-0.2 0.6 0.4 0.3 0.9 0.6 5.2 1.1 1.9 1.6 1 1.6 1.6 0.6 1.6 0.4 0.6 0.6 0.5 4.9 0.8 3.6 2.7 3.5 0.1 2.1-0.3 0.5 0.4 0.3 1.4 0.3 0.4 0.2 0.2 0.5 0.1 0.4-0.1 0.5-0.5 1.7-2.7 0.2-1 0.1-1.2 0.1-0.4 0.5-0.3 1-0.4 1 0 1.1-0.2 1.9 1.8 0.8-0.5 0.7-0.4 0.7-0.1 7 0.8 0.5 0 0.2-0.1 0.4-0.3 0.6-0.4 1-0.1 2.3 0.6 2.2 0.2 1.7 0.4 3.6 1.7 1.4 0.8 0.7 1-0.2 1.4-0.3 1-0.6 0.5-1 0.1-0.6-0.3-0.9-0.5-0.9-0.5-0.7-0.1-1 0.4-0.4 0.7 0.2 1 1 0.7 0.6 0.7 0.4 1.2 0.6 0.5 1 0.2 1.5-0.3 1 0.5 0.7 0.4 2.9 4.7-0.4 4.3-1.9 1.3-1.2 0.4-2.5 0.1-0.6 0.3-0.5 0.2-0.8 0.1-0.3-0.4 0-0.7 0.5-0.6 0-0.5-0.4-0.2-1 0.1-1.1 0.5-0.4 0.8 0 0.9 0.6 2.9 0.2 0.5 0 0.9-0.3 1.3-1.2 1.8-1.1 1.1-1.2 0.8-3.5 0.8 1.5 3.5 0.2 0.6 0.1 0.7 0 0.4-0.4 0.3-0.3 0.1-0.2 0.3 0.1 0.6 0.1 1-0.2 1-0.9 1.2-1.5 0.6-0.8 0.6-3.2 0.7-3.6 0.6-0.8-0.7-1.8 0.1-1-0.9-1.2-0.7-0.8-1-3.8 1.4-3.1 2.2-1.2 5.9-1.1 5.1-1.1 1.5-1.6 0.6-0.8 1.1-2.8 0.2 1.6 7.2-4.1 2.9-2.4 2.2 1.7 3.3 0.3 0.7 0.1 0.8 0 0.4 0.3 0 0.3 0.3 1.6-0.3 0.6-0.3 0.6-0.3 2.2-1 0.8-1 5.7-1.7 0.8 0.7 0.4 0.6 0.6 0.3 0.4 0.4 4.2 0-0.3 1.7-0.5 0.2-0.3 0.3-0.3 0.8-0.3 3-0.7 0.7-0.6 1.3 0.1 1.3-0.4 6.8-0.4 0.1-0.6 0.6-0.2 1 0 1.1-0.2 0.5-1.4 2.2-0.5 0.3-2.9 0.8-0.6 0-0.6-0.2-1.5-1.4-0.6-0.3-1.3 0.2-1.1 1-2 2.3-1.8 1.4-1 0.4-0.4-0.4 0.3-1 0-0.5-0.5-0.1-0.4 0-0.8 0.3-4.6 0.1-2-0.3-1.6-0.8-0.9-1.7-0.6-0.6-0.7 0.5-0.2 0.8 0.2 3.4-1.1-0.7-1.5-1.4-0.2-0.1-1 0.6-0.6 0.6-0.3 0.4-0.4-0.2-0.7-0.6-0.2 0.2-0.5 0.4-1.1 0.3-0.8 0.6-1.3 1.2-0.2 0.3-0.3 0.7 0 0.4-0.2 0.6-0.3 0-0.4-0.4-0.9-0.4-0.7-0.2-0.7 0.3-0.6 0.5-1.3 1.4-0.3 0.6-0.1 0.8 0.2 0.8-0.1 0.6-0.6 0.6-1.2-0.4-0.5 0-1.2 1.5-0.8 0.6-2.7 0.8-0.9 1.2 1 1.5 1.6 1.4 0.9 1.1-0.1 3-0.3 0-0.4 0.2-0.6 1-0.3 1 0.3 0.8 1.2 0.3 0.5 0 0.4 0.2 0.4 0.3 0.1 0.4-0.2 0.1-4.6 0-0.9-0.3-1.3 0-0.6 0.1-0.5 0.4-0.4 1-0.2 0.3-0.8-0.6-0.3-0.1-1.3 0.2-1.1 0.7-0.8 1.1-0.3 1.3 0.1 0.9-0.1 0.3-0.4 0.5-0.2 0.1-0.7 0.1-0.3 0.1-4.2 4-1 1.4-1.1 2.1-0.1 0.5 0.1 0.6 0.5 0.9 0.1 0.5-0.2 0.5-0.4 0.3-0.6 0.2-0.5-0.1-0.3-0.1-0.3-0.2-0.2-0.5-0.2-1.1-0.2-0.9-0.3-1.3-0.3-0.2-0.4-0.2-3.2-0.6-0.6-0.1-1 0.1-0.3 0-0.4-0.2-0.4-0.3-0.7-0.7-0.6-0.7-0.4-0.3-1 0.1-4.9 2.8-1.2 1-0.6 0.8-0.4 0.2-0.3 0.1-0.8-0.3-0.9-0.5-0.5-0.2-0.5 0-0.4 0.2-0.5 0.7-0.5 0.3-0.8 0.5-0.5 0.1-0.3-0.1-0.4-0.3-0.3 0-0.3 0.1-0.5 0.6-2.9 0.8-0.7 0.5-3.4 3-0.3 0.2-0.6 0.2-0.6 0.1-0.5 0-0.5 0-0.5 0.4-0.7 1.2-0.6 0.3 0 0.4 0.2 0.8-0.3 0.7-0.7 1-0.7 0.8-0.9 0.6-0.5 0.8-0.2 0.1-1.1 0-0.5 0.1-0.5 0.3-0.2 0.3-1.3 2.2 0.1 0.4 0.1 0.3 0 0.4-0.9 1.7-0.7 0.9-0.6 0.6-0.4 0-0.5-0.2-0.5 0-0.4 0.7-0.1 0-0.4 0.1-0.5 0-0.4 0.1-1 1-0.7 0.4-0.4 0-0.3-0.1-5-9.9 0.8-0.1 8.5-10.4-0.6-0.7-0.4-0.2-0.6-0.2-0.9-0.1-7.3 0.1-1.2-0.4-0.4-0.6-0.1-0.9-0.5-1.1-0.5-1.6-0.6-0.7-0.2 0-1.3-0.3-0.7 0-0.5 0.3-0.3 0.5-0.1 0.6 0 0.9 0.3 1.2-0.1 0.3-0.4 1-0.1 0.4 0 0.6 0.3 1 0.1 0.2 0.7 0.4 0.3 0.5 0.1 1.3-0.1 0.6-0.3 1.2 0 0.6 0 0.8-0.1 0.5-0.3 0.7-0.3 0.4-0.3 0.3-0.8 0.3-0.3 0.3-0.5 1.1-0.8 1-0.1 1.3 0 0.4 0.1 1.3-0.1 1-0.3 1-1.9 1.7-0.4 0.4-0.3 1.1-0.5 0.8-1.2 1.2-3.7-3.2-0.1-0.8 0.3-0.8 0.3-0.5-0.1-1.1-1.3-1.7-0.7-0.5-1.1-0.2-0.6-0.6-0.3-1.1 0.5-1.2 0.5-1 1.5-1.5 0.4-0.8 0.2-1.2-0.3-3.6-0.4-1.1-0.3-0.9-14.4 3.3-1.2-2.9 0-3.2-1.3-2.4-0.3-3-0.2-1 0-0.8 0.2-0.9 0.1-5.4-1.2-1.9-1-1.2-0.2 0.6-0.2 0.4-0.4 0.8 0 1.2 0.1 0.8 0.3 1.2-0.3 0.5-1.6-0.1-1.4-0.3-0.9 0.2-0.6 0.6-0.2 0.8 0.1 0.6 0.8 0.5 0.1 0.6-0.2 0.5-0.7 0.4-0.9 0.1-1.6-0.2-1 0-0.7 0.3-0.1 0.2-0.5 0.8-1.1 1.1-1.1 0.1-2-0.7-1.9-0.9-1.9-1.2-1.4-0.4-4.1-0.5-0.1-0.7-0.2-0.5-0.3-0.6-1-0.8-1.1-0.1-0.4 0-0.5-0.2-2.6-2.2-1-0.5-1.2-0.3-2.3-0.2-0.9-0.2-1-0.6-4.1-4.7-1.9-1.7-2.3-0.3-0.7-0.6-0.6-0.7-0.5-1.6-0.2-1.3 0-1.1 0.1-1.6 0.3-1.4 0.6-0.8 2.1-0.9 0.6-0.3 0.2-0.4-0.3-0.4-1.3-2-1.6-5.3 0-0.7 0.3-1 0.7-1.1 0.2-1.1-0.2-1.8 0-1 0.4-1.9-0.2-0.8-3.1-2.2-0.7 0.1-0.3 0.2-0.6-0.9-0.5-0.5-0.9-0.3-1.5-0.2-0.6-0.2-0.5-0.6-0.8-0.4-0.8-0.1-0.6-0.1-1.3 0-0.7 0.1-0.6 0-1.1-0.1-0.5-0.3-0.4-0.8-0.4-2.6 0-0.1-0.2-1.3 0-1.3 0.3-1.1 0.6-0.7-0.4-15.5-3.4-0.1 0.1-0.2 2-2.9 0-0.6-0.2-0.6 0-0.4 0.5-0.4 1.3-0.5 0.5-0.4 0.4-0.6 0.2-0.9 0.1-1.2 0-1.2-0.2-0.6-0.6-0.9 0.5-0.9 0.9-0.8 0.7-0.8 0.5-0.9 0-0.3-0.3-0.7-0.4-0.5-0.4-0.3 0-0.7 0.2-1.1 0.7-1.1 2-2.4 0.3-0.5 0.1-0.6 0.1-0.7-0.1-0.6-0.1-0.4 0-0.4 0.7-0.5 0.4-0.5-0.2-0.6-0.5-0.5-0.3-0.5 0.1-0.5 0.1-0.4 0.4-0.8 0.9-3.1 0.3-0.6 1.2-0.4 0.5-0.6 0.7-2 0.4-0.7 0.4-0.4 0.5-0.3 0.6-0.3 0.6-0.4 0.2-0.4 0.1-0.4 0.2-0.4 1.8-1.9 1.1-0.6 1.1 0.2 0.3 0.4 0.2 0.5 0.3 0.3 0.6-0.3 0.4-0.4 3.5-1.7 2.2-0.6 2.3-0.2 2.6 0.5 2.1 0.8 0.7 0.2 0.8-0.1 1.5-0.6 0.6-0.1 0.7 0.2 0.4 0.4 0.7 1.1 0.6 0.7 0.5 0.3 1.4 0.7 1.1 0.7 4.9 3.9 0.4 0.5 0.6 0.6 2.6 0.8 0.4 0.4 0.5 1 0.3 0.5 0.4 0.3 1 0.3 0.4 0.2 1.7 2.4 2.1 1.5 0.7 1 0.9 0.6 2.4-0.6 0.6 0.1 0.4 0.3 0.5 0.4 0.1 0.4-0.3 0.4 0.1 0.3 1-0.2 4.8-1.3 2.4 0 2.1 1.2 3.2 3.8 1.9 1.5 2.4 0.4 1.2-0.3 1-0.4 0.9-0.2 5.6 2.1 2.4 1.7 1.7 0.4 3.3-0.4 1.6 0.3 1.3 0.4 1.4-0.2 2.7-0.7 1-0.4 2.7-2.1 2.1-1.1 1.8-0.2 1.8 0.3 2.1 0.6 2 0.4 9.6-1 3.4-1.7 6-4.7 1-3.1 2.5-6.2 1.5-6.6 4-9.2 1.1-3.4 1.4-2.5 0-1.9 1.4-3.1 0.5-1.7 0-2-0.5-3.8 0.1-1.2 0.3-0.3 0.3 0 1.6-0.6 2.3 0.1 0.7-0.3 1.5-1.2 12.3-3.8 2.2-0.4 0.9 0.1 0.9 0.2 0.8 0.1 1.1 0.2z" id="ZAF1201" name="North West"></path><path d="M549.4,245.4 l1.6,0.8 l0.8,0.2 l1.1,-0.1 l1,0.1 l0.5,0.2 l0.3,0.2 l0.2,0.9 l0.2,0.5 l0.7,0.8 l0.3,0.1 l0.3,-0.1 l0.2,-0.1 l0.5,-0.6 l0.6,-0.3 l0.6,0 l0.6,0.3 l0.4,0.7 l0.6,0.5 l0.2,0.5 l1.3,0.6 l0.1,0.4 l-0.3,0.7 l-0.4,1.2 l0.6,-0.2 l2.1,-1.9 l0.6,-0.3 l0.7,-0.1 l1,0 l0.7,-0.2 l-0.1,-0.5 l-0.8,-0.7 l-0.4,-0.3 l-0.4,0.1 l0.1,-0.5 l1.4,-0.7 l2.1,0.8 l3.5,2.4 l0.6,0.2 l0.7,0.2 l0.5,0.4 l0.5,0.3 l0.5,-0.1 l0.5,-0.2 l0.4,-0.1 l0.4,0.1 l0.6,0.6 l0.4,0 l0.4,-0.3 l0.6,-0.8 l0.3,-0.3 l0.5,-0.3 l0.8,-0.2 l0.5,-0.4 l0.4,-0.3 l0.6,0 l0.9,0.1 l2,1.4 l0.5,0.1 l0.4,0.1 l0.2,0.2 l-0.1,0.7 l0.2,0.5 l0,0.6 l0.1,0.5 l0.4,0.4 l0.3,0.4 l0.3,0.5 l0.4,1 l0.4,0.9 l0.5,0.8 l0.4,0.1 l0.2,0 l0.6,-0.5 l0.2,-0.1 l0.6,-0.2 l1.1,0 l1,0.1 l0.5,0.1 l0.4,0.2 l0.5,0.6 l0.4,0.4 l0.6,0.4 l0.9,0.3 l0.5,0.2 l0.8,0.8 l1,0.2 l0.4,0.1 l0.3,0.4 l-0.2,0.6 l0,0.3 l0.2,0.4 l0.6,0.2 l0.6,-0.1 l0.8,-0.3 l0.3,-0.1 l0.7,0.1 l0.4,0.1 l1.5,1 l0.7,0.9 l0.3,0.8 l0.2,1 l0.4,0.6 l0.3,0.2 l0.1,0.3 l-0.1,0.6 l0.1,0.2 l1.5,1.7 l0.8,0.5 l0.3,0.3 l0.1,0.2 l-0.2,0.5 l-0.1,0.4 l0.2,0.5 l0.4,0.3 l3.1,4 l0.5,0.4 l0.6,0 l0.4,-0.2 l0.3,-0.4 l0.3,-0.1 l0.6,-0.2 l0.6,0.1 l0.3,-0.3 l0.1,-0.2 l0,-0.8 l0.2,-0.5 l0.2,-0.2 l0.4,-0.3 l0.9,-0.2 l0.8,0 l1,0.3 l-2.2,1.1 l-0.2,0.5 l0.1,0.3 l0,0.4 l-0.2,0.7 l-0.1,0.4 l0.2,0.3 l0.2,0.1 l1.6,0.5 l0.2,0.2 l0.2,0.4 l0.2,0.6 l0.2,1.3 l-0.1,0.6 l-0.1,0.4 l-0.2,0.2 l-2.6,1.4 l-0.7,0.5 l-0.5,0.7 l-0.1,0.7 l0,0.3 l0.3,0.5 l0.6,0.9 l0.2,0.5 l0,0.7 l-0.2,2 l0,0.8 l0.2,0.5 l0.6,0.6 l0.1,0.7 l-0.1,0.3 l-0.5,0.9 l-0.8,2.1 l-0.3,0.7 l-0.5,0.8 l-0.3,0.4 l-0.1,0.7 l0.1,2 l-0.1,0.4 l-0.1,0.3 l-0.4,0.3 l-0.6,1 l-0.5,1.3 l-0.3,0.7 l0,0.5 l0.1,0.6 l0.5,0.7 l1,0.8 l0.3,0.4 l0.3,0.5 l0.2,0.9 l-0.3,1.6 l-0.3,0.7 l-1.3,0.9 l-0.6,0.7 l-0.4,0.7 l-0.5,1.3 l-0.3,0.5 l-0.4,0.4 l-0.5,0.1 l-2.7,0.2 l-0.6,0.1 l-0.5,0.3 l-0.3,0.2 l-3.1,4 l-0.7,0.7 l-0.8,0.5 l-1.2,0.4 l-0.6,0.3 l-0.6,0.4 l-1.6,2 l-2.4,0.4 l-0.8,0.4 l-0.2,0.1 l-1,1.1 l-0.5,0.7 l-0.2,0.5 l0,0.3 l0.3,0.7 l0,0.8 l-0.2,0.6 l-0.3,0.2 l-0.5,0.2 l-0.5,0.2 l-0.8,0.3 l-0.5,0.1 l-0.7,0 l-1.1,-0.3 l-0.3,-0.1 l-2.4,0.5 l-3.2,1.2 l-0.7,0.9 l-0.9,0.8 l-0.2,0.4 l-0.2,0.4 l0.1,1.1 l-0.1,0.5 l-0.2,0.5 l-1.2,1.1 l-0.4,0.7 l-0.2,1 l-1,2.5 l-0.3,0.6 l-0.7,-0.4 l-0.8,-0.3 l-1.5,-0.3 l-0.3,-0.3 l-1.4,-2.5 l-0.7,-0.6 l-2,-0.1 l-0.5,-0.7 l-0.4,-2.2 l-0.2,-1 l-0.5,-0.9 l-0.6,-0.8 l-0.9,-0.6 l-0.6,0.1 l-2.7,1.8 l-0.9,0.2 l-6.5,0.4 l-0.9,0.4 l-0.9,1 l-1.3,2.1 l-0.9,0.8 l-0.9,0.4 l-1.1,0.1 l-1,-0.1 l-1,-0.4 l-3.1,0.3 l-0.4,-0.1 l-0.5,0.6 l-0.6,0.8 l-1.3,1.9 l-0.1,0.3 l-2.1,2.2 l-1.7,2.3 l-0.2,0.5 l-0.1,0.7 l-0.4,0.1 l-1.2,0 l-0.6,-0.3 l-0.4,-0.5 l-0.5,-0.5 l-0.9,-0.1 l-0.7,0.4 l-0.4,0.7 l-0.3,0.8 l-0.4,0.8 l-1.2,0.5 l-5.3,-0.3 l0.3,0.9 l-0.5,0.4 l-0.7,0.2 l-0.4,0.5 l0,1.1 l-0.3,0.6 l-0.1,0.7 l-0.4,-0.1 l-0.2,0 l-0.8,1.3 l-0.6,0.7 l-0.6,0.2 l-0.7,0.2 l0.2,0.5 l0.6,0.6 l0.4,0.5 l-0.3,0.1 l-0.7,0.3 l-0.3,-0.4 l-0.3,0.4 l0.2,1.3 l-1,1.9 l-2.7,3.3 l-0.8,0.4 l-0.5,0.3 l-0.3,0.4 l0,0.6 l0.3,1.2 l0.1,0.6 l-0.5,0.4 l-2.3,0.7 l-0.8,0.5 l-0.1,0.5 l-0.1,1.2 l-0.1,0.5 l-0.5,0.6 l-0.4,0.2 l-0.4,0.2 l-0.4,0.3 l-0.1,0.4 l0.4,0.6 l0.2,0.4 l-0.1,0.7 l-0.2,0.3 l-0.3,0.3 l-1.9,2.1 l-0.5,0.8 l-0.2,1 l-0.3,0.2 l-1.1,0 l-0.2,0.2 l-0.1,0.6 l-0.2,0.5 l-0.4,0.5 l-0.3,0.3 l-1.5,0.9 l-1,0.5 l-1.3,0.2 l-0.8,0.5 l-0.5,0.2 l-1.3,0.1 l-1.3,0.5 l-0.3,0.2 l-1.5,1.6 l-0.2,0.1 l-0.4,-0.1 l-0.2,-0.6 l-0.5,0 l-0.3,0.2 l-0.3,0.9 l-0.3,0.4 l-0.5,-0.7 l-0.4,0 l-0.4,0.5 l0,0.9 l-0.6,1.3 l0.4,0.2 l0.6,0.6 l0.7,0.3 l0.6,0.5 l1.3,2.1 l0.4,0.8 l5.1,12.2 l0.9,1.1 l2.2,1.9 l0.7,1 l0.6,2.6 l0.4,0.7 l0.5,0.9 l0.5,0.2 l0.5,-0.1 l1.1,0 l0.7,0.2 l0.4,0.3 l0,0.6 l-0.7,0.7 l-1,2.5 l0,1.5 l1.1,2.9 l-0.1,0.9 l0.5,0 l-0.7,0.2 l-0.6,0.3 l0.6,1.1 l0.4,1.1 l0.5,-0.4 l0.4,0 l0.4,0.2 l0.3,0.5 l-0.7,1 l-1,0.1 l-1,-0.1 l-1,0.3 l-0.1,1 l0.9,0.6 l0.7,0.6 l-1,0.6 l-0.4,-0.1 l-1.2,-0.6 l-0.3,0 l-0.4,0.5 l0.2,0.5 l0.4,0.3 l0.6,0.1 l0.2,0.3 l-0.2,0.6 l-0.7,0.8 l-0.4,0.2 l-0.6,0.1 l-1,-0.1 l-0.1,-0.1 l-0.4,-0.5 l-0.4,-0.2 l-0.2,0.4 l-0.2,0 l-0.8,0.1 l-0.4,0.2 l-0.6,0.6 l-1.9,-0.1 l-0.7,0.1 l0,0.4 l0.3,0.5 l-0.1,0.4 l-0.9,0.7 l-0.8,-0.1 l-0.9,-0.3 l-1,-0.3 l-2.2,0.4 l-0.5,0.3 l0.3,0.6 l1,1 l0.3,1 l-0.4,0.2 l-1.8,-0.1 l-1,0.3 l-0.8,0.7 l-0.5,0.9 l0.4,1 l-0.5,0.5 l-0.6,0.2 l-1.3,0 l-0.8,0.2 l-0.6,0.8 l-0.5,0.2 l-0.8,-0.4 l-0.6,-0.7 l-0.7,-0.7 l-1.3,-0.1 l-0.3,0.3 l-1,0.7 l-0.4,0.2 l-0.8,-0.1 l-0.3,0.1 l-0.3,0.1 l-0.5,0.5 l-0.4,0.1 l-0.5,-0.1 l-0.6,-0.4 l-0.6,0.1 l-1,0.5 l-0.4,0 l0.4,-0.5 l0,-0.3 l-0.8,-0.4 l-1,-0.1 l-2.1,0 l-0.8,-0.2 l-2,-1.1 l-0.5,-0.5 l-0.2,-0.4 l-0.2,-1.4 l-0.7,-0.9 l-0.4,-0.5 l-0.3,-0.1 l-6,1.1 l-1.5,-0.1 l-0.6,-0.8 l-0.3,-1.1 l-0.8,-0.4 l-0.9,-0.2 l-0.9,-0.4 l-0.5,-0.6 l-0.4,-0.7 l-0.6,-0.6 l-1.2,-0.3 l-0.3,0.5 l0,1 l-0.2,0.8 l-1.3,-0.1 l-1.6,-0.6 l-0.6,0 l-2.7,0.8 l-0.7,0.3 l-1.4,1.3 l-0.9,0.4 l-1.4,-1.1 l-0.7,-0.2 l-0.6,0.3 l-0.4,0.5 l0,0.6 l0.2,0.9 l-0.6,0.7 l-1,1.1 l-3,2.2 l-1.4,0.8 l-0.9,0.4 l-1.3,-0.2 l-0.6,-0.2 l-0.9,-0.6 l-0.3,-0.1 l-1.2,-0.2 l-0.4,-0.3 l-0.2,-0.6 l-0.1,-1.3 l-0.3,-0.5 l-1.5,-0.2 l-2.7,0.3 l-0.7,0 l-1.8,0.2 l-1.7,-1.1 l-1.6,-1.5 l-1.6,-1 l-2.2,0.1 l-1.1,-0.2 l-0.5,-0.8 l-0.3,-1 l-0.7,-0.7 l-1.9,-1.1 l-1.5,-1.1 l-2.5,-3.1 l-4.1,-3.7 l-0.2,-0.4 l-0.1,-0.6 l-0.1,-1.2 l-0.2,-0.3 l-2,-0.9 l-0.4,-0.5 l-0.5,-0.4 l-0.3,-0.5 l-0.7,-1.4 l-0.5,0 l-0.4,-0.1 l-0.6,-0.3 l-0.3,-0.3 l-4.6,-9.7 l-1.1,-1.8 l-1.4,-0.3 l-0.7,-0.1 l-1.5,-0.3 l-0.7,-0.3 l-0.6,-0.4 l-0.4,-0.6 l-0.2,-0.8 l-0.1,-1.2 l-0.3,-0.9 l-0.5,-0.4 l-1.9,-0.3 l-1.4,-0.9 l-2.1,-2.7 l-0.4,-0.2 l-0.5,0 l-1,0.1 l-0.3,-0.3 l-0.2,-1 l-0.2,-0.2 l-1.5,0 l-0.6,-0.4 l-0.9,-0.7 l-2.1,-2.8 l-0.4,-0.8 l-0.4,-2 l-0.3,-0.6 l0.4,-0.7 l3.2,-6.7 l11,-23.5 l5,-10.8 l5.2,-11.4 l0.1,-0.6 l-0.2,-0.3 l-0.6,-0.3 l-0.5,-0.9 l-0.4,-1.5 l0.2,-3.3 l0.9,-2.8 l0.8,-1.3 l0.5,-1.2 l1,-3.7 l0.2,-1.1 l-0.1,-0.6 l-0.4,-0.4 l-0.4,-0.6 l-0.2,-0.6 l0.3,-0.7 l1.1,-0.7 l1.2,-1.3 l0.9,-1.4 l0.5,-1.1 l1.4,-3.8 l0.1,-0.8 l0,-1.7 l0.1,0 l0.4,-0.7 l0.5,0 l0.5,0.2 l0.4,0 l0.6,-0.6 l0.7,-0.9 l0.9,-1.7 l0,-0.4 l-0.1,-0.3 l-0.1,-0.4 l1.3,-2.2 l0.2,-0.3 l0.5,-0.3 l0.5,-0.1 l1.1,0 l0.2,-0.1 l0.5,-0.8 l0.9,-0.6 l0.7,-0.8 l0.7,-1 l0.3,-0.7 l-0.2,-0.8 l0,-0.4 l0.6,-0.3 l0.7,-1.2 l0.5,-0.4 l0.5,0 l0.5,0 l0.6,-0.1 l0.6,-0.2 l0.3,-0.2 l3.4,-3 l0.7,-0.5 l2.9,-0.8 l0.5,-0.6 l0.3,-0.1 l0.3,0 l0.4,0.3 l0.3,0.1 l0.5,-0.1 l0.8,-0.5 l0.5,-0.3 l0.5,-0.7 l0.4,-0.2 l0.5,0 l0.5,0.2 l0.9,0.5 l0.8,0.3 l0.3,-0.1 l0.4,-0.2 l0.6,-0.8 l1.2,-1 l4.9,-2.8 l1,-0.1 l0.4,0.3 l0.6,0.7 l0.7,0.7 l0.4,0.3 l0.4,0.2 l0.3,0 l1,-0.1 l0.6,0.1 l3.2,0.6 l0.4,0.2 l0.3,0.2 l0.3,1.3 l0.2,0.9 l0.2,1.1 l0.2,0.5 l0.3,0.2 l0.3,0.1 l0.5,0.1 l0.6,-0.2 l0.4,-0.3 l0.2,-0.5 l-0.1,-0.5 l-0.5,-0.9 l-0.1,-0.6 l0.1,-0.5 l1.1,-2.1 l1,-1.4 l4.2,-4 l0.3,-0.1 l0.7,-0.1 l0.2,-0.1 l0.4,-0.5 l0.1,-0.3 l-0.1,-0.9 l0.3,-1.3 l0.8,-1.1 l1.1,-0.7 l1.3,-0.2 l0.3,0.1 l0.8,0.6 l0.2,-0.3 l0.4,-1 l0.5,-0.4 l0.6,-0.1 l1.3,0 l0.9,0.3 l4.6,0 l0.2,-0.1 l-0.1,-0.4 l-0.4,-0.3 l-0.4,-0.2 l-0.5,0 l-1.2,-0.3 l-0.3,-0.8 l0.3,-1 l0.6,-1 l0.4,-0.2 l0.3,0 l0.1,-3 l-0.9,-1.1 l-1.6,-1.4 l-1,-1.5 l0.9,-1.2 l2.7,-0.8 l0.8,-0.6 l1.2,-1.5 l0.5,0 l1.2,0.4 l0.6,-0.6 l0.1,-0.6 l-0.2,-0.8 l0.1,-0.8 l0.3,-0.6 l1.3,-1.4 l0.6,-0.5 l0.7,-0.3 l0.7,0.2 l0.9,0.4 l0.4,0.4 l0.3,0 l0.2,-0.6 l0,-0.4 l0.3,-0.7 l0.2,-0.3 l1.3,-1.2 l0.8,-0.6 l1.1,-0.3 l0.5,-0.4 l0.2,-0.2 l0.7,0.6 l0.4,0.2 l0.3,-0.4 l0.6,-0.6 l1,-0.6 l0.2,0.1 l1.5,1.4 l1.1,0.7 l-0.2,-3.4 l0.2,-0.8 l0.7,-0.5 l0.6,0.6 l0.9,1.7 l1.6,0.8 l2,0.3 l4.6,-0.1 l0.8,-0.3 l0.4,0 l0.5,0.1 l0,0.5 l-0.3,1 l0.4,0.4 l1,-0.4 l1.8,-1.4 l2,-2.3 l1.1,-1 l1.3,-0.2 l0.6,0.3 l1.5,1.4 l0.6,0.2 l0.6,0 l2.9,-0.8 l0.5,-0.3 l1.4,-2.2 l0.2,-0.5 l0,-1.1 l0.2,-1 l0.6,-0.6 l0.4,-0.1 l0.6,-0.2 l1,0 l-0.3,-1.1 l0.6,-0.3 l0.9,0 l0.4,-0.2 l0.3,-0.3 l0.6,0.6 l0.5,0.9 l0.2,0.4 l0.7,0 l3.3,-0.4 l0.2,0.2 l0.3,0.4 l0.4,0.4 l0.5,0.1 l0.4,-0.3 l0,-0.7 l0.2,-0.4 l0.8,-0.5 l1.1,-0.3 l2.1,-0.3 l1.1,-0.3 l0.7,-0.7 l0.6,-0.8 l0.6,-0.7 l1,-0.7 l0.6,-0.1 l0.5,0.3 l0.9,0.8 l0.3,0.5 l-0.2,0.3 l-0.5,0.5 l0.5,1.3 l1.9,3.4 l0.6,0.8 l1.3,0.5 l0.9,0.6 l0.9,0.7 l0.6,0.7 l0.6,0.6 l1,-0.9 l0.5,0 l0.3,1.1 l0.3,0.6 l0.8,0.6 l1.2,-0.2 l0.9,-0.3 l0.5,-0.1 l0.3,0.1 l0.4,0.4 l0.8,0.6  z " id="ZAF1206" name="Orange Free State"></path><path d="M549.4 245.4l-0.8-0.6-0.4-0.4-0.3-0.1-0.5 0.1-0.9 0.3-1.2 0.2-0.8-0.6-0.3-0.6-0.3-1.1-0.5 0-1 0.9-0.6-0.6-0.6-0.7-0.9-0.7-0.9-0.6-1.3-0.5-0.6-0.8-1.9-3.4-0.5-1.3 0.5-0.5 0.2-0.3-0.3-0.5-0.9-0.8-0.5-0.3-0.6 0.1-1 0.7-0.6 0.7-0.6 0.8-0.7 0.7-1.1 0.3-2.1 0.3-1.1 0.3-0.8 0.5-0.2 0.4 0 0.7-0.4 0.3-0.5-0.1-0.4-0.4-0.3-0.4-0.2-0.2-3.3 0.4-0.7 0-0.2-0.4-0.5-0.9-0.6-0.6-0.3 0.3-0.4 0.2-0.9 0-0.6 0.3 0.3 1.1-1 0-0.6 0.2 0.4-6.8-0.1-1.3 0.6-1.3 0.7-0.7 0.3-3 0.3-0.8 0.3-0.3 0.5-0.2 0.3-1.7-4.2 0-0.4-0.4-0.6-0.3-0.4-0.6-0.8-0.7-5.7 1.7-0.8 1-2.2 1-0.6 0.3-0.6 0.3-1.6 0.3-0.3-0.3-0.3 0 0-0.4-0.1-0.8-0.3-0.7-1.7-3.3 2.4-2.2 4.1-2.9-1.6-7.2 2.8-0.2 0.8-1.1 1.6-0.6 1.1-1.5 1.1-5.1 1.2-5.9 3.1-2.2 3.8-1.4 0.8 1 1.2 0.7 1 0.9 1.8-0.1 0.8 0.7 3.6-0.6 3.2-0.7 0.8-0.6 1.5-0.6 0.9-1.2 0.2-1-0.1-1-0.1-0.6 0.2-0.3 0.3-0.1 0.4-0.3 0-0.4-0.1-0.7-0.2-0.6-1.5-3.5 3.5-0.8 1.2-0.8 1.1-1.1 1.2-1.8 0.3-1.3 0-0.9-0.2-0.5-0.6-2.9 0-0.9 0.4-0.8 1.1-0.5 1-0.1 0.4 0.2 0 0.5-0.5 0.6 0 0.7 0.3 0.4 0.8-0.1 0.5-0.2 0.6-0.3 2.5-0.1 1.2-0.4 1.9-1.3 0.4-4.3 3.3-0.3 0.5 0.6 2.7 0 2.4-1.2 0.8-1 1.2-0.5 2.4-0.2 1.5 0.3 1.5-0.5 0.5-0.3 0.4-0.5-0.1-1-0.9-0.5-0.8-1.3-0.4-0.4-0.5-1.3 0.9-0.4 4-0.5 1.9-1.4 3.6-0.2 1.1 1.6 0.3 0.5 0.4 0.1 1.2-0.7 0.7-0.2 0.4 0.1 0.2 0.3-0.1 0.4-0.2 0.4-0.6 0.7-0.2 0.3 0 0.5 0.1 0.8 0 0.7-0.2 0.5-0.3 0.3-0.2 0.1-0.2-0.2-0.5-1-0.5-0.3-0.5 0.5 0.2 1.6 0.3 1.1 0.1 0.6-0.1 0.6-0.4 0.5-0.3 0.5-1.9 1.6 0.1 1 2.7 1.1 2-0.7 1-0.8 1.8-0.2 1.2-0.3 2.2 0.7 1.1-0.7 3.5-0.9 0.9 0.1 1.6 0.6 1.5-0.3 0.9 0.5 0 0.8-0.3 1-1.1 2.2-2.6-0.1-0.9 1-0.3 0.8-0.6 1-1.1 0.4-0.3 0.6-0.2 0.2 0.1 0.3-0.2 0.3-0.2 1.1-1.3 1.5-0.9 3.4-2.6 2.5-0.6 1.4 0.2 1.2-0.4 2.1-0.8 1.8 0 1.1-0.2 1.2-0.3 0.6-0.7 0.9-1.6 1.1-1.7 4.7-0.3 1.9-3.4-0.1-0.8-0.7-1.3-0.2-0.5-0.2-5 0-0.2 0.2-1.2 1.6-0.4 1.1-0.6 1-0.6 0.3-1.6-0.1-0.7 0.2-0.5 0.2-1.2 0.9 1.1 2.4 0.6 0.3 0.8 1.9 0.5 1.8 0.6 1 2.3 1.7 0.3 0.3 0.3 0.5 0 1.6 3.1 0.6 2 0.7 5.5-0.8 2 4.2-4.7 3.9-0.5 0.5-0.3 0.3-0.7 0.6-4.5 1.1-0.7 0.7-1.9 0.1-1.5 0.5-1 1-0.7 1.4-0.2 0.2-1.1 0.4-0.6 0.5-0.6 0.9-1 0.6-2.5 1.9-1 2.3 0 0.3 0.3 0.3 0.1 0.4-0.1 1-1.2 0.8-0.6 0.9-0.9 0.8-0.2 1.3 0.2 0.8-0.7 2.3z" id="ZAF1208" name="Gauteng"></path><path d="M686.6,262 l-2.7,3.4 l-1.7,1.4 l-2.1,0 l-2.1,0.6 l-3.7,1 l-1.2,-0.2 l-1.2,-0.9 l-0.5,-0.8 l-0.7,-0.4 l-1.8,0.4 l-0.6,0.4 l-0.4,0.3 l-0.4,0.1 l-0.7,-0.3 l-1.1,-0.7 l-1.7,-0.9 l-0.3,0 l-0.6,-0.5 l-0.6,-0.2 l-1.6,-0.5 l-0.6,0 l-0.8,0.1 l-1.3,0.4 l-0.6,0.3 l-0.4,0.2 l-0.7,0.8 l-1,0.1 l-3.3,-0.5 l-2.8,0.4 l-0.7,-0.4 l-0.2,-0.5 l-0.1,-0.9 l-0.4,-0.3 l-0.8,-0.2 l-0.7,0.1 l-0.5,0.4 l-0.5,0.5 l-0.2,0.2 l-1.1,-0.1 l-0.7,0.2 l-1,0.5 l-0.6,0.1 l-0.9,0.6 l-1.4,1.1 l-0.4,0.2 l-2.5,1 l-0.4,0.3 l-0.3,0.7 l-1,0.2 l-3.6,-1 l-0.7,0.3 l-0.8,0.7 l-0.6,0.1 l-2.5,-0.5 l-0.7,-0.4 l-0.6,0 l-1.9,0.5 l-0.8,0.2 l-0.6,0.2 l-0.4,0.3 l-0.4,0.8 l-0.3,0.9 l-0.5,1 l-0.4,0.6 l-0.3,0.4 l-0.5,0.2 l-1.2,-0.5 l-1,-0.3 l-0.8,0 l-0.9,0.2 l-0.4,0.3 l-0.2,0.2 l-0.2,0.5 l0,0.8 l-0.1,0.2 l-0.3,0.3 l-0.6,-0.1 l-0.6,0.2 l-0.3,0.1 l-0.3,0.4 l-0.4,0.2 l-0.6,0 l-0.5,-0.4 l-3.1,-4 l-0.4,-0.3 l-0.2,-0.5 l0.1,-0.4 l0.2,-0.5 l-0.1,-0.2 l-0.3,-0.3 l-0.8,-0.5 l-1.5,-1.7 l-0.1,-0.2 l0.1,-0.6 l-0.1,-0.3 l-0.3,-0.2 l-0.4,-0.6 l-0.2,-1 l-0.3,-0.8 l-0.7,-0.9 l-1.5,-1 l-0.4,-0.1 l-0.7,-0.1 l-0.3,0.1 l-0.8,0.3 l-0.6,0.1 l-0.6,-0.2 l-0.2,-0.4 l0,-0.3 l0.2,-0.6 l-0.3,-0.4 l-0.4,-0.1 l-1,-0.2 l-0.8,-0.8 l-0.5,-0.2 l-0.9,-0.3 l-0.6,-0.4 l-0.4,-0.4 l-0.5,-0.6 l-0.4,-0.2 l-0.5,-0.1 l-1,-0.1 l-1.1,0 l-0.6,0.2 l-0.2,0.1 l-0.6,0.5 l-0.2,0 l-0.4,-0.1 l-0.5,-0.8 l-0.4,-0.9 l-0.4,-1 l-0.3,-0.5 l-0.3,-0.4 l-0.4,-0.4 l-0.1,-0.5 l0,-0.6 l-0.2,-0.5 l0.1,-0.7 l-0.2,-0.2 l-0.4,-0.1 l-0.5,-0.1 l-2,-1.4 l-0.9,-0.1 l-0.6,0 l-0.4,0.3 l-0.5,0.4 l-0.8,0.2 l-0.5,0.3 l-0.3,0.3 l-0.6,0.8 l-0.4,0.3 l-0.4,0 l-0.6,-0.6 l-0.4,-0.1 l-0.4,0.1 l-0.5,0.2 l-0.5,0.1 l-0.5,-0.3 l-0.5,-0.4 l-0.7,-0.2 l-0.6,-0.2 l-3.5,-2.4 l-2.1,-0.8 l-1.4,0.7 l-0.1,0.5 l0.4,-0.1 l0.4,0.3 l0.8,0.7 l0.1,0.5 l-0.7,0.2 l-1,0 l-0.7,0.1 l-0.6,0.3 l-2.1,1.9 l-0.6,0.2 l0.4,-1.2 l0.3,-0.7 l-0.1,-0.4 l-1.3,-0.6 l-0.2,-0.5 l-0.6,-0.5 l-0.4,-0.7 l-0.6,-0.3 l-0.6,0 l-0.6,0.3 l-0.5,0.6 l-0.2,0.1 l-0.3,0.1 l-0.3,-0.1 l-0.7,-0.8 l-0.2,-0.5 l-0.2,-0.9 l-0.3,-0.2 l-0.5,-0.2 l-1,-0.1 l-1.1,0.1 l-0.8,-0.2 l-1.6,-0.8 l0.7,-2.3 l-0.2,-0.8 l0.2,-1.3 l0.9,-0.8 l0.6,-0.9 l1.2,-0.8 l0.1,-1 l-0.1,-0.4 l-0.3,-0.3 l0,-0.3 l1,-2.3 l2.5,-1.9 l1,-0.6 l0.6,-0.9 l0.6,-0.5 l1.1,-0.4 l0.2,-0.2 l0.7,-1.4 l1,-1 l1.5,-0.5 l1.9,-0.1 l0.7,-0.7 l4.5,-1.1 l0.7,-0.6 l0.3,-0.3 l0.5,-0.5 l4.7,-3.9 l-2,-4.2 l-5.5,0.8 l-2,-0.7 l-3.1,-0.6 l0,-1.6 l-0.3,-0.5 l-0.3,-0.3 l-2.3,-1.7 l-0.6,-1 l-0.5,-1.8 l-0.8,-1.9 l-0.6,-0.3 l-1.1,-2.4 l1.2,-0.9 l0.5,-0.2 l0.7,-0.2 l1.6,0.1 l0.6,-0.3 l0.6,-1 l0.4,-1.1 l1.2,-1.6 l0.2,-0.2 l5,0 l0.5,0.2 l1.3,0.2 l0.8,0.7 l3.4,0.1 l0.3,-1.9 l1.7,-4.7 l1.6,-1.1 l0.7,-0.9 l0.3,-0.6 l0.2,-1.2 l0,-1.1 l0.8,-1.8 l0.4,-2.1 l-0.2,-1.2 l0.6,-1.4 l2.6,-2.5 l0.9,-3.4 l1.3,-1.5 l0.2,-1.1 l0.2,-0.3 l-0.1,-0.3 l0.2,-0.2 l0.3,-0.6 l1.1,-0.4 l0.6,-1 l0.3,-0.8 l0.9,-1 l2.6,0.1 l1.1,-2.2 l0.3,-1 l0,-0.8 l-0.9,-0.5 l-1.5,0.3 l-1.6,-0.6 l-0.9,-0.1 l-3.5,0.9 l-1.1,0.7 l-2.2,-0.7 l-1.2,0.3 l-1.8,0.2 l-1,0.8 l-2,0.7 l-2.7,-1.1 l-0.1,-1 l1.9,-1.6 l0.3,-0.5 l0.4,-0.5 l0.1,-0.6 l-0.1,-0.6 l-0.3,-1.1 l-0.2,-1.6 l0.5,-0.5 l0.5,0.3 l0.5,1 l0.2,0.2 l0.2,-0.1 l0.3,-0.3 l0.2,-0.5 l0,-0.7 l-0.1,-0.8 l0,-0.5 l0.2,-0.3 l0.6,-0.7 l0.2,-0.4 l0.1,-0.4 l-0.2,-0.3 l-0.4,-0.1 l-0.7,0.2 l-1.2,0.7 l-0.4,-0.1 l-0.3,-0.5 l-1.1,-1.6 l-3.6,0.2 l-1.9,1.4 l-4,0.5 l-0.9,0.4 l-4.1,1.3 l-0.5,0.3 l-0.8,0.6 l-1,0.5 l-1.6,0.4 l-1.9,0.2 l-1.1,-0.3 l-0.5,-0.9 l-0.1,-0.6 l0.2,-0.6 l0.6,-0.5 l1.7,-0.6 l1.8,-1 l0.5,-0.9 l0.9,-0.5 l1.1,-0.4 l1.2,-0.3 l1.9,-0.6 l0.8,-0.9 l0.3,-1.5 l0,-0.9 l0.2,-0.8 l3.9,-1.8 l1.4,-0.8 l1,-0.5 l1.1,-0.3 l1,-0.1 l2.5,0.3 l3.7,-0.3 l1.2,0.5 l0,-3 l2.1,-0.2 l1.4,0.2 l0.8,1.2 l0.3,0.2 l1.8,3.4 l4,-1.9 l0.4,-0.5 l0.9,-2.2 l0.2,-1.1 l0.7,-0.9 l1.2,-1.1 l3.6,-1 l2,-1.3 l3.3,-1.3 l0.1,1.5 l0.3,1.5 l0,0.7 l-0.1,0.4 l-0.5,0.6 l-0.4,0.2 l-0.5,0 l-0.5,-0.5 l-0.2,0.1 l-0.6,0.6 l-0.5,0.6 l-0.1,0.5 l0,0.3 l0.9,2 l0.1,0.9 l0,0.8 l-0.2,0.8 l-0.5,0.3 l-0.6,0.6 l-0.1,0.3 l0.1,0.5 l0.2,0.3 l0.4,-0.1 l1,-0.7 l0.3,-0.1 l0.4,0.1 l2.4,2.5 l0.4,1.1 l0.8,1.1 l0.4,0.4 l0.4,0.1 l0.4,0.2 l0.8,0.7 l1.5,1.8 l1.2,1.2 l2.2,0.6 l3.1,0.4 l3.8,-1.2 l0.6,-1.4 l0.9,-0.4 l0.3,-1.3 l-1.1,-1.4 l-0.5,-0.5 l-0.4,-0.6 l0.2,-1 l1.4,-0.6 l0.9,-1.3 l0,-0.3 l5,-4.2 l6.1,-4.7 l2.3,-1.3 l0.7,-1.6 l0.2,-1.7 l-1.1,-2.1 l0.1,-4.2 l1.8,-0.9 l0.8,-0.2 l0.9,0.4 l1.1,0.7 l0.5,0.1 l0.5,-0.3 l0.8,-1.2 l1.8,0 l2.1,-0.4 l1.9,-0.6 l5.4,1.3 l2.3,1.1 l1.9,-0.7 l0.8,-0.8 l0.5,-1.3 l0.3,-1.1 l1.1,-0.6 l0.7,0.3 l3.2,-0.8 l0.2,-2.1 l0.3,-0.8 l0.9,-1.8 l3.6,3.6 l1.5,0.7 l4.6,1.1 l0.8,1.5 l3.2,0.5 l1.3,3 l0.8,0.9 l0.8,0.6 l0.9,0.1 l1,-0.1 l0.5,0 l0.4,0.2 l0.2,0.5 l-0.3,0.8 l-0.8,1.2 l-2.5,0.8 l-0.7,0.7 l0.3,1.1 l1.8,0.6 l0.9,0.8 l0.6,0.7 l0.6,2.6 l0.9,2 l1,0.9 l-0.4,1 l-2.4,0.5 l-1.6,0.8 l-0.6,1.3 l-0.1,2.7 l5.2,-0.5 l1.4,-0.3 l0.1,-0.2 l0.1,-0.5 l0.4,-0.5 l0.6,-0.2 l0.9,0.1 l0.3,-0.1 l0.6,-0.4 l0.3,-0.1 l3.1,0 l1.4,0.3 l0.5,0.2 l1.8,-2.6 l-0.1,-1 l0,-1.3 l-0.5,-0.8 l-2.5,-0.6 l-1,-0.3 l-0.6,-0.1 l-0.6,-0.4 l-0.1,-1.1 l0.6,-2.9 l1.6,-1.1 l2.2,-0.6 l1.9,-0.3 l1.3,-0.5 l0.6,-1.4 l0.4,-0.8 l0.6,-0.3 l0.8,0 l0.8,-0.1 l0.4,-0.5 l0.2,-0.6 l-0.3,-0.7 l-0.8,-1.2 l-5.2,-3.5 l-0.4,-0.8 l-0.1,-0.8 l0.2,-0.7 l-0.3,-0.2 l0.1,-0.5 l-3.6,0 l1.3,-2.3 l-0.8,-1.6 l3,-7.7 l0.2,-3 l1.1,-2.3 l-1.2,-1.8 l-2.8,-0.5 l-6.7,-0.3 l1.3,-1.2 l0.7,-0.2 l1.8,0.3 l0.5,-0.2 l0.8,-0.6 l0.5,-0.4 l0.4,-0.1 l1.1,0.2 l0.6,-0.2 l0.3,-0.3 l0.8,-0.9 l0.4,-0.4 l0.3,-0.1 l1,0.3 l1.3,0.4 l0.7,0.4 l0.3,0.1 l0.6,0.1 l0.4,-0.2 l0.7,-0.4 l0.3,-0.1 l0.2,0.1 l0.5,0.6 l0.4,0.2 l0.5,-0.1 l0.1,-0.2 l0.6,-0.9 l0.4,-0.4 l0.4,-0.3 l0.6,0 l0.3,0.1 l0.3,0.4 l0.1,0.6 l0.2,0.3 l0.4,0.3 l0.9,0.2 l0.5,0 l0.4,0 l0.4,-0.3 l0.2,-0.3 l0.3,-1.6 l0.1,-0.3 l2.1,-1.8 l0.5,-0.1 l0.8,0.3 l0.6,0.1 l0.7,-0.1 l0.4,-0.1 l0.6,-0.2 l0.3,8 l0.3,2.2 l4.2,9.3 l1.2,3.9 l0.2,3.9 l-0.3,3.5 l0.1,15.8 l0,14.2 l0.1,11.2 l-0.8,2.5 l-0.2,1.3 l0,1.7 l0.1,1.6 l0.5,1 l0.3,1.1 l0.4,3.3 l0,1.1 l-0.2,0.7 l-0.3,0.3 l-0.4,0.2 l-0.6,0.6 l-0.4,0.6 l-2,5.2 l-0.2,1.4 l0.1,1.6 l1.9,5.9 l-2.7,1.4 l-1.3,0.3 l-1.4,-0.4 l-9,-5.9 l-9.9,-6.4 l-1.2,-0.4 l-1.3,0 l-1.6,0.4 l-1.3,0.7 l-8.8,7.9 l-0.6,1 l-0.7,2.7 l-2.5,6.1 l-3.2,5.6 l-3.3,4.3 l-4.4,5.5 l-1,3.8 l0.2,12.7 l0.4,3.6 l0.4,1.2 l0.8,0 l0.7,-0.2 l0.8,-0.4 l0.7,-0.6 l0.6,-0.7 l1,3.1 l0.6,0.9 l1.3,1.4 l0.5,0.8 l0.3,1 l0,1.3 l-0.5,2.1 l0.2,1.3 l1,1.8 l4.8,4.3 l2.2,3.4 l0.7,0.7 l0.7,0.5 l4.1,1.4  z " id="ZAF1209" name="Mpumalanga"></path><path d="M715,93.7 l-0.6,0.2 l-0.4,0.1 l-0.7,0.1 l-0.6,-0.1 l-0.8,-0.3 l-0.5,0.1 l-2.1,1.8 l-0.1,0.3 l-0.3,1.6 l-0.2,0.3 l-0.4,0.3 l-0.4,0 l-0.5,0 l-0.9,-0.2 l-0.4,-0.3 l-0.2,-0.3 l-0.1,-0.6 l-0.3,-0.4 l-0.3,-0.1 l-0.6,0 l-0.4,0.3 l-0.4,0.4 l-0.6,0.9 l-0.1,0.2 l-0.5,0.1 l-0.4,-0.2 l-0.5,-0.6 l-0.2,-0.1 l-0.3,0.1 l-0.7,0.4 l-0.4,0.2 l-0.6,-0.1 l-0.3,-0.1 l-0.7,-0.4 l-1.3,-0.4 l-1,-0.3 l-0.3,0.1 l-0.4,0.4 l-0.8,0.9 l-0.3,0.3 l-0.6,0.2 l-1.1,-0.2 l-0.4,0.1 l-0.5,0.4 l-0.8,0.6 l-0.5,0.2 l-1.8,-0.3 l-0.7,0.2 l-1.3,1.2 l6.7,0.3 l2.8,0.5 l1.2,1.8 l-1.1,2.3 l-0.2,3 l-3,7.7 l0.8,1.6 l-1.3,2.3 l3.6,0 l-0.1,0.5 l0.3,0.2 l-0.2,0.7 l0.1,0.8 l0.4,0.8 l5.2,3.5 l0.8,1.2 l0.3,0.7 l-0.2,0.6 l-0.4,0.5 l-0.8,0.1 l-0.8,0 l-0.6,0.3 l-0.4,0.8 l-0.6,1.4 l-1.3,0.5 l-1.9,0.3 l-2.2,0.6 l-1.6,1.1 l-0.6,2.9 l0.1,1.1 l0.6,0.4 l0.6,0.1 l1,0.3 l2.5,0.6 l0.5,0.8 l0,1.3 l0.1,1 l-1.8,2.6 l-0.5,-0.2 l-1.4,-0.3 l-3.1,0 l-0.3,0.1 l-0.6,0.4 l-0.3,0.1 l-0.9,-0.1 l-0.6,0.2 l-0.4,0.5 l-0.1,0.5 l-0.1,0.2 l-1.4,0.3 l-5.2,0.5 l0.1,-2.7 l0.6,-1.3 l1.6,-0.8 l2.4,-0.5 l0.4,-1 l-1,-0.9 l-0.9,-2 l-0.6,-2.6 l-0.6,-0.7 l-0.9,-0.8 l-1.8,-0.6 l-0.3,-1.1 l0.7,-0.7 l2.5,-0.8 l0.8,-1.2 l0.3,-0.8 l-0.2,-0.5 l-0.4,-0.2 l-0.5,0 l-1,0.1 l-0.9,-0.1 l-0.8,-0.6 l-0.8,-0.9 l-1.3,-3 l-3.2,-0.5 l-0.8,-1.5 l-4.6,-1.1 l-1.5,-0.7 l-3.6,-3.6 l-0.9,1.8 l-0.3,0.8 l-0.2,2.1 l-3.2,0.8 l-0.7,-0.3 l-1.1,0.6 l-0.3,1.1 l-0.5,1.3 l-0.8,0.8 l-1.9,0.7 l-2.3,-1.1 l-5.4,-1.3 l-1.9,0.6 l-2.1,0.4 l-1.8,0 l-0.8,1.2 l-0.5,0.3 l-0.5,-0.1 l-1.1,-0.7 l-0.9,-0.4 l-0.8,0.2 l-1.8,0.9 l-0.1,4.2 l1.1,2.1 l-0.2,1.7 l-0.7,1.6 l-2.3,1.3 l-6.1,4.7 l-5,4.2 l0,0.3 l-0.9,1.3 l-1.4,0.6 l-0.2,1 l0.4,0.6 l0.5,0.5 l1.1,1.4 l-0.3,1.3 l-0.9,0.4 l-0.6,1.4 l-3.8,1.2 l-3.1,-0.4 l-2.2,-0.6 l-1.2,-1.2 l-1.5,-1.8 l-0.8,-0.7 l-0.4,-0.2 l-0.4,-0.1 l-0.4,-0.4 l-0.8,-1.1 l-0.4,-1.1 l-2.4,-2.5 l-0.4,-0.1 l-0.3,0.1 l-1,0.7 l-0.4,0.1 l-0.2,-0.3 l-0.1,-0.5 l0.1,-0.3 l0.6,-0.6 l0.5,-0.3 l0.2,-0.8 l0,-0.8 l-0.1,-0.9 l-0.9,-2 l0,-0.3 l0.1,-0.5 l0.5,-0.6 l0.6,-0.6 l0.2,-0.1 l0.5,0.5 l0.5,0 l0.4,-0.2 l0.5,-0.6 l0.1,-0.4 l0,-0.7 l-0.3,-1.5 l-0.1,-1.5 l-3.3,1.3 l-2,1.3 l-3.6,1 l-1.2,1.1 l-0.7,0.9 l-0.2,1.1 l-0.9,2.2 l-0.4,0.5 l-4,1.9 l-1.8,-3.4 l-0.3,-0.2 l-0.8,-1.2 l-1.4,-0.2 l-2.1,0.2 l0,3 l-1.2,-0.5 l-3.7,0.3 l-2.5,-0.3 l-1,0.1 l-1.1,0.3 l-1,0.5 l-1.4,0.8 l-3.9,1.8 l-0.2,0.8 l0,0.9 l-0.3,1.5 l-0.8,0.9 l-1.9,0.6 l-1.2,0.3 l-1.1,0.4 l-0.9,0.5 l-0.5,0.9 l-1.8,1 l-1.7,0.6 l-0.6,0.5 l-0.2,0.6 l0.1,0.6 l0.5,0.9 l1.1,0.3 l1.9,-0.2 l1.6,-0.4 l1,-0.5 l0.8,-0.6 l0.5,-0.3 l4.1,-1.3 l0.5,1.3 l0.4,0.4 l0.8,1.3 l0.9,0.5 l0.1,1 l-0.4,0.5 l-0.5,0.3 l-1.5,0.5 l-1.5,-0.3 l-2.4,0.2 l-1.2,0.5 l-0.8,1 l-2.4,1.2 l-2.7,0 l-0.5,-0.6 l-3.3,0.3 l-2.9,-4.7 l-0.7,-0.4 l-1,-0.5 l-1.5,0.3 l-1,-0.2 l-0.6,-0.5 l-0.4,-1.2 l-0.6,-0.7 l-1,-0.7 l-0.2,-1 l0.4,-0.7 l1,-0.4 l0.7,0.1 l0.9,0.5 l0.9,0.5 l0.6,0.3 l1,-0.1 l0.6,-0.5 l0.3,-1 l0.2,-1.4 l-0.7,-1 l-1.4,-0.8 l-3.6,-1.7 l-1.7,-0.4 l-2.2,-0.2 l-2.3,-0.6 l-1,0.1 l-0.6,0.4 l-0.4,0.3 l-0.2,0.1 l-0.5,0 l-7,-0.8 l-0.7,0.1 l-0.7,0.4 l-0.8,0.5 l-1.9,-1.8 l-1.1,0.2 l-1,0 l-1,0.4 l-0.5,0.3 l-0.1,0.4 l-0.1,1.2 l-0.2,1 l-1.7,2.7 l-0.5,0.5 l-0.4,0.1 l-0.5,-0.1 l-0.2,-0.2 l-0.3,-0.4 l-0.3,-1.4 l-0.5,-0.4 l-2.1,0.3 l-3.5,-0.1 l-3.6,-2.7 l-4.9,-0.8 l-0.6,-0.5 l-0.4,-0.6 l-0.6,-1.6 l-1.6,-1.6 l-1.6,-1 l-1.1,-1.9 l-0.6,-5.2 l-0.3,-0.9 l-0.6,-0.4 l-0.7,0.2 l-0.5,0.5 l-0.5,1.3 l-2,1.4 l-5.3,2.3 l-2.9,1.6 l-0.7,0.2 l-1.1,-0.2 l-0.9,-0.2 l-1.2,-0.6 l-1.5,-0.9 l-1.1,-0.3 l-8,-0.7 l-0.4,-0.2 l-0.3,-1.2 l-1.3,-2.3 l-0.3,-1.3 l0,-4.2 l3,-3.2 l0.3,-0.5 l1.4,-3.7 l1.2,-1.5 l1.2,-1.1 l3,-1.9 l2.9,-3 l0.4,-0.7 l0.9,-0.6 l4.1,-1.3 l1,-0.6 l0.7,-0.6 l0.5,-0.9 l0.9,-4.5 l0.1,-2.3 l3.3,-13.5 l0.2,-1.3 l-0.4,-1.1 l1.4,-2.4 l-0.2,-0.9 l0.2,-0.9 l0.9,-1.6 l0.8,-2.1 l0.5,-0.4 l0.4,0.2 l0.3,0.6 l0.4,0.6 l0.8,0 l0.7,-0.5 l-0.1,-0.7 l-0.3,-0.9 l0,-1 l0.6,0.3 l0.1,-0.5 l0.3,-0.3 l0.9,-0.6 l-0.3,0 l0.3,-0.6 l0.5,-0.4 l0.5,0 l0.6,0.3 l0.2,-0.6 l-0.3,-0.3 l-0.4,-0.3 l-0.2,-0.6 l0.2,-0.5 l0.5,0 l0.5,0.2 l0.4,0.4 l0.2,-0.3 l0.4,-0.4 l0.1,-0.3 l0.3,0.4 l0.4,0.2 l0.4,0 l0.5,-0.3 l-0.7,-0.9 l0.5,-0.6 l1.7,-0.6 l1.8,-0.9 l0.8,-0.6 l0.8,-0.7 l1.1,-1.8 l0.7,-0.5 l0.5,1.6 l0.4,-0.3 l0.5,-0.6 l0.1,-0.3 l0.6,-0.3 l0.7,-0.2 l0.3,0.1 l-0.3,0.7 l0.6,0.4 l0.5,-0.3 l0.4,-0.6 l0.4,-0.5 l0.6,-0.3 l1.9,0 l1.1,-0.3 l0.9,-0.7 l0.7,-0.9 l0.2,-1.1 l-0.3,-1.1 l0.5,-0.4 l0.3,-1.4 l0.9,-0.9 l0.4,-1.4 l0.5,0 l0.7,0.3 l0.6,0.2 l0.6,-0.2 l1.8,-1.5 l1.3,1.4 l0.6,0.3 l0.7,-0.3 l0.2,-0.5 l0.7,-2 l0.5,-0.3 l0.2,-0.1 l-0.3,-0.6 l-0.3,-0.6 l-0.2,-0.4 l0.1,-0.4 l0.5,0.1 l1,0.1 l0.8,-0.3 l-0.3,-0.9 l1.7,-0.5 l2,-0.8 l1.6,-1.1 l0.7,-1.4 l-0.4,-2.2 l0,-1.1 l0.6,-0.5 l0.8,-0.2 l1,-0.3 l0.9,-0.5 l0.6,-0.4 l0.8,-0.7 l0.5,-1.1 l0.2,-1.1 l-0.4,-1.1 l0.1,-0.5 l0.9,-0.4 l1,-0.3 l0.7,-0.3 l0.2,-0.3 l0.3,-0.8 l0.2,-0.3 l0.3,-0.2 l1,-0.3 l0.4,-0.4 l0.4,-0.6 l0,-0.4 l-0.2,-0.4 l-0.1,-0.6 l0.1,-0.7 l0.3,-0.5 l1.4,-1.8 l0.4,-0.3 l0.6,-0.2 l1.1,-0.1 l0.4,-0.2 l1.7,-2 l0.7,-0.6 l1.7,-1 l1.8,-0.5 l3.8,-0.3 l3,0.8 l0.7,-0.2 l1,-0.9 l0.8,-0.1 l0.9,0.1 l1.3,0 l1.6,-0.5 l3.3,-2 l2.1,-0.6 l1,-0.1 l0.9,-0.3 l0.7,-0.5 l0.2,-1 l0.5,-0.7 l1.1,0 l2,0.2 l0.8,-0.6 l1.1,-2 l0.4,-0.5 l0.2,-0.6 l-0.3,-3.5 l1.1,-1.4 l0.8,-0.9 l0.8,-0.5 l-0.1,-0.2 l1,-1.3 l0.4,-0.2 l5.6,-0.3 l0.9,-0.3 l0.7,-0.7 l0.9,-0.6 l1.2,-0.2 l2.6,0.6 l1.3,0.1 l0.9,-0.3 l0.3,0.2 l0.3,0.1 l0.7,0 l1,-0.5 l1.7,-1 l0.9,-0.2 l2.3,0.6 l1.2,0.1 l0.5,-0.5 l0.4,-0.8 l0.9,-0.2 l1.5,0.1 l1.8,-0.8 l0.9,-0.1 l0.9,0.6 l0.5,-0.2 l3.1,-0.2 l1,0.3 l2.7,1.8 l1.6,0.3 l1.1,0.7 l1.7,0.1 l0.6,0.2 l1.3,0.8 l0.5,0.2 l1,0.2 l0.4,0.2 l0.9,1 l0.2,0.4 l1.4,0.2 l0.6,0.2 l1.4,1 l1.1,0.6 l0.8,0 l2.1,-0.2 l1.1,0 l0.9,0.3 l0.7,0.4 l0.6,0.6 l1.5,1.1 l1.6,0.3 l1.7,0 l1.9,-0.3 l0.8,-0.3 l1.8,-0.8 l0.9,-0.3 l0.9,0 l3,0.3 l1.3,0 l0.4,0.1 l0.7,0.5 l0.4,0.1 l0.7,-0.2 l1.2,-0.9 l0.9,-0.3 l5.2,-0.4 l1.5,-0.6 l1.4,0.4 l2.7,0.3 l5.1,1.2 l1.6,0.7 l0.8,0.2 l0.8,-0.2 l1.5,-0.8 l0.7,-0.1 l0.5,0.3 l0.9,1.2 l0.4,0.2 l0.3,0.1 l0.7,0.5 l0.4,0.2 l0.4,-0.1 l0.7,-0.3 l0.5,0 l0.4,0.4 l1.1,1.6 l-0.4,0.9 l4.4,13.9 l7.5,23.4 l0.3,1.6 l-1,11.5 l0.3,2.1 l0.9,1.8 l4.4,4.8 l0.9,1.9 l1.8,6.3 l1.9,4.5 l0.7,1 l0.8,0.8 l3,2.3 l0.6,0.6 l0.2,0.8 l0.1,0.9  z " id="ZAF1210" name="Limpopo"></path><path d="M637.9 466.5l-0.2-0.3-0.7-0.5-0.2-0.5-0.1-0.8-0.2-0.6-0.4-0.3-0.7-0.4-0.2-0.3-0.1-0.4 0-1-0.1-0.4-0.3-0.5-0.1-1 0.1-0.8-0.1-0.4-0.2-0.5-0.5-0.7-1.1-0.8-0.6-0.1-0.2-0.4-0.1-0.6-0.1-0.6-0.4-0.4-0.2-0.1-1.2-0.1-0.6-0.3-0.5-0.5-0.7 0.2-0.6-0.2-0.2-0.4-0.3-0.6-0.2-0.3-0.5-0.3-0.2-0.7 0-0.3-0.2-0.4-0.7 0.2-0.2 0.1-0.4 0-0.5-0.1-0.9-0.5-1.1-1-1.6-1-0.7-0.6-0.1-0.3-0.2-0.3-0.3-0.2-0.9 0-0.4 0.1-0.4 0.4-0.2 0.1-0.6-0.4-0.7-0.2-1.1-0.6-0.7-0.1-0.5-0.3-0.7-0.3-1.6 0.4-0.7 0-0.4-0.2-1.1-0.8-1.5-0.5-3.3-2.4-0.3-0.1-0.5 0-0.5 0.2-0.9 0.6-0.5 0.2-0.3 0-2.1 0-0.5 0.3-0.3 0.4-0.4 0.3-0.3 0.1-0.6-0.1-1.2-0.4-1.6-1-7.3-2-0.4-0.2-0.4-0.3-0.1-0.5 0.1-0.9-0.2-0.8-0.2-0.4-0.3-0.2-3-1.5-0.4-0.1-0.2 0.1-0.4 0.3-0.1 0.7-0.1 1.6-0.1 0.7-0.3 0.5-0.2 0.1-0.3 0.1-4.4-1-0.5-0.3-0.4-0.6-1.1-1.8-0.3-0.2-0.9 0-0.7-0.2-0.2-0.1-0.4-0.6-0.4-1.1 0-0.5 0.5-1.9 0.1-0.6 0-0.4-0.8-1.4-0.2-0.3 0.1-0.5 0.2-0.6 1.2-2.9 0.4-0.1 3.1 1.4 0.3 0 0.4-0.3 0.5-0.6 0.9-1.5 0.4-0.5 0.4-0.1 0.6 0.2 0.3-0.1 0.3-0.3 0.6-0.9 0.6-0.7 0.7-0.4 0.4-0.3 0-0.4-0.4-0.8 0-0.4 0.4-0.4 0.6-0.2 0.5-0.3 0.6-0.5 0.5-0.1 0.9 0.2 0.3 0 0.2-0.2 0.7-1.1 0.1-0.3 1-0.8 0.3-0.6 0.1-0.8-0.1-0.5-0.2-0.4-2-1.8-2.3-3-0.4-0.6 3.7-2.2 0.5-0.3 1.3-0.4 0.5-0.2 0.3-0.5-0.1-0.5-0.5-1-0.1-0.8 0-0.5-0.1-0.3-0.6-0.5-0.7-1 0-1.2 0.3-1.5 0.1-1.3 0.9-1.6 0.5-1.5 0.8-1.3 1.3-1.1 3.6-1.1 0.5-0.7 0-0.9 0.1-0.8 0.8-0.5-0.7-0.9-0.3-1.2 0-1.4 0.3-1.1 1-1 1.3-0.6 1.4-0.4 1.2-0.6 0.6-0.4 0.3-0.4 0.3-0.6-0.1-0.8 0.1-0.9 0.9-1.2 0.1-0.8-0.1-0.3-0.6-0.6-0.2-0.3-0.1-0.4 0.1-0.8-0.1-0.3-0.4-1.2-1.3-1.7-0.5-1.9-0.4-0.9-0.6-0.7-0.8-0.6-0.5-0.6-0.2-3.1-1.4-0.6-1.9 0-1.5-0.5-3.8-4.1-1.6-0.7-1.1-0.3-0.6-0.4-0.3-0.7 0-1-0.4-0.6-1-0.4-1.1-0.3-0.7 0-2.5-2.6-1.9-3.3-0.6-0.7-0.6-0.6 0.3-0.6 1-2.5 0.2-1 0.4-0.7 1.2-1.1 0.2-0.5 0.1-0.5-0.1-1.1 0.2-0.4 0.2-0.4 0.9-0.8 0.7-0.9 3.2-1.2 2.4-0.5 0.3 0.1 1.1 0.3 0.7 0 0.5-0.1 0.8-0.3 0.5-0.2 0.5-0.2 0.3-0.2 0.2-0.6 0-0.8-0.3-0.7 0-0.3 0.2-0.5 0.5-0.7 1-1.1 0.2-0.1 0.8-0.4 2.4-0.4 1.6-2 0.6-0.4 0.6-0.3 1.2-0.4 0.8-0.5 0.7-0.7 3.1-4 0.3-0.2 0.5-0.3 0.6-0.1 2.7-0.2 0.5-0.1 0.4-0.4 0.3-0.5 0.5-1.3 0.4-0.7 0.6-0.7 1.3-0.9 0.3-0.7 0.3-1.6-0.2-0.9-0.3-0.5-0.3-0.4-1-0.8-0.5-0.7-0.1-0.6 0-0.5 0.3-0.7 0.5-1.3 0.6-1 0.4-0.3 0.1-0.3 0.1-0.4-0.1-2 0.1-0.7 0.3-0.4 0.5-0.8 0.3-0.7 0.8-2.1 0.5-0.9 0.1-0.3-0.1-0.7-0.6-0.6-0.2-0.5 0-0.8 0.2-2 0-0.7-0.2-0.5-0.6-0.9-0.3-0.5 0-0.3 0.1-0.7 0.5-0.7 0.7-0.5 2.6-1.4 0.2-0.2 0.1-0.4 0.1-0.6-0.2-1.3-0.2-0.6-0.2-0.4-0.2-0.2-1.6-0.5-0.2-0.1-0.2-0.3 0.1-0.4 0.2-0.7 0-0.4-0.1-0.3 0.2-0.5 2.2-1.1 1.2 0.5 0.5-0.2 0.3-0.4 0.4-0.6 0.5-1 0.3-0.9 0.4-0.8 0.4-0.3 0.6-0.2 0.8-0.2 1.9-0.5 0.6 0 0.7 0.4 2.5 0.5 0.6-0.1 0.8-0.7 0.7-0.3 3.6 1 1-0.2 0.3-0.7 0.4-0.3 2.5-1 0.4-0.2 1.4-1.1 0.9-0.6 0.6-0.1 1-0.5 0.7-0.2 1.1 0.1 0.2-0.2 0.5-0.5 0.5-0.4 0.7-0.1 0.8 0.2 0.4 0.3 0.1 0.9 0.2 0.5 0.7 0.4 2.8-0.4 3.3 0.5 1-0.1 0.7-0.8 0.4-0.2 0.6-0.3 1.3-0.4 0.8-0.1 0.6 0 1.6 0.5 0.6 0.2 0.6 0.5 0.3 0 1.7 0.9 1.1 0.7 0.7 0.3 0.4-0.1 0.4-0.3 0.6-0.4 1.8-0.4 0.7 0.4 0.5 0.8 1.2 0.9 1.2 0.2 3.7-1 2.1-0.6 2.1 0 1.7-1.4 2.7-3.4 9.9 3.5 3.2 0.6 20.4 0.3 0-0.7-0.1-0.6-0.2-0.6-0.4-0.5-0.2-0.8-0.3-8.1 1.6-9.1 0.8-4.6-0.1-1.5 3.1 0 0.7 0.2 1.2 1.1 0.7 0.3 1.4 0.3 2.3-0.2 1.4 0 6 1 5.4-0.2 19.7-0.5-0.6 2.1-0.7 6.8-0.9 3.3-0.1 1.1-0.2 1.1-1.7 2.3-0.1 0.5-0.2 1.5-0.1 0.4-0.4 0.8-0.2 1.4-4.9 13.9-3.2 15.3-0.1 1.2-0.1 0.5-0.4 1.3-0.1 0.5 0 0.7 0.2 1 0.1 0.5-2.2 13.1-0.3 1-3.9 6.2-0.3 0.8-0.2 1.2-0.5 1.1-0.8 0.8-1 0.3 0.1 0.6 0.2 0.1 0.6-0.3 0.4 1.8-0.5 2-0.8 1.9-0.4 1.7-0.6 1-4 4.1-0.6 0.5-1.5 0.7-0.6 0.4-0.4 0.6-0.9 1.5-0.6 0.8-5.1 4.4-1.3-1.1-1.8 0.3-1.1 1.2 1.1 1.4 0.3-0.4 0.7-0.6 0.7-0.4 0.8-0.1-0.9 1.7-1.8 1.6-5.8 3-1.6 0.4-1.8-0.1-2.1-0.4 0.2 0.8 0.1 0.2 0.3 0.1 0 0.4-1.4 0.8-9 10.4-2.2 2-0.7 0.4-0.3 0.2-0.1 0.3-0.2 0.9-0.2 0.2-0.6 0.4-1.8 2.6-0.6 0.6-1.6 0.9-0.6 0.6-0.3 0.5-0.2 1.2-0.6 0.3-0.4 0.4-0.3 0.4-0.4 0.9-6.1 8.5-6.1 12.2-0.5 2.1 0.5 2.1-1.8 0-0.5 0.4-0.2 1.4 0.7-0.3 1.6-0.6 0.6-0.5 0 0.4-0.3 0.7-0.4 0.7-1.2 1.4-4.8 4.5-1.4 1.7-2.2 3.9-2.6 6.1-6.7 12-0.9 2.2-0.2 0.8-0.4 0.7-2.2 2.4-7.9 14.8-1.3 1.9-0.7 0.8-0.7 0.3-0.6 0.5-1.5 3.2-4.3 5.8z m-22.9-53.9l-2.2-0.6-3.5-1.9-1.2-0.4-0.7 0-1.8-1.5-0.4 0.3-0.9 1.1 0.2 0.9 0.5 0.7-0.2 0.9-1.7 2.3-0.2 1.6 0.1 1.9 1.9 1.6 0.9 1.1 0.6 1.5 0.1 1.2 1.2 4 1.9 2.3 2.1 5.8 2.3 0.6 1.1 0 2.1-0.7 1.4-0.2 1.6 0.3 1.2 0.7 1.4 1.1 1 0.4 1.3 0.2 1.6 1.1 0.6 0.1 0.4-0.1 0.8-0.6 0.5-0.5 0.4-0.9 0.2-1.5 0.2-0.8 0.1-0.7 0.8-0.1 0.1-0.5 0-0.7-0.2-0.6 0-0.3 0.1-0.3 0.2 0 0.5 0.1 0.5 0 0.2-0.2 0.2-0.5 0.4-0.4 0.4 0.1 0.4 0.3 0.4-0.1 0-0.5-0.1-0.6-0.3-0.3-0.3-0.4-0.8-0.7-0.8-0.5-0.5-0.5-0.1-0.6 0.1-0.6 0.4-0.4-0.1-0.5-0.7-0.1-0.3 0-0.2 0.2-0.3 0.4-0.2 0.1-0.6-0.4-0.4-0.4 0-0.7-0.2-0.3-0.2-0.4-0.6-0.4-0.3-0.2-0.8-0.1-0.2-0.1-1.2-1.3-0.2-0.2 0.3-0.5 0.5-0.2 0.6 0.2 0.3-0.2-0.2-0.3-1-1-0.4-0.5-0.7-1.2-0.4-0.4-0.8-0.3-0.5-0.4-0.5-0.7-0.5-2.1-0.3-0.5-0.8-0.6-1.5 0.5-0.7 0-3.4-0.4z" id="ZAF1216" name="KwaZulu-Natal"></path><path d="M615 412.6l3.4 0.4 0.7 0 1.5-0.5 0.8 0.6 0.3 0.5 0.5 2.1 0.5 0.7 0.5 0.4 0.8 0.3 0.4 0.4 0.7 1.2 0.4 0.5 1 1 0.2 0.3-0.3 0.2-0.6-0.2-0.5 0.2-0.3 0.5 0.2 0.2 1.2 1.3 0.2 0.1 0.8 0.1 0.3 0.2 0.6 0.4 0.2 0.4 0.2 0.3 0 0.7 0.4 0.4 0.6 0.4 0.2-0.1 0.3-0.4 0.2-0.2 0.3 0 0.7 0.1 0.1 0.5-0.4 0.4-0.1 0.6 0.1 0.6 0.5 0.5 0.8 0.5 0.8 0.7 0.3 0.4 0.3 0.3 0.1 0.6 0 0.5-0.4 0.1-0.4-0.3-0.4-0.1-0.4 0.4-0.2 0.5-0.2 0.2-0.5 0-0.5-0.1-0.2 0-0.1 0.3 0 0.3 0.2 0.6 0 0.7-0.1 0.5-0.8 0.1-0.1 0.7-0.2 0.8-0.2 1.5-0.4 0.9-0.5 0.5-0.8 0.6-0.4 0.1-0.6-0.1-1.6-1.1-1.3-0.2-1-0.4-1.4-1.1-1.2-0.7-1.6-0.3-1.4 0.2-2.1 0.7-1.1 0-2.3-0.6-2.1-5.8-1.9-2.3-1.2-4-0.1-1.2-0.6-1.5-0.9-1.1-1.9-1.6-0.1-1.9 0.2-1.6 1.7-2.3 0.2-0.9-0.5-0.7-0.2-0.9 0.9-1.1 0.4-0.3 1.8 1.5 0.7 0 1.2 0.4 3.5 1.9 2.2 0.6z m22.9 53.9l-3.4 4.5-1.3 0.9-1.5 3.3-2.4 2.9-6.8 6.5-0.8 0.4-2.9 0.9-1 0.5-1 0.7-0.3 0.9-2.9 3.6-1 0.4-0.4 0.3-0.3 1.1-0.4 0.4-0.3 0.3-0.3 0.1-1 0.3-0.8 0.7-1.5 1.6-0.8 0.5-1.8 0.6-1.2 0.9-0.8 0.1-0.8 0.2-0.5-0.1-0.2 0.1-0.3 0.3 0.3 0.8-0.9 2-1.4 0.8-0.2 0.4-0.2 1.3-0.5 0.7-1.5 1.1-1.5 1.7-0.8 1-0.3 0.9-0.1 0.5-0.8 1.5-0.7 0.4-0.3 1.1-3 1.5-0.5 0.6-0.2 0.9-0.4 1-1.3 2-5.7 6.2-4.8 6.6-2.5 1.6-0.4 0.5-6.2 5.8-1.1 1.6-0.4 0.4-0.7 0.3-0.4 0.4-1.8 1.8-0.8 1.1-0.3 1-0.3 0.7-5.2 4-1.2 0.7-1.5 1.3-0.7 0.4-0.2 0.8-1.1 0.9-2.2 1.2-2.2 1.6-1.4 0.8-2.6 0.8-1.1 1.1-0.9 1.5-0.4 1.6-0.4 1.2-1 1.2-4.8 4-1.4 0.5-0.4 0.4-0.6 0.9-0.6 0.4-0.2 0.8-0.2 0.3-2.2 1-0.9 1-0.5 0.3-0.9 0.1-2.3 0.9-0.8 0.5-4.1 4.4-1.6 1.3-3.3 1.3-0.5 0.4-0.2 0.1-1.1 1.6-0.7 0.3-0.4 0-0.5-0.3-0.3 1.4-1.1 1.2-2.5 2.1-1.2 0.7-0.2 0-0.4-0.4-0.2 0.2-0.2 0.6-4.9 3.4-0.4 0.6-3.5 1.7-0.8 0.5-0.3 0.4-0.3 0.8-0.2 0.5-0.4 0.3-0.4 0.2-1 0.1-4 2.2-0.9 0.2-1.1 0.1-1 0.3-2.6 2.3-1 0.3-2.2 0.3-1.6 0.9-4.4 1.9-0.6 0.1-0.3 0.3-0.3 1-0.3 0.2-1 0.2-4.5 2.2-1.8 0.5-1.9 0.1-4-0.5-1.2 0-0.9 0.4-0.8 0.2-1.1-0.5-1.7-1-6.2-1.3-6.4-0.3-4 0.6-3.8 1.2-3.5 1.7-1.5 1.2-1.2 1.5-0.9 1.8-0.7 3.2-0.2 1.3 0.2 0.6 1 0.4 0.2 0.5 0.2 0.4 1.3 1 0.9 1.4 0.4 0.5-0.1 0.4-0.2 0.4-1.5-0.5-1 0.3-0.9 0.6-1.2 0.3-1.5-0.1-2.4-0.8-1.4-0.2-2.3 0.3-1.1 0-1.3-0.8-1.6-0.3-1.6-1.1-1.7-0.7-4-1.1-4.2-0.1-4.2 0.6-2.7 0.8-1.1 0.6-0.7 0.9 0.6 2.3-0.5 1.1-0.8 0.9-0.5 0.4-2.2 2.1-0.3 0.8 0.2 0.7 0.4 0.3 0.5 0.3 0.2 0.4-0.2 0.5-0.8 0.6-0.3 0.5-0.3 0-0.6-0.9-1-0.3-3.1-0.1-2.6-0.7-1.1-0.1-2.9 0.5-0.9-0.1-4-1-2-1.1-1.6-1.5-0.9-0.3-5.7-0.7-0.8-0.4-0.6-0.5-3-1.3-8.3-0.8-1-0.2-2-0.8-5-0.5-8-1.9 0-1.7 0-0.8 2.2-3.5-5.8-2.8-0.8-1.5-1.8-0.7-1.1-0.2-1.2 0.5-4.2-0.4 1.7-1.9 0.6-0.8 1-1.2 8.4-3.8 0.7-1.3-2.4-3.1-0.9-3.8-2.4-2-3.4-1.5-8.2-1.9-10.7-0.5-5.8 0.8-7.2-0.2-0.6-2.1 0.4-2 7.9-12.9 0.7-2.2-0.7-2.3 1.5-2.2 0.2-1.7 2.2-3 1-0.6 1.8-0.6 0.6-1.2 0-1.9-0.2-1.4 0.1-0.2 0.8 0.8 0.3 0.8 0.3 0.6 0.6 0.6 0.5 0 0.9-0.3 2.4-1.1 3.1-0.2 3 0.2 2-2.2-1.9-1.8-0.8-1.9-1.6-1.8 0.2-2.6-0.3-1.9-0.6-2.4-1.2-2.1 0-2.3 0.3-2.1 2.1-1.8 1.7-2 3.4 0.3 2.2-1.1 7.2-0.9 1.6-1 1.8-3.7 2.2-1.7 1.6-0.7 4.1 1.5 1.9 0.3 6.6-2.9 1.1-1.7 1.8-1.1 0.5-1.4-0.1-0.8 0-1.3 0.5-0.7 0.2-1 0-0.7 0.4-0.7 0.8-0.4 0.8-0.7 1.1-1.7-0.3-1.4-1-1.4-1.3-0.7 0.2-1.7 0.6-0.7 0.3-1.1 0.4-0.4-0.5-1.5 0.4-1.7 1.2-0.5 2.8 0 4.3-1.6 7.7-0.8 0.6-8.3 0.5-3 0.9-1.4 0.7-2.7 0-1.1 6.4-0.2 3.2-0.5 2-1.1 1.8-0.5 1.2-1.3 1.8-0.9 2.6-1.9 0.7-0.3 3.7-0.8 7.1-3.4 6.3 1.4 1.3-0.9 0.4-2.7 1.6-1.9 1.1-1.7 0.2-1.3 0.7-1 0.6-1.2-0.3-1.9 1.3-2 0.3-1.3-0.4-2.1-0.4-1.4 0.1-1.1 1.1-1.4 0.3-1.2-0.9-1.4-0.9-1.1-0.7-7.7 1.8-0.2 0.7 0 2.7-0.3 1.5 0.2 0.3 0.5 0.1 1.3 0.2 0.6 0.4 0.3 1.2 0.2 0.3 0.1 0.9 0.6 0.6 0.2 1.3 0.2 0.9-0.4 1.4-0.8 3-2.2 1-1.1 0.6-0.7-0.2-0.9 0-0.6 0.4-0.5 0.6-0.3 0.7 0.2 1.4 1.1 0.9-0.4 1.4-1.3 0.7-0.3 2.7-0.8 0.6 0 1.6 0.6 1.3 0.1 0.2-0.8 0-1 0.3-0.5 1.2 0.3 0.6 0.6 0.4 0.7 0.5 0.6 0.9 0.4 0.9 0.2 0.8 0.4 0.3 1.1 0.6 0.8 1.5 0.1 6-1.1 0.3 0.1 0.4 0.5 0.7 0.9 0.2 1.4 0.2 0.4 0.5 0.5 2 1.1 0.8 0.2 2.1 0 1 0.1 0.8 0.4 0 0.3-0.4 0.5 0.4 0 1-0.5 0.6-0.1 0.6 0.4 0.5 0.1 0.4-0.1 0.5-0.5 0.3-0.1 0.3-0.1 0.8 0.1 0.4-0.2 1-0.7 0.3-0.3 1.3 0.1 0.7 0.7 0.6 0.7 0.8 0.4 0.5-0.2 0.6-0.8 0.8-0.2 1.3 0 0.6-0.2 0.5-0.5-0.4-1 0.5-0.9 0.8-0.7 1-0.3 1.8 0.1 0.4-0.2-0.3-1-1-1-0.3-0.6 0.5-0.3 2.2-0.4 1 0.3 0.9 0.3 0.8 0.1 0.9-0.7 0.1-0.4-0.3-0.5 0-0.4 0.7-0.1 1.9 0.1 0.6-0.6 0.4-0.2 0.8-0.1 0.2 0 0.2-0.4 0.4 0.2 0.4 0.5 0.1 0.1 1 0.1 0.6-0.1 0.4-0.2 0.7-0.8 0.2-0.6-0.2-0.3-0.6-0.1-0.4-0.3-0.2-0.5 0.4-0.5 0.3 0 1.2 0.6 0.4 0.1 1-0.6-0.7-0.6-0.9-0.6 0.1-1 1-0.3 1 0.1 1-0.1 0.7-1-0.3-0.5-0.4-0.2-0.4 0-0.5 0.4-0.4-1.1-0.6-1.1 0.6-0.3 0.7-0.2 1 0.3 0.4 0.1 0.4-0.1 0.9-0.4 0.8 0 0.3 0.4 0.4 1.3 0.5 0.8 0.7 0.6 1.7 0.8 0.3 1.1 1.2 1.2 1.1 1.6 0.2 0.5 0.1 1 0.3 0.4 2.8 2.2 2.5 2.9 1.4 0.9 1.6 0.5 2 0.2 0.4-0.1 0.9-0.4 0.4-0.1 0.6 0.2 0.7 0.7 0.5 0.4 0.9 0.4 1 0.3 5.5 0.5 1.1 0.5 0-1-0.1-0.9-0.1-0.9 0.3-1.1 0.3-0.5 0.8-0.5 0.3-0.3 0.4-0.5 0.2-0.3 0.8-2.5 0-0.5-0.1-0.5-0.6-0.9-0.1-0.5 0.4-0.6 3.9-3.1 0.7-0.7 0.3-1.2-0.1-1.2-0.6-0.5-0.7-0.3-0.5-0.8 0.1-1 0.7-0.8 1-0.6 0.9-0.3 1.3-0.2 0.5-0.2 0.3-0.3 0.6-0.9 0.4-0.3 0.7-0.7 1.2-2.3 0.9-0.8 1.1-0.2 2.3 0.4 1.1-0.4 2-1.3 0.8-0.1 0.8 0 2.2 0.9 1.6 0 4.2-1.6 3-0.6 3-1.3 5.4-3.5 1.8-1.2 0.4 0.6 2.3 3 2 1.8 0.2 0.4 0.1 0.5-0.1 0.8-0.3 0.6-1 0.8-0.1 0.3-0.7 1.1-0.2 0.2-0.3 0-0.9-0.2-0.5 0.1-0.6 0.5-0.5 0.3-0.6 0.2-0.4 0.4 0 0.4 0.4 0.8 0 0.4-0.4 0.3-0.7 0.4-0.6 0.7-0.6 0.9-0.3 0.3-0.3 0.1-0.6-0.2-0.4 0.1-0.4 0.5-0.9 1.5-0.5 0.6-0.4 0.3-0.3 0-3.1-1.4-0.4 0.1-1.2 2.9-0.2 0.6-0.1 0.5 0.2 0.3 0.8 1.4 0 0.4-0.1 0.6-0.5 1.9 0 0.5 0.4 1.1 0.4 0.6 0.2 0.1 0.7 0.2 0.9 0 0.3 0.2 1.1 1.8 0.4 0.6 0.5 0.3 4.4 1 0.3-0.1 0.2-0.1 0.3-0.5 0.1-0.7 0.1-1.6 0.1-0.7 0.4-0.3 0.2-0.1 0.4 0.1 3 1.5 0.3 0.2 0.2 0.4 0.2 0.8-0.1 0.9 0.1 0.5 0.4 0.3 0.4 0.2 7.3 2 1.6 1 1.2 0.4 0.6 0.1 0.3-0.1 0.4-0.3 0.3-0.4 0.5-0.3 2.1 0 0.3 0 0.5-0.2 0.9-0.6 0.5-0.2 0.5 0 0.3 0.1 3.3 2.4 1.5 0.5 1.1 0.8 0.4 0.2 0.7 0 1.6-0.4 0.7 0.3 0.5 0.3 0.7 0.1 1.1 0.6 0.7 0.2 0.6 0.4 0.2-0.1 0.4-0.4 0.4-0.1 0.9 0 0.3 0.2 0.2 0.3 0.1 0.3 0.7 0.6 1.6 1 1.1 1 0.9 0.5 0.5 0.1 0.4 0 0.2-0.1 0.7-0.2 0.2 0.4 0 0.3 0.2 0.7 0.5 0.3 0.2 0.3 0.3 0.6 0.2 0.4 0.6 0.2 0.7-0.2 0.5 0.5 0.6 0.3 1.2 0.1 0.2 0.1 0.4 0.4 0.1 0.6 0.1 0.6 0.2 0.4 0.6 0.1 1.1 0.8 0.5 0.7 0.2 0.5 0.1 0.4-0.1 0.8 0.1 1 0.3 0.5 0.1 0.4 0 1 0.1 0.4 0.2 0.3 0.7 0.4 0.4 0.3 0.2 0.6 0.1 0.8 0.2 0.5 0.7 0.5 0.2 0.3z" id="ZAF1926" name="Eastern Cape"></path><circle cx="449.9" cy="416.3" id="0"></circle><circle cx="462.7" cy="237.7" id="1"></circle><circle cx="557.7" cy="209.2" id="2"></circle><circle stroke="#072F26" cx="88px" id="capetown" stroke-width="3px" cy="621.5px" fill="#072F26" r="4px" transform=""></circle><circle stroke="#072F26" cx="96px" id="capeofgoodhope" stroke-width="3px" cy="651px" fill="#072F26" r="4px" transform=""></circle><circle stroke="#072F26" transform="" id="durban" stroke-width="3px" cy="400.5px" fill="#072F26" r="4px" cx="678px"></circle><circle stroke="#072F26" transform="" id="stlucia" stroke-width="3px" cy="323.5px" fill="#072F26" r="4px" cx="744.5px"></circle><circle stroke="#072F26" cx="539.5px" id="johannesburg" stroke-width="3px" cy="203.5px" fill="#072F26" r="4px" transform=""></circle><circle stroke="#072F26" cx="97.5px" id="simonstown" stroke-width="3px" cy="637.5px" fill="#072F26" r="4px" transform=""></circle><text stroke="none" style="outline-style:none;" id="capetown-label" stroke-width="1px" x="132px" text-rendering="geometricPrecision" font-family="Helvetica" fill="#000000" font-size="14px" y="625.5px" transform="" text-anchor="middle">Cape Town</text><text stroke="none" style="outline-style:none;" id="durban-label" stroke-width="1px" x="710px" text-rendering="geometricPrecision" font-family="Helvetica" fill="#000000" font-size="14px" y="405px" transform="" text-anchor="middle">Durban</text><text stroke="none" style="outline-style:none;" id="stlucia-label" stroke-width="1px" x="707.5px" text-rendering="geometricPrecision" font-family="Helvetica" fill="#000000" font-size="14px" y="328px" transform="" text-anchor="middle">St. Lucia</text><text stroke="none" style="outline-style:none;" id="mbabne-label" stroke-width="1px" x="716px" text-rendering="geometricPrecision" font-family="Helvetica" fill="#000000" font-size="14px" y="219px" transform="" text-anchor="middle">Mbabane</text><text stroke="none" style="outline-style:none;" id="hazyview-label" stroke-width="1px" x="721px" text-rendering="geometricPrecision" font-family="Helvetica" fill="#000000" font-size="14px" y="171px" transform="" text-anchor="middle">Hazyview</text><text stroke="none" style="outline-style:none;" id="dullstroom-label" stroke-width="1px" x="578px" text-rendering="geometricPrecision" font-family="Helvetica" fill="#000000" font-size="14px" y="164.5px" transform="" text-anchor="middle">Dullstroom</text><text stroke="none" style="outline-style:none;" id="kruger-label" stroke-width="1px" x="673.5px" text-rendering="geometricPrecision" font-family="Helvetica" fill="#000000" font-size="14px" y="120px" transform="" text-anchor="middle">Kruger Park</text><text stroke="none" style="outline-style:none;" id="johannesburg-label" stroke-width="1px" x="486px" text-rendering="geometricPrecision" font-family="Helvetica" fill="#000000" font-size="14px" y="208.5px" transform="" text-anchor="middle">Johannesburg</text><circle stroke="#072F26" cx="678px" id="mbabane" stroke-width="3px" cy="214.5px" fill="#072F26" r="4px" transform=""></circle><circle stroke="#072F26" cx="682px" id="hazyview" stroke-width="3px" cy="166.5px" fill="#072F26" r="4px" transform=""></circle><circle stroke="#072F26" transform="" id="dullstroom" stroke-width="3px" cy="160px" fill="#072F26" r="4px" cx="620.5px"></circle><circle stroke="#072F26" transform="" id="kruger" stroke-width="3px" cy="133.5px" fill="#072F26" r="15px" cx="722.5px"></circle><text stroke="none" style="outline-style:none;" id="simonstown-label" stroke-width="1px" x="151px" text-rendering="geometricPrecision" font-family="Helvetica" fill="#000000" font-size="14px" y="642px" transform="" text-anchor="middle">Simon's Town</text><text stroke="none" style="outline-style:none;" id="capeofgoodhope-label" stroke-width="1px" x="65px" text-rendering="geometricPrecision" font-family="Helvetica" fill="#000000" font-size="14px" y="653px" transform="" text-anchor="middle"><tspan id="tspan1" dy="0" dx="0" rotate="0">Cape of</tspan><tspan id="tspan2" dy="1em" dx="-4.2em" rotate="0">Good Hope</tspan></text></svg>