<?xml version="1.0" standalone="yes"?><!--
************* Copyright (c) 2017 Pareto Softare, LLC DBA Simplemaps.com *******************             
************* Free for Commercial Use, full terms at  http://simplemaps.com/resources/svg-license ************
************* Attribution is appreciated! http://simplemaps.com ***************************
--><svg xmlns="http://www.w3.org/2000/svg" stroke="#ffffff" style="zoom: 1;" stroke-width="2" baseprofile="tiny" version="1.2" width="450(null)" fill="#7c7c7c" stroke-linecap="round" viewbox="0 0 1000 1298" stroke-linejoin="round" height="650(null)" cursor="crosshair"><g></g><path d="M56.8,405.5 l0.6,1.2 l-0.9,0 l-0.3,0.3 l-1.2,-0.8 l0.5,-0.9 l-0.8,-1.2 l0.4,-0.3 l0.8,0.6 l0.9,1.1  z m6.1,-8.9 l0.7,0.4 l1.2,-0.1 l0.9,1.5 l-0.4,1.3 l-0.7,-1.1 l-2.2,-1.4 l0.5,-0.6  z m-2.1,-3.3 l1.3,1.3 l-0.5,0.5 l-0.8,-0.7 l-1.5,-0.2 l0.6,-0.8 l0.9,-0.1  z m20.9,-3.2 l0.3,0.4 l-1.1,0.3 l-0.2,0.7 l-0.8,-0.4 l0.1,-0.5 l1.2,-1.1 l0.5,0.6  z m-18.7,1.1 l-0.7,-0.1 l-0.1,-1.1 l0.8,-1.2 l1.3,-0.2 l-0.7,2 l-0.6,0.6  z m118.9,-19.1 l-0.3,0.6 l-0.8,0.6 l-0.4,-0.8 l0.4,-0.7 l1.2,-0.2 l-0.1,0.5  z m135.6,-4.3 l-2.1,0 l-0.1,-0.9 l1.3,0 l0.9,0.3 l0,0.6  z m14.7,-0.9 l-4.9,0.3 l-2.3,-1.5 l0.3,-0.7 l2.1,0.5 l1.6,0.9 l0.8,0.3 l2.4,0.2  z m-55.5,-5.9 l-0.2,0.3 l-1.7,0 l-0.7,-0.6 l0.3,-0.5 l2,0.6 l0.3,0.2  z m3.8,-1.6 l-0.6,0.5 l-1.7,0.2 l-0.5,-0.4 l0.6,-0.6 l1.1,0.3 l0.6,-0.7 l0.5,0.7  z m-3.3,-1.1 l0,0.8 l-2.3,0 l0.8,-0.9 l1.5,0.1  z m7.5,0.7 l-0.7,0.1 l-1.4,-0.3 l2.3,-1.1 l0.5,0.3 l-0.7,1  z m-11.3,-0.2 l-0.3,0.3 l-1.1,-0.3 l-2.5,0.3 l-0.6,-0.3 l-0.3,-0.7 l1,-0.7 l1.8,0.7 l1.6,0.2 l0.4,0.5  z m-42.9,32.9 l0,48.2 l0.5,0.7 l9.9,8.1 l11.2,9 l11.2,8.8 l13.3,10.5 l13.4,10.2 l11.2,8.6 l13.9,10.4 l7.7,5.7 l1.6,0.1 l17.8,0 l0.9,-0.1 l0.8,0.5 l4.6,5.8 l7.3,9.1 l1.5,1.5 l2.6,1.7 l2.8,0.9 l5.5,0.9 l23.5,4.3 l20.6,3.8 l26.2,4.7 l2.5,0.4 l0.4,0.3 l0.1,2.6 l0,2.6 l-0.2,4.6 l0.1,92.5 l-90.3,0 l-112.9,0 l-43.1,0 l-0.3,-0.5 l-0.6,-0.4 l-1.1,0.5 l-0.4,-0.5 l0.5,-1.3 l-0.4,-1.4 l-0.7,-0.9 l-1.3,-3 l-0.2,-1 l0,-2 l-0.8,-0.5 l-1.5,0.1 l-0.3,-1.7 l-0.3,-0.6 l-1.2,-1.4 l-0.5,-1 l0.2,-0.8 l1.1,-1 l0.3,-0.6 l-0.6,-1.5 l-0.4,-2 l-0.3,-0.6 l-0.8,0.2 l-1.8,-0.1 l-0.5,0.8 l0,1.4 l-0.3,0.2 l-1.4,-0.1 l-1.6,0.2 l-1.8,1.5 l-1,0 l-1.6,-0.8 l-1.9,-0.3 l-1.2,-1.1 l-0.9,-0.3 l-0.6,0.6 l-0.4,1.3 l-1.1,0 l-0.3,-1.2 l-1.2,0.1 l0,0.9 l-0.2,0.8 l-1.7,0.2 l-1.3,-0.8 l-0.7,0.3 l-1,1.2 l-1.5,-0.8 l-0.7,0.5 l-0.4,-0.5 l0.1,-1.1 l-0.4,-0.5 l-0.1,-1.4 l0.3,-0.6 l-0.4,-1.4 l0,-1.2 l-0.7,-0.4 l-0.8,0.5 l-0.3,-1 l0.9,-0.9 l-0.2,-0.6 l0.3,-0.8 l-0.3,-1.8 l-0.4,-1.4 l-0.1,-1.3 l-0.6,-0.7 l-0.2,-1.3 l-1.9,-1.4 l-0.8,0.4 l-1.7,-0.1 l-1.4,-0.8 l-0.5,-1.1 l-0.8,-0.3 l-0.7,-0.6 l-0.9,-1.2 l-0.6,-0.3 l-0.4,-0.9 l0,-0.9 l-0.7,-1.7 l-0.5,-0.5 l-1,0.3 l-0.4,-0.6 l-0.1,-1.1 l-0.5,-0.9 l-1.1,-0.9 l-0.1,-1.2 l-0.8,-0.5 l-0.9,-1.4 l-1.6,0 l-0.4,0.4 l-0.5,1 l-0.9,-0.2 l-0.4,-1 l-1.3,-0.6 l-1.5,0.5 l-1.7,-1.4 l0.7,-0.5 l-0.7,-1.7 l-0.3,-1.4 l0.4,-0.8 l0.6,-0.5 l-0.7,-0.5 l-0.3,-0.7 l0.4,-0.8 l1.1,-0.5 l-0.3,-0.7 l-1.5,-0.7 l-1.3,-1.4 l-1.2,0.6 l0,-0.6 l0.7,-0.4 l-0.4,-1.7 l-1.1,-0.7 l-0.1,-1.2 l-0.8,-1.7 l-0.7,-0.7 l0,-0.8 l0.5,-0.6 l0.2,-1 l0.5,-1.3 l0.7,-1.1 l-0.2,-0.7 l-1.4,0.2 l-1.2,-0.7 l-0.5,-2.3 l-1,-0.5 l-0.6,-1.4 l-1.3,-0.3 l0.2,-1.1 l0.7,-0.6 l1.1,-0.3 l0.6,-0.5 l0.3,-2.1 l0.8,-0.6 l-0.8,-2.1 l-0.7,-0.5 l-0.3,-1.1 l-1.2,-0.1 l-0.2,-0.8 l0.2,-0.7 l-0.5,-0.4 l-1,0.9 l-0.6,-0.1 l-0.5,-1.1 l0.4,-0.6 l0.9,-0.5 l0.8,0 l0.4,-0.6 l-0.5,-0.7 l-0.9,0.1 l-1.6,-0.9 l-0.8,-1.3 l-1.3,-1.1 l-0.8,-0.2 l-1.4,-0.8 l-0.4,-1 l0,-1 l-1,0.2 l-0.1,-1.1 l-0.6,-0.7 l-0.2,-1 l0.8,-1 l-0.7,-0.5 l-0.4,-1.4 l-1,-0.4 l0.6,-1.2 l-0.6,-0.7 l-0.1,-0.6 l-0.9,-1.3 l-1.2,-0.2 l-1.3,-0.9 l-0.4,0.1 l-0.2,1.2 l-2.2,1.2 l-0.7,-0.6 l-1.4,0.4 l0,-1.3 l1,-1.6 l0.4,-0.9 l-0.6,-0.6 l-1.3,-0.3 l-1.1,-1.2 l-1.2,-2.5 l-1.2,-0.2 l-1.8,-1.7 l-1.9,-0.4 l-0.9,0.2 l-0.6,-1.2 l0.4,-0.7 l0.9,-0.4 l0.2,-1.1 l-0.3,-1 l0.2,-0.8 l0.7,-0.3 l0.3,-0.8 l0.8,-0.5 l-0.2,-1 l-0.4,-0.4 l-0.8,0.1 l-1.1,-0.6 l0.3,-1.5 l-0.7,-0.9 l-0.4,0.5 l-1,0.5 l-0.6,-0.5 l0.5,-0.5 l0.1,-1 l0.8,-1.2 l1,-0.3 l0,-1.1 l0.7,-1.3 l1.9,-1.8 l0.6,-2.9 l1,-1 l0.1,-0.6 l-0.5,-1.5 l-0.7,-0.8 l-0.1,-0.8 l-0.9,-1.5 l-2.2,-2 l0,-0.6 l0.6,-1 l1.9,-1.1 l-0.1,-1.3 l-0.4,-0.2 l-1.1,0.5 l-0.4,-0.3 l-0.5,-1.1 l-1.1,0.3 l-0.7,1 l-0.6,0.4 l-0.3,1.1 l-0.6,0.5 l-0.9,0.1 l-0.6,-0.5 l0.8,-1.5 l0,-1.3 l-2.3,0.1 l-1.8,1 l-0.7,0.1 l-0.1,0.5 l-0.8,0.6 l-0.9,-0.4 l-1.2,-0.1 l-0.2,-0.7 l0.2,-1.8 l-1.1,-0.6 l0.5,-1.3 l1.1,-1 l0.1,-0.7 l-0.2,-1.2 l0.1,-1.1 l-0.2,-0.9 l-0.6,-0.3 l-1.4,0.2 l-0.7,-0.4 l0.6,-2 l0.1,-1.5 l0.3,-0.5 l0.9,0.5 l0.2,-0.7 l-0.5,-1.1 l0.1,-1 l0.8,-0.7 l-0.1,-0.6 l-0.9,-0.5 l-0.2,-0.8 l-0.8,-0.9 l0.3,-0.6 l-0.9,-1.3 l0.6,-1.2 l0.2,-0.9 l-0.7,-0.9 l-0.2,-1 l-1,-1.4 l-1.6,-0.9 l-0.2,-0.6 l0.7,-0.6 l1.7,0 l0.5,-0.5 l-26.3,0 l-0.7,-1.8 l0,-1.6 l0.2,-0.8 l-0.3,-1.2 l1.1,-1.1 l0.2,-1.4 l0.2,-0.7 l-0.4,-1.8 l0.2,-0.5 l-1,-0.9 l0.4,-2.5 l-0.2,-2.1 l-0.4,-1.2 l-0.6,-0.9 l-1.5,-0.5 l-0.4,-2.2 l0,-15.4 l0,-20.8 l2.3,0.7 l2,0 l2.1,1.1 l1.1,0.9 l0.2,0.8 l0.7,0.7 l0.7,0.4 l1.4,0.2 l1.5,2.5 l1.8,-0.7 l-1.1,-0.9 l-0.5,-1.7 l-1.1,-0.6 l-0.5,-1.4 l-0.7,-0.5 l-0.7,-1 l0.3,-0.6 l-2.5,0.3 l-0.5,-0.2 l-1.5,-1.2 l0.1,-0.6 l0.8,-0.1 l-0.8,-1.5 l0.1,-0.8 l0.8,0.1 l0.7,0.9 l0.9,0.6 l1,0 l-0.7,-2.2 l-2,-1 l-0.2,-0.4 l-0.3,-3.7 l0.4,-1 l0.4,0 l1.3,1.5 l0.3,0.7 l1.9,1.9 l1.3,0.3 l-0.1,-0.5 l-1.7,-0.7 l-2.3,-3.5 l-0.2,-0.9 l0.1,-0.6 l0.9,-0.6 l0.9,-0.1 l0.5,1.5 l0.6,1.6 l0.3,-0.1 l-0.6,-2.9 l0.5,-0.5 l1.5,0.3 l1.1,1.4 l1.8,0.9 l0.1,-0.6 l-0.6,-0.5 l-0.7,-3.8 l0.2,-0.9 l1.3,-1.2 l1.3,-0.3 l1,0.4 l1,-0.5 l1.3,0.5 l1.2,-0.2 l1.2,1.1 l0.6,0.2 l0.6,-0.7 l0.1,-1 l-0.4,-0.7 l-0.5,0 l-0.7,1.2 l-0.4,-1 l0.1,-1 l0.8,0.2 l0.3,-0.9 l0.5,-0.9 l0.4,-1.5 l0,-0.6 l-1,-2.1 l0.8,0.2 l0.6,-0.4 l0.6,0.1 l-0.2,1.7 l1.3,-0.3 l0.8,1.6 l-0.5,0.4 l0.2,1.7 l0.6,0.7 l1,-0.5 l0.4,1 l1,0.6 l1.3,-0.5 l0.1,1.1 l-0.7,1.3 l-2,2.2 l-0.7,1.3 l-0.1,1.5 l-0.8,0 l-1.1,1.8 l-0.1,1.4 l0.4,0.5 l0.5,-1.8 l0.8,-0.9 l1.4,-0.2 l1.3,-0.9 l0.5,-1.5 l1.5,0.2 l0.1,-0.8 l0.8,-1.1 l1.9,-0.6 l3,0.1 l1.2,-1 l0.4,-1 l0.5,-0.3 l0.4,-1 l-0.1,-0.6 l0.3,-1 l-0.4,-0.8 l0.5,-1.4 l0.7,-0.8 l1.3,0 l-0.3,0.6 l0.8,0.1 l0.6,-0.6 l0.7,0.2 l0.9,0.6 l1.6,-0.5 l0.4,-0.4 l0,-1 l-0.9,0.2 l0,-0.7 l-1.3,0.8 l-0.4,-0.4 l0.4,-1.6 l0.7,0.2 l2.2,0 l-0.3,0.7 l2,0.9 l0.5,-1.3 l1.1,-0.4 l0.8,-1 l1,0 l0.7,-0.9 l0.3,-1.3 l1.5,-1.3 l1.9,-0.6 l0.3,-1.8 l1.9,0.3 l0.6,1.9 l1.3,-0.3 l0.7,-2.3 l0.3,-1.6 l-0.1,-0.8 l0.7,-1.5 l0.8,-0.2 l1.3,-0.8 l0.4,1.1 l0.7,-0.7 l0,-0.9 l1.4,-0.9 l0,1.3 l0.6,-0.2 l0.9,-0.8 l0.9,0.1 l0.1,2 l0.7,-0.2 l0.8,-0.7 l-0.1,1.5 l0.3,0.1 l0.7,-1.6 l0.5,0.8 l1.4,0.2 l0.9,-1 l-0.1,-0.9 l0.8,-1.6 l-0.2,-0.3 l0.3,-1.1 l0.9,-1.4 l0.6,0.5 l0,1 l0.7,0.9 l-0.3,0.8 l0.8,0.1 l0.4,0.6 l0.6,0.1 l0.6,0.8 l-0.3,1.4 l-0.4,0.8 l-1,0.4 l0.7,0.4 l-1.2,1.3 l-1.3,0.7 l-0.5,0.5 l-4,2.9 l-0.9,0.3 l-0.9,0.6 l-0.5,-0.3 l-1.1,1.6 l-0.7,0.7 l-0.6,-0.1 l-0.5,0.7 l-0.2,1.7 l-0.9,0.6 l-1.1,0.2 l-0.8,1.7 l-0.1,0.8 l-1.1,1.3 l-0.8,-0.8 l-0.8,-1.3 l-0.9,-0.1 l-0.6,0.8 l-1.4,0.2 l0.1,0.9 l-1.2,-0.4 l-0.7,0.6 l-1.9,-0.2 l-1.7,0.6 l-0.8,0.7 l-1,0 l-1.1,1.7 l0.3,0.8 l-0.5,0.3 l-0.5,1.1 l0.7,0.9 l-0.4,0.8 l-2.5,1.5 l0.2,1.5 l-0.3,0.4 l-0.5,-1.8 l-0.5,0.3 l0,1.6 l-0.8,0.7 l-0.1,-1.2 l-0.4,-0.7 l-0.8,0 l-0.6,0.9 l-1.1,0.2 l0,0.6 l-0.7,0.4 l0,1.2 l-0.9,1.8 l0.3,1.2 l-0.3,1.5 l0.3,1.7 l-0.5,-0.3 l0.1,-0.7 l-0.3,-0.7 l-1.6,-0.9 l-0.4,0.7 l-0.9,0.4 l-0.1,2.9 l-0.4,1.2 l-1,1.3 l-0.7,-0.8 l-0.8,0 l0.5,1.1 l-0.8,0.5 l0.5,1.6 l1.3,0.9 l0.4,0.5 l0.7,0.2 l0.7,0.7 l1.2,0.7 l0.7,-0.4 l-1.6,-0.5 l-0.1,-0.6 l-1.1,-0.7 l0.5,-0.3 l-0.7,-1 l-0.7,-0.4 l-0.6,-0.8 l1.5,-0.6 l0.6,0.2 l0.9,1.4 l1,-0.4 l0.8,0.7 l0,-1.3 l0.3,-0.6 l0.8,0.5 l1.1,1.1 l0.7,-0.8 l2.2,1 l0.6,-1 l0.4,0 l0.3,-0.9 l-1.1,-1.2 l-0.6,-0.5 l-0.4,0.9 l-0.8,0.4 l-0.3,1 l-1,0 l0.1,-0.9 l-0.8,-1.4 l0.2,-0.5 l1.6,0.3 l-0.8,-1 l-1.2,-0.8 l-0.1,-1.5 l0.3,-0.4 l-0.4,-0.9 l0.8,-0.6 l1.5,0 l0.9,-1.2 l2.4,-0.6 l0.2,-2.2 l0.6,0.4 l1.5,-0.3 l0.1,-1 l0.8,0.4 l0.6,-0.7 l0.6,0 l0.5,-1 l0.6,0.1 l0.8,-1.2 l0.6,-1.6 l0.1,-1 l-1.1,0.8 l-0.2,-0.8 l-0.6,-0.3 l0.5,-0.7 l0.5,0.4 l0.8,-0.4 l1.3,0.2 l-0.4,-0.7 l0.3,-0.8 l0.7,0 l1.3,0.6 l0.5,0.7 l-0.7,1.1 l0.2,1.8 l0.7,-0.9 l0.4,-2.7 l1.6,-0.9 l0.3,2.4 l-0.1,0.7 l-1.1,0.8 l-0.5,0.9 l0.4,0.3 l0.7,-1.3 l0.7,-0.2 l0.5,-0.7 l-0.1,-1.1 l0.2,-0.7 l-0.1,-1.5 l-0.9,-1.5 l-0.2,-1.3 l1.6,2.5 l-0.2,2 l0.5,0.9 l0.3,-2.1 l-0.3,-1.7 l-1,-1.2 l-0.2,-0.7 l0.4,-0.8 l0.6,-0.1 l0.2,0.7 l-0.2,0.7 l0.6,1.5 l0.2,2.2 l0.7,-0.5 l-0.3,-1.3 l0.6,-0.5 l0.1,3.5 l-0.7,1.9 l-0.5,0.4 l0.4,0.6 l0.8,-1.9 l0.4,0.3 l-0.1,1.3 l-0.3,1.1 l-0.6,1.2 l0,0.8 l-0.4,1.3 l0.2,2.1 l0.4,-0.2 l0.4,-2.2 l-0.2,-1.5 l0.9,-2.1 l0.9,-0.8 l-0.4,-0.9 l0.9,-0.9 l0.7,-0.3 l0.5,-1.4 l-1.2,0.2 l2.4,-2.8 l0.9,-1.2 l0,-1 l0.7,-1.2 l0.6,-1.8 l2,-0.3 l2.4,-1.4 l0.6,0 l2.2,-1.1 l1.1,-1.2 l1.1,0 l0.7,-0.4 l3.7,-0.6 l0.9,-1.1 l0.5,-1.7 l0.8,-1.2 l0.4,0 l-0.3,2.2 l-0.5,0.5 l0.3,1.6 l-2,0 l-0.7,0.5 l0.5,1.8 l-0.3,2 l0.4,0.7 l0.9,0 l0.5,0.5 l0.9,-0.3 l-0.7,-1 l0.7,-1 l1,-0.1 l0.6,-0.5 l0.9,-1.4 l1.1,-1.9 l1.9,-2.2 l1,-0.5 l0.3,-1.3 l0,-1.1 l-0.4,-0.6 l-0.2,-1.9 l0.3,-1.1 l0.8,-0.3 l0.7,-0.8 l1.1,-0.8 l1.3,0.2 l0.8,-0.7 l1.2,-0.2 l2.6,-0.9 l0.1,-0.5 l-3.3,-0.7 l-1.8,-0.7 l-0.7,-1.6 l0.1,-0.9 l1.4,0.7 l0.4,-1.3 l-0.2,-0.6 l-1.4,0.8 l-1.3,0 l-0.2,-0.7 l0,-1.6 l0.4,-1.6 l1,-2.2 l1.2,-0.9 l0.5,0.7 l2.6,2.2 l2.8,3.2 l2.4,3.2 l1.1,1.9 l0.2,1 l0.7,1.4 l0.7,2.4 l0.7,1.5 l0.7,2.1 l0.8,0.6 l0.4,1.6 l-0.5,0.8 l1.2,4.7 l0.6,1.2 l4.2,5.9 l0.4,0.8 l0.8,0.5 l0.4,0.8 l2.2,2.2 l1.5,0.9 l1.1,-0.2 l1.1,0.7 l0.2,0.6 l1.7,1.1 l0.8,-1.1 l-0.4,-0.9 l-0.7,-0.6 l3.5,0.4 l0.5,-1.1 l-0.4,-1.1 l-1.7,-0.6 l-1.8,0.6 l-0.9,0.7 l-0.8,0.1 l1.5,-2.7 l3.4,0.7 l-1.1,-1.4 l0.3,-1.9 l-1.9,-0.3 l0.5,-0.7 l-0.5,-0.5 l0.5,-1.7 l0.4,-0.3 l1.2,0.3 l1,-1.1 l1.3,-0.7 l0.7,0.5 l0.2,2.2 l0.8,-0.4 l0.2,-1.1 l-0.1,-0.9 l-0.6,-0.4 l-1.8,-0.2 l-1,-0.6 l-0.8,0.2 l-0.5,-1.3 l1.2,-1.6 l0.2,2 l1,0 l0.5,-0.8 l0,-1.4 l0.6,-0.7 l0.9,-1.8 l2.1,-1.1 l0.8,0 l0,-0.8 l-0.7,-0.6 l-0.4,1.4 l-0.7,0 l-0.7,-0.5 l0.5,-0.9 l-1,0 l-0.2,0.6 l-0.8,-0.4 l-1.5,1.6 l0.1,0.6 l-1.2,-0.1 l0.4,-0.9 l-0.2,-1 l0.9,-1.1 l1,-0.8 l0.6,0.5 l0.7,-0.2 l1.1,-0.6 l0.5,0.2 l1.2,-0.5 l0.9,1.4 l0.7,-0.8 l0.9,0.6 l0.4,-0.3 l-1,-1.8 l-1,-0.3 l-1.3,0.8 l0.1,-0.9 l-0.6,-0.4 l0.6,-0.7 l1.1,0.2 l0.4,-0.4 l0.7,0.4 l1.1,-0.3 l0.3,0.5 l-0.7,1 l0.6,0.5 l0.3,0.8 l-0.1,1 l-0.5,0.9 l-0.7,-0.2 l-0.1,2 l0.6,0.1 l0,0.9 l-0.8,0.4 l0.7,0.8 l-0.1,0.6 l0.6,0.5 l-0.6,0.8 l-0.5,1.5 l0.2,1 l-0.3,0.7 l0.3,0.5 l0.7,-0.1 l0.6,0.7 l0.9,0.1 l0.9,-1.1 l1.5,0.2 l0.4,0.6 l-0.4,1.4 l-1.3,1.1 l-0.3,0.5 l-0.1,1.4 l-0.5,1.2 l-0.9,0.7 l-0.9,1.3 l-0.2,0.8 l0.3,1.1 l-1.2,0.2 l1,1.3 l1.2,0.5 l1.9,0.2 l0.7,-0.4 l0.4,-0.7 l1.2,-0.2 l0.8,0.4 l0.9,-0.4 l1.2,0.5 l0.3,0.3 l1.4,-0.5 l1.9,-1.2 l-0.6,-0.4 l-0.1,-1.6 l1,-0.8 l2,0.2 l0.2,-1.3 l0.3,-1 l-0.3,-2 l0.7,-1.5 l-0.1,-1.6 l-0.6,-1.5 l0.9,-0.6 l0.8,-1.2 l0.7,-0.4 l1.3,1.1 l0.7,0.3 l0.3,-1 l1.3,0.1 l0.5,0.4 l1.2,0.3 l1.4,-0.4 l2,0.3 l1.6,-0.5 l4.4,1 l1,0.6 l1.5,0.1 l7,4.7 l1.4,2.1  z m-83.6,-35 l-0.6,1.3 l-1.2,0.1 l-1.1,0.9 l1,-3.5 l0.6,-0.4 l1,1 l0.3,0.6  z m204.1,-67.3 l-0.4,-0.6 l-2.4,-1.8 l0.7,-0.5 l1.1,0.5 l1,1.4 l0,1  z m-5.2,-2.9 l-0.8,0 l-0.6,-1 l0.7,0 l0.7,1  z m5.2,-5.2 l0,3.2 l-1.1,-1.4 l-0.8,0.6 l-1,-0.3 l-0.3,-0.8 l1.4,-0.5 l-0.5,-1.1 l1,-0.4 l1.3,0.7  z m0,-1.7 l-1.1,-0.3 l-1,0.8 l-0.5,-0.6 l0.6,-0.4 l0.1,-0.9 l-0.6,-1.2 l-2.9,-0.6 l-0.9,-1.1 l-0.7,-1.8 l-0.6,-0.5 l-0.7,-1.5 l-0.1,-0.7 l0.5,-0.9 l7.1,0.5 l0.8,0.4 l0,8.8  z m0,11.2 l0,11.3 l0.1,75.1 l-28.2,0 l0,3 l-1,-0.2 l-0.8,0.5 l1.4,0.4 l1,-0.2 l0.5,0.8 l-0.7,0.7 l-1.3,0 l-0.8,-0.2 l0,0.7 l-2.6,0.1 l-0.1,-0.6 l0.1,-4.6 l-0.2,-0.4 l-46,0 l-1.7,0 l-0.3,3.7 l4.2,6 l1.2,1.7 l0.4,0.8 l-1.6,-0.1 l-0.9,-0.5 l-1.3,-1.2 l-1.5,-0.6 l-0.5,-0.9 l-1.2,-1.1 l-0.4,-2.1 l-0.9,-2.9 l-0.2,-1.1 l-0.6,-1.3 l0.9,-1.9 l0.7,-0.3 l1.1,-1.2 l2.6,-1.2 l5.2,-1.2 l5.4,-1.9 l4.4,-0.9 l4.6,-0.5 l2,-0.6 l3.3,-0.3 l2.9,-0.8 l3.6,-0.1 l1.7,1.2 l4.5,0.6 l1.8,-0.7 l2.9,0.8 l2.6,1 l0.3,-0.8 l1.1,0.3 l0.4,0.5 l2.8,1 l0,-0.7 l0.7,-0.8 l1.5,-0.2 l1.3,-1.1 l0.2,-0.8 l3.6,1.5 l1.1,-0.3 l1.4,0.3 l0.9,-0.6 l1,0.4 l0.9,-0.4 l-0.1,-0.6 l-0.9,0.1 l-0.4,-0.5 l1.2,-0.7 l-0.3,-0.7 l-0.6,-0.2 l-2.7,0.2 l-0.8,-0.5 l-1,-0.2 l-1.2,-1.4 l-0.2,-1 l-0.6,-1.7 l-0.6,-0.4 l-1,0 l-0.5,-0.6 l-0.7,0.4 l-0.5,-0.7 l-0.7,0.4 l-1,-0.2 l-0.6,-0.8 l-1,-0.6 l-1.4,0 l-0.2,0.9 l-0.7,-0.8 l-1.4,-0.8 l-0.6,-1 l-0.8,0.4 l-0.3,-1.4 l-1.8,0 l-0.5,-0.2 l-0.9,-0.9 l-0.8,1.3 l-1.8,-1.7 l-3,-0.8 l-0.6,0.2 l-1.2,1.3 l-0.4,0.1 l-1.9,-0.6 l-0.6,0.2 l-1.2,1.2 l-4.1,0.6 l-2,0.8 l-2.2,-0.2 l-2.9,0.4 l-0.9,0.6 l-1.7,-0.9 l-3.5,0.9 l-1.7,-0.6 l0,-1.2 l-0.5,-0.2 l-3.9,0.2 l-1.2,0.9 l-3.4,0.2 l-2.8,-0.6 l-1.1,0.5 l-0.5,-0.8 l-1.6,0.3 l-0.8,0.4 l-1.2,-1 l-0.5,-0.9 l0.3,-1.1 l-0.2,-0.6 l-0.9,-0.9 l-0.7,-0.3 l-3.6,-3.2 l-0.9,-1.3 l-1.6,-3.3 l-0.1,-0.6 l0.4,-1.1 l6.6,-5.1 l3.7,-0.6 l4.3,-2 l2.2,0.1 l0.5,-0.3 l0.5,-1.5 l5.6,-2.1 l0.5,-0.4 l1.9,-0.5 l0.6,0.5 l3.2,-0.2 l0.4,-0.7 l-0.7,-0.2 l-1.3,0 l-1.8,-0.9 l-1.6,-0.3 l0.2,-0.6 l1.6,0 l3.5,-2.4 l0.1,1 l1.3,-0.5 l0.5,0.9 l0.9,0.2 l0.8,0.5 l1.1,-0.8 l1.3,-0.3 l0.7,-0.7 l1,-0.8 l-0.6,-0.3 l-2.1,1.3 l-1.5,0.3 l-0.8,-0.2 l-0.7,-0.8 l1.2,-0.8 l-1.7,-0.5 l-2.5,0.2 l-0.7,0.6 l-1,0.1 l-0.8,0.5 l-1.5,0.5 l-4.2,0.8 l-0.9,0.8 l-1.1,0 l-1,0.8 l-1.2,0.2 l-1.4,-0.3 l-0.9,0.7 l-1.1,0.5 l-0.7,-0.1 l-0.9,0.6 l-0.6,-0.2 l0.4,-2.1 l-0.7,-0.6 l-0.6,-0.9 l-1.5,0.8 l0.3,0.9 l1.2,0.2 l0.2,0.7 l-0.8,1.7 l-1.8,-0.5 l-1.4,0.4 l-0.7,-0.4 l-3,0.3 l-0.9,-0.5 l-0.7,-1.4 l0,-1.3 l0.6,-1.2 l1.4,-1.3 l2.2,-0.2 l1.7,0.6 l0.2,-1.1 l0.8,0.2 l0.5,-0.6 l-0.5,-0.4 l-0.9,-0.1 l-0.6,-0.8 l-1.6,-0.5 l0.3,-0.8 l0.9,0.1 l1.9,-1 l-0.3,-0.3 l-4,0.4 l-1.2,1.4 l-0.3,1 l-1.7,0.2 l-0.6,0.5 l0.2,-1.6 l-1.1,-1.2 l-1.3,-0.4 l-0.3,0.6 l-0.6,-0.3 l-1.6,-0.1 l-0.9,1.5 l0.5,1 l-0.7,0.1 l-0.8,-0.9 l-0.6,-0.4 l-0.5,-1.5 l-0.5,-3.8 l0.4,-2.4 l0,-1.5 l0.6,-2 l1.2,-2 l1.3,-1.7 l0.9,-0.6 l0.5,-1.4 l-0.2,-0.6 l0.5,-1.2 l1.1,-1.4 l1.6,-0.1 l3.5,-1.7 l0.3,-0.7 l-0.3,-2.3 l-0.5,-1.1 l-0.8,-0.3 l-2.1,0 l-1.2,-1 l-0.6,-1.3 l0,-0.8 l0.2,-1.8 l0.7,-1.2 l2.6,-3 l0.6,-0.6 l0.4,-1.2 l1.7,-1.3 l0.4,-0.1 l1.6,-1.1 l0.6,-1.3 l2.4,-2.3 l0.6,-1.3 l0.7,-0.8 l0.9,-2.1 l0.4,-0.4 l1.8,-0.2 l1.1,-0.9 l2.4,-0.8 l2.9,-2.6 l0.5,-1 l1.1,-0.1 l2,-1.2 l1.4,-1 l2.1,-0.9 l2.8,-1.7 l2.2,-0.6 l1.9,-1.3 l1,-1.2 l0.9,0 l1.2,-1.2 l2.5,-1 l1.9,-1.8 l0.7,-0.4 l1,-0.3 l2,1.4 l1.6,0.5 l0.8,1.1 l2,3.8 l0.4,1.4 l0.2,2 l-0.4,2 l0,1.4 l-0.4,1.2 l-0.1,1.3 l0.2,1.4 l-0.3,1.4 l0,1.1 l1,1.8 l-0.6,1 l-2.5,0.2 l-0.5,1 l-0.8,0.7 l0.5,2.8 l-1.1,0.6 l-0.7,1.3 l-1.4,0.6 l1,1.3 l1.1,0.5 l0.8,-0.1 l0.2,-1.1 l0.7,-0.3 l1.5,-1.4 l2.7,-1 l0.3,1 l0.7,-0.1 l2.7,-2.3 l0,1.1 l-1.4,1.2 l-0.6,1 l0.6,0.2 l0.5,-0.5 l0.2,-0.7 l1.6,-1 l0.4,-0.7 l0,-1 l0.4,-0.8 l-0.4,-0.8 l-1.3,-0.1 l-0.5,-0.9 l1.3,-2.4 l1.1,-2.7 l2.2,-3.1 l2,-0.9 l0.9,0.4 l0.9,0 l0.8,0.8 l2.9,0.9 l1.8,1.8 l1,0.5 l2.3,0.1 l0.8,0.7 l1,0.4 l0.5,0.5 l1.8,1 l0.8,0.8 l1.1,0.1 l0.9,1.4 l0,0.7 l1.8,0.6 l1,0.5 l-0.1,1 l0.2,0.9 l-0.4,1.7 l-0.2,1.9 l-0.3,0.5 l-2.3,2.1 l0.6,0.3 l-0.1,0.7 l-1.3,1.6 l-3.3,2.2 l-0.5,1.3 l0.9,0.8 l0.9,-0.3 l0.6,-0.9 l0.5,0.6 l-0.2,0.6 l-0.6,0.8 l-0.1,1.2 l-0.7,1.8 l0.6,0.3 l0.8,-2.9 l0.7,0 l0.4,-0.6 l1,-0.6 l-0.3,-0.6 l-0.8,-0.1 l-0.4,-0.9 l0.4,-0.8 l1.1,-0.6 l0.8,-0.8 l0.7,-1.3 l1.2,-0.4 l0.4,0.3 l-0.4,0.8 l-1.2,0.7 l0.7,0.8 l-0.1,1.1 l0.7,0.2 l0.3,1 l1,0.3 l0.9,0.7 l-0.6,-2.2 l0,-1.3 l0.9,-0.9 l0.3,-0.7 l-0.2,-0.8 l0.7,-0.4 l1.7,0.2 l-0.6,-1.8 l1.3,-1.7 l0.5,-0.3 l0.6,0.7 l1.1,0.3 l0.4,0.5 l-1.1,0.9 l0,0.8 l0.5,0.7 l1.1,0.5 l1.3,1.3 l0.3,-0.3 l-2,-1.7 l-0.6,-0.9 l0.6,-0.8 l0.6,-0.1 l0.6,-1.2 l0.6,0.2 l1,1 l0.8,1.8 l1.3,1.5 l0.5,-0.7  z m-130.7,-83.6 l1.7,1.1 l1.8,-0.1 l0.7,0.9 l0.9,0.1 l1.4,1.7 l0.3,0.8 l0,1.1 l0.5,0 l8.8,6.1 l2,0.3 l1.4,1.5 l3.3,-0.1 l-1.1,0.5 l0.2,1.3 l-0.5,1.2 l-1.5,2.5 l-0.1,1.4 l0.4,1.1 l0.7,-0.1 l-0.3,-1.3 l0.4,-1.3 l1.2,-1 l0.4,-0.9 l0.8,-2.4 l0.3,-0.5 l1.2,0.3 l1.6,-0.4 l1,0.8 l0.5,1 l0,1.4 l-0.4,0.9 l0.7,0.4 l0.1,1.2 l-0.9,1.3 l-0.5,2.7 l0.5,-0.1 l0.9,-0.9 l1.3,0 l0.8,-2.5 l0.7,-0.5 l0.3,-1.5 l-0.9,-1.5 l-0.1,-0.6 l1.8,-1.8 l1.1,-0.3 l0.8,-0.6 l1.1,-0.2 l0.6,-0.4 l3.8,-1 l7.3,2 l6.2,6 l5.5,7.7 l0.6,1.3 l1,0.3 l0.7,1.4 l2.3,2.5 l0.6,1.4 l2.1,1.9 l1,0.2 l0.7,1.5 l2.1,2.9 l0.5,1 l0.4,1.4 l0,1.1 l-0.9,0.5 l-0.6,1.5 l-0.9,0.2 l-0.6,0.8 l-1.9,1.9 l-2.5,1.2 l-2.7,1.6 l-2.7,0.9 l-0.5,0.9 l-2.4,1.5 l-0.9,1.1 l-0.7,0.2 l-0.6,1 l-0.9,0.9 l-1.8,1 l-0.8,1 l-2,0.5 l-3.3,2.8 l-0.8,0.4 l-1.3,1.6 l-1.3,1 l-0.6,0.7 l-2.2,1.1 l-2.2,1.9 l-1,1.9 l-0.6,0.2 l-1.6,0.1 l-0.6,0.4 l-1.6,1.9 l-2.9,2.3 l-0.3,1.9 l0,1.8 l-0.7,1 l0.1,0.7 l-0.7,1.3 l-0.3,2.5 l0.3,0.5 l-0.4,0.9 l-1.1,1.1 l-2.4,1.6 l-1.4,1.6 l-0.6,0.3 l-0.8,-0.3 l-0.9,0.2 l-2.2,-0.4 l0.5,-1 l-0.7,-0.4 l-0.7,0.5 l-0.1,0.7 l0.8,0.9 l0.4,2.9 l-0.5,2 l-1.2,2.4 l-1.4,2 l-0.3,1.3 l0.8,1.7 l-0.2,0.6 l0,2.7 l-0.2,1.5 l0.4,1.7 l-0.4,2.4 l-1,3.3 l-1.4,1.8 l-1.5,0.7 l-2.5,1.6 l-2.4,0.6 l-2.5,1.1 l-2.1,-0.8 l0.7,-0.6 l-0.2,-1.2 l-0.4,-0.4 l-1.1,-0.1 l-0.4,0.3 l-1.4,1.8 l-0.8,1.7 l-0.6,0.5 l-0.9,1.7 l-1.1,1.3 l-0.8,0.3 l-1,0.6 l-0.9,0.3 l-2.6,1.8 l-1.4,2.6 l-0.5,0.4 l-3.4,0.2 l-0.6,-0.3 l-1.2,-1.3 l-1.1,-1.9 l-0.9,-2.3 l-1.4,-5.3 l-0.7,-2.2 l-1.3,-2.3 l-0.8,-0.6 l-0.3,-1 l-1.2,-3 l-1.4,-1.6 l-6.8,-3.8 l-2.3,-1.9 l-1.1,-1.2 l-3,-1.9 l-0.2,-0.5 l3.3,-0.4 l-0.6,-0.4 l-3,-0.1 l-3.3,0.2 l-2.5,0.9 l-1,-0.5 l0.8,-0.4 l0.7,-1.8 l0.3,-2 l-0.1,-1.1 l-0.8,-0.2 l0.5,-1.2 l0.7,-0.8 l0.8,-0.3 l-0.4,-0.6 l-0.3,-1.4 l0.4,-1 l0.9,0.3 l1,-1.3 l-0.5,-1 l0.4,-1.3 l0.6,-0.5 l0.5,-1.6 l-0.3,-0.7 l1.2,-1.6 l0.1,-0.9 l1.4,-1.1 l1.3,-1.8 l1.3,-0.2 l-0.2,-1.4 l-0.8,-0.1 l-0.7,-0.9 l0.7,-0.3 l0.6,-1 l0.4,-1.3 l-0.8,0 l0.5,-1.6 l0,-0.6 l-0.5,-1.4 l-0.2,-1.4 l-0.5,-0.2 l-0.4,-0.9 l0.5,-0.8 l1.4,1 l1.9,-1.5 l0.8,0.3 l2.5,-1.4 l0.1,-0.6 l-0.5,-0.6 l0.3,-0.8 l-1.1,-0.7 l-0.5,-0.9 l-0.9,-0.3 l-0.4,0.3 l-1.1,-1.8 l-0.1,-1 l0.4,-0.6 l0.4,-1.4 l1.4,-0.5 l-0.1,-1.1 l1.1,-2.7 l0.4,-1.8 l0.6,-1.8 l0.8,-0.8 l0.1,-1 l-0.4,-1.2 l0.4,-0.7 l1.1,-0.9 l0.4,-1 l1.1,0 l0.3,-1.4 l0.9,-0.8 l0,-1.2 l0.4,-1 l-0.5,-1.6 l0.3,-1.1 l1.5,-1.4 l0.9,-0.1 l-0.1,-1.2 l0.9,-1.4 l-0.6,-2 l-0.7,-1 l-2.9,-0.5 l-0.9,-1.6 l0.3,-1.3 l-0.7,-1.6 l-1.1,-0.9 l0.1,-0.4 l-0.6,-2.5 l-0.7,-0.8 l-0.1,-1.4 l0.4,-0.5 l-0.2,-1.2 l-0.4,-0.7 l-0.2,-1.4 l-0.3,-0.8 l0.1,-0.8 l-0.3,-1.1 l-0.4,-0.3 l-0.9,0.2 l-0.3,-0.4 l1,-1.6 l-0.5,-0.4 l-1.2,0.3 l-0.4,-0.7 l0.4,-0.6 l0.8,-0.2 l3.1,-0.9 l2,-0.4 l1.2,0.3 l0.4,-1.1 l4.1,-0.4 l0.5,-0.6 l2.3,0 l2,-1 l3.6,-0.1 l4.1,-0.4 l5.7,-1.5 l3.7,-1.9 l2.3,-0.6  z m130.7,-60.1 l0,1.5 l-0.5,-0.8 l0.5,-0.7  z m-125.2,8.2 l-0.8,0 l-1,-0.5 l-0.4,-0.7 l0.4,-0.8 l2.5,-1.8 l0,-1.2 l0.4,-1.3 l-0.5,-1.2 l0.5,-1.6 l0.9,-0.5 l0.4,0.3 l0.2,2.4 l-0.5,3.4 l-0.9,2.2 l-1.2,1.3  z m38.8,-18.2 l0.4,0.5 l0.9,0.3 l0.9,1 l-0.2,0.3 l-0.2,1.6 l-0.4,1.2 l-0.5,0.7 l0,1.3 l-0.6,1.1 l-0.5,1.4 l-0.9,0.8 l-0.8,1.9 l0.1,1.1 l-0.9,1 l0,0.8 l-0.6,1.3 l0.2,1.6 l-3.8,5.7 l0.2,0.9 l-4.1,4.2 l-1,-0.2 l-1,-1.1 l-1.7,-0.1 l0.1,-1.3 l-0.9,0.3 l-0.9,-0.8 l-1.2,0.4 l-2.4,-1.7 l0,-0.6 l0.9,-2.1 l3.2,-4.1 l0.7,-0.5 l0.7,-1.9 l0.9,-1.5 l1,-0.6 l0.2,-1.2 l0.6,-1.2 l0.7,-1 l3.5,-2.3 l1.2,0.2 l0.8,-1 l0.6,-2.2 l0.7,-0.1 l1.5,-1.4 l-0.1,-0.6 l1.1,-1.4 l1.6,-0.7  z m86.4,-4.8 l-1.6,-2.3 l-2.6,-1.2 l0.6,-2 l-0.5,-0.5 l0.1,-0.9 l-0.4,-1.2 l0.2,-1.6 l0.7,0.1 l2.3,-1.2 l1.2,-1.6 l0,12.4  z m0,31.6 l0,30.6 l-0.5,1 l-0.4,-0.5 l-0.8,0.6 l-1.7,-1.1 l-0.8,0.5 l-0.4,0.9 l0.9,0.6 l-0.1,0.4 l-2.9,0.5 l-0.7,-0.2 l-0.1,0.8 l0.9,2 l-0.3,0.9 l-1.8,0.9 l-0.9,1.4 l-1,0.2 l-0.6,1.3 l-0.9,0 l-0.9,0.9 l-0.8,0 l-1,1.4 l-1,-0.4 l-1.9,1.7 l-0.9,1.3 l-6.6,2.2 l-0.8,0.7 l-1.4,0.8 l-2.3,0 l-4.4,0.7 l-2.2,-0.4 l-2.6,-0.6 l-2.7,-1.1 l-0.8,-1.1 l-4.6,-4 l-2.5,-3.1 l-0.4,-0.8 l-0.1,-1.1 l0.5,-1.3 l0.9,-0.8 l0.9,-1.1 l2.9,-2.1 l1.6,-0.3 l0.9,-0.9 l1.4,-0.3 l1.5,0.1 l0.9,-0.7 l0.9,-0.3 l1.4,0.7 l0.2,-0.7 l-1.3,-1.1 l1.2,-0.1 l1.1,-2.2 l1.1,-0.5 l0.6,-0.6 l1.8,-0.8 l1.1,0.2 l1.7,-0.8 l3.1,0 l2.4,-0.4 l3.2,1 l1.2,-0.8 l1.3,-0.4 l1.3,-2.1 l0.4,-0.1 l1.3,-1.1 l-0.1,-0.5 l0.5,-1 l1.2,-0.7 l1.4,-1.7 l-0.5,-0.6 l0.5,-0.6 l0.4,-0.9 l0.8,-0.4 l-0.4,-0.8 l-1.7,-1 l-1.6,0.3 l-0.3,1.5 l-0.4,1 l-0.7,1 l-1.3,1 l-1,-0.3 l-1.2,1 l-0.8,-1.8 l-1.6,2.2 l-0.3,0.1 l-1.6,-0.5 l-1.7,0.9 l-1.5,0.3 l-0.8,-0.3 l-0.6,-0.9 l0.5,-0.7 l0.7,-0.4 l0.8,-1.4 l-1.1,-1.7 l-0.8,0.9 l0.2,0.8 l-0.1,1 l-1.6,0 l-0.3,-0.4 l-0.1,-1.2 l0.4,-0.7 l-0.3,-1.3 l-0.9,0.1 l-0.5,2.5 l0.6,1.4 l-0.1,1.4 l-0.3,0 l-1.5,1.4 l-1.8,0.7 l-0.7,-0.6 l-0.5,-1.5 l-0.6,2.1 l-0.3,0.3 l-1.6,0.3 l-1.1,-0.2 l-2.5,1.1 l-2.5,0.1 l-0.8,-0.7 l0,-2.1 l0.5,-1.2 l3,-1.8 l-0.8,-0.3 l-1.7,1.2 l-0.8,-0.6 l0.7,-3 l0.5,-2.3 l0.6,-1.7 l1.1,-0.9 l0.9,-0.2 l0.8,-1 l1.8,-1.3 l-0.5,-0.3 l-1.1,0.2 l-4.1,2 l-0.5,-0.6 l-0.5,-1.9 l-0.8,-1.6 l-0.4,-0.4 l-0.2,2.9 l0.4,1.1 l0.1,0.8 l-0.8,4.2 l-0.4,1.4 l-0.5,0.7 l-0.6,0 l-0.7,-0.6 l-0.4,-0.9 l-0.2,-1.1 l-2.1,-1.2 l-0.4,0.6 l-0.3,1.1 l0.7,0 l1.2,0.4 l0.4,0.7 l0.3,1.3 l0.9,1.6 l-0.3,2 l-1.3,3.1 l-5.8,4.2 l-1.1,0.2 l-1.1,-0.8 l-0.5,-0.8 l-0.3,-2.5 l0.1,-0.9 l0.5,-0.8 l-0.1,-1.2 l-0.6,-2.1 l-0.5,1.1 l-1.5,2 l-0.4,0.1 l-0.9,-1.1 l-1.4,-1.1 l0,1 l0.7,0.6 l-0.2,0.4 l0.7,2.9 l-0.1,1 l-0.4,0.9 l-0.8,1 l-0.6,0.1 l-2.4,-1.2 l-1.2,-1.2 l-1.5,-0.6 l-1.1,-1.2 l1.3,-0.7 l0.7,-0.7 l0,-1.3 l-2.1,1.2 l-0.8,-0.6 l1,-2.1 l-0.1,-2.2 l-2.3,1.2 l-0.9,0 l-0.8,1 l-0.6,1.6 l-1.1,0.2 l-1.5,-0.9 l-0.6,-0.9 l-0.7,0.6 l-5.6,-2.3 l-0.9,-1.2 l-0.9,-0.7 l-0.2,-0.7 l0.4,-0.9 l-0.3,-0.6 l0.6,-0.9 l0.7,0 l-0.2,-1 l0.3,-1 l2.8,-4.5 l1.2,-1 l8.5,0.2 l0.9,-0.6 l2.4,0.6 l1.3,-0.4 l5.1,-4.6 l3.7,-0.7 l-0.3,-0.8 l0.4,-1.3 l1.6,-1.8 l1,-0.3 l-0.4,-0.7 l-3.6,2.3 l-3.6,0.6 l-0.9,0.9 l-2.4,0.7 l-1.3,1.2 l-0.2,0.3 l-12.2,0.1 l-0.5,-0.3 l-0.1,-1.2 l0.3,-1.1 l2.9,-5.9 l0.9,-1.2 l12.3,-2.1 l0.4,-1.3 l2.1,1.3 l7.9,-1.5 l0.6,-0.6 l0.1,-1.1 l-0.5,-0.4 l-9.4,1.2 l-0.8,-0.5 l-4.9,1.3 l-0.5,0 l-5.3,-1.4 l-0.2,-1 l0.2,-1.9 l1.1,-0.7 l1.5,0.2 l0.1,-1 l-0.6,-0.9 l0.3,-0.7 l-0.5,-0.4 l-1.3,0.8 l-0.5,-1 l0,-0.8 l0.8,-3 l0.7,-0.4 l0.5,-1.4 l4.1,-2.1 l2.4,0.1 l1.2,0.8 l1.9,0.2 l2.5,-0.4 l3.3,1 l2.4,0.2 l1.4,0.7 l1.3,-0.3 l0.5,-0.4 l-0.5,-0.5 l-1,0.3 l-0.9,-0.4 l-1.1,0 l-0.7,-1.5 l-2.7,-1.4 l-5.7,0 l-1.1,-0.7 l-0.5,-1.6 l0.8,-1.7 l-0.7,-1.3 l0.5,-0.7 l4,-4.5 l5.6,-1.1 l0.4,-0.3 l0.9,-1.5 l0.4,-0.2 l1.9,0 l-0.7,1.4 l3.5,-0.4 l2.8,1.4 l0.5,0.6 l0.5,1.4 l0.3,1.9 l-0.2,1.3 l-0.7,0.9 l0.7,0.1 l-0.3,1 l0.6,1.3 l0.8,1 l0.3,0.8 l-0.9,1.8 l1.1,1.3 l1,-0.7 l1.9,0 l1.6,-1.4 l1.4,-0.3 l1,-1.2 l1.5,0.1 l0.7,0.6 l1.9,-1 l0.9,0.4 l0.5,0.7 l0.4,1.5 l0.9,-0.2 l0,0.8 l1.5,0 l0.9,0.9 l1.2,0.8 l-0.8,1.2 l-0.1,1.6 l0.8,1.5 l0.3,1.3 l0.6,0.8 l2.8,1 l2.9,2.8 l1,0.2 l0.5,1.5 l-0.6,0.7 l-3.3,1.2 l-1.3,1.2 l0.5,0.7 l-1,0.9 l0.8,0.3 l0.8,-0.6 l0.6,0 l1,0.6 l0.9,-1 l4.6,-0.6 l-0.4,1.3 l-1.1,0 l1.5,1.2 l0.3,1 l-0.2,1.1 l0.7,0.2 l0.3,1.1 l-0.5,1.7 l0.3,1.1 l-0.3,1.7 l0.6,1.6 l0.7,0.6 l-0.3,0.9 l0.5,0.9 l0.7,0.1 l2.2,-0.3 l1.8,-1.2 l3.9,-0.7 l0.9,0.6 l0.2,0.9 l2.2,0.2 l0.7,-0.5 l1.7,0.1  z m-42.1,-63.5 l1.7,1.8 l0.8,0.5 l0.6,1.9 l0.1,1.3 l-0.4,0.2 l-0.8,1.4 l-1.3,1.8 l-1.8,-1.1 l-6.6,-0.2 l-1,-0.7 l-4.1,-0.9 l0.1,-1.9 l0.2,-0.4 l2.4,-2.6 l2.2,-1 l2.2,0.1 l0.5,-0.6 l4,-0.4 l1.2,0.8  z m-27,-30 l0.5,0.6 l2.2,1 l0.4,0.7 l0.9,-0.1 l1.3,2.1 l0.9,0.6 l1,1.3 l0.3,0.9 l0.7,0.9 l-1.2,1.2 l-0.3,1.3 l-1.7,0.4 l-1,0.4 l-1.7,2.1 l-3.7,0.9 l-0.3,0.3 l0,1.3 l-0.3,0.8 l-0.8,0.1 l0,0.9 l1,0.8 l0,1.5 l0.3,1.4 l0.4,0.7 l4.4,3.4 l0.9,0.4 l0.3,0.9 l-0.3,0.7 l-1.7,1.8 l-1.3,-0.1 l-2.7,-2 l-0.7,-0.3 l-0.5,0.7 l0.1,1.2 l1.1,1.5 l1,1.8 l1.5,0.6 l0.5,1.7 l0,1.4 l0.4,0.7 l0.7,2.6 l-0.9,0.5 l-1.2,2.9 l-2.7,2.4 l-1.5,0.1 l-0.7,0.5 l-2.8,-0.2 l-0.9,1.6 l-1.3,-0.8 l-0.5,0.2 l-0.8,1.3 l0.2,1.5 l0.6,0.8 l0.2,0.7 l-0.1,2.1 l0.6,1.4 l0.1,1.7 l-0.4,0.7 l-0.6,0.4 l-1.3,2 l-1.6,0.5 l-0.8,1 l-2.5,-0.6 l-1,-1.1 l0.1,-1.1 l-0.3,-0.4 l-1.6,0 l-0.4,-0.2 l-0.1,-0.9 l-1.6,-2.6 l-0.6,-0.4 l0.3,-0.9 l-0.2,-0.7 l0.7,-1 l-0.5,-1 l0.2,-0.9 l1.2,-1.4 l-0.5,-1.7 l0.5,-0.6 l-0.8,-1 l0.9,-2 l-0.3,-1.7 l0.1,-0.8 l0.6,-0.8 l1.1,-2.3 l0.3,-1.2 l-0.4,-1.5 l-0.5,-0.7 l-0.5,0.1 l-1.1,2 l-1,0.9 l-3.3,-0.3 l0.4,1.4 l-0.3,1.6 l-1.9,-0.5 l0.4,1 l-0.1,0.7 l1,1.2 l0.4,0.8 l0.3,2.7 l0.2,1 l-0.2,0.9 l-1.3,-0.2 l-0.5,0.4 l-0.2,1.5 l-0.4,0.5 l-1.5,-0.3 l-0.7,-1.6 l-0.7,-0.7 l-0.4,1.5 l-0.7,-0.1 l-0.6,0.3 l-0.4,1.5 l1.6,0.7 l0.2,0.9 l1,0 l1,1.3 l0.5,2.1 l-0.2,0.9 l0.5,1.2 l-0.9,2.6 l-0.5,0.3 l-1.9,0 l-0.4,0.4 l-0.3,1.1 l-0.1,2.2 l0.4,1.6 l-0.7,0.4 l0,1.3 l-1.1,0.5 l-0.4,1.8 l-1,-1.2 l-0.7,0 l-0.5,-0.8 l-0.2,-0.9 l0,-1.8 l-0.8,-2.2 l-0.7,-0.8 l-0.3,-1.4 l-0.2,-3.6 l-1,1.6 l-1.1,-0.8 l0.2,2 l-0.1,0.9 l-0.6,0.5 l1.3,3.1 l0.4,1.4 l-0.6,0.5 l-1,-0.1 l0.3,1.1 l1.4,0.8 l-0.3,0.5 l-2.5,-0.1 l0.5,0.7 l0.8,0.3 l1.9,1.9 l0.3,0.8 l0.2,1.4 l-0.1,1.5 l-0.7,0 l-0.6,-0.9 l-0.6,0.4 l-0.6,1.9 l1,0.7 l-0.1,0.5 l-0.9,-0.2 l-0.8,1.8 l-1,1.1 l-2,0.8 l-0.4,-0.6 l-0.2,-1.3 l-0.7,-0.7 l-1.2,3.1 l-0.8,0.9 l-1.2,0.1 l-0.5,-1.7 l0.2,-2.3 l0.1,-1.3 l0.8,-2.2 l-0.7,-0.5 l0.2,-1.1 l-0.3,-0.4 l-1.4,0.4 l0.3,0.6 l-1,0.1 l-0.8,-1.7 l-0.2,-1.3 l0.2,-0.9 l-0.3,-2.3 l0.9,-0.9 l-0.3,-0.8 l-1.2,-0.8 l-0.6,-1 l-0.4,-0.1 l-1.2,1.7 l-0.2,1.2 l0.1,1.7 l-0.3,0.7 l0,1.2 l0.7,2.3 l0.3,2.1 l-0.4,0.9 l-0.5,-0.1 l0.1,-1.3 l0.3,-0.3 l-0.6,-0.9 l-0.9,0.2 l-1,0.7 l-0.6,0.9 l-0.3,2.1 l-1.7,-1.1 l0.2,-0.6 l-0.9,-1.4 l-0.7,-0.3 l-1.5,-1.2 l-1.5,-0.5 l-0.3,-0.7 l-2.2,0.5 l-0.6,-0.3 l-0.4,0.6 l-0.2,1.4 l0.2,0.9 l-0.7,0 l-2,1.9 l-0.6,0.2 l-2.2,-0.4 l-1.3,-1.7 l1,-0.5 l0.5,-0.7 l-1.1,-0.8 l1.1,-0.6 l0.9,-1.3 l-0.1,-0.3 l0.5,-1.6 l-0.4,-1 l-1.9,0 l2.2,-0.9 l-0.9,-0.3 l0,-0.9 l-1.1,-0.5 l-1.1,1.2 l-0.8,0 l-0.1,0.9 l-0.5,1.2 l-0.8,0.8 l-0.5,-1.5 l0.6,-0.4 l0.1,-0.9 l0.4,-0.3 l-0.4,-1 l1,-0.2 l0.3,-2.6 l1.2,0.3 l0.2,-0.7 l0.8,-0.9 l-0.1,-1.7 l0.1,-1.3 l0.5,-1.2 l1.6,-1.4 l0.8,-1.3 l4.7,-1.4 l2.1,0.6 l2.5,-0.5 l0.5,-0.6 l0.1,-1 l0.9,-1.5 l0.2,-0.7 l-0.1,-1.9 l1,-1.2 l0.1,-0.8 l1,-1.3 l0.3,-2.8 l0.6,-0.5 l0.7,0.9 l0.5,-0.7 l1.4,-0.5 l1.2,-1.9 l2.9,-1.3 l0.5,-1.2 l1.6,-1.5 l-0.2,-0.7 l0.2,-0.7 l-0.7,-1.3 l0.7,-1.2 l1.6,-0.5 l0.7,-1.4 l-0.1,-1.1 l0.9,-0.6 l-0.1,-1.2 l0.1,-0.8 l0.6,-0.8 l1.3,0.1 l0.3,-1.7 l0.7,-0.6 l0.1,-1.7 l1.2,-0.9 l0.8,0 l0.3,-1.3 l0.3,-0.5 l2,-1.5 l0.4,-0.6 l1.1,-4.9 l1.1,-1.5 l0.7,-0.5 l1.8,0.4 l1.1,-0.9 l0.6,-1.2 l0.7,0.3 l0.6,-0.5 l5.9,0.2 l0.9,-1 l2.8,-0.5 l-0.9,1 l0,0.5 l1.5,-0.6 l0.8,1.7 l0.8,-0.1 l0.5,0.6 l1.6,-0.3 l0.2,1 l0.8,0 l1.7,1.6 l1.1,-0.9 l1.1,0.5 l0.3,-0.5 l-0.6,-1.6 l-0.4,-0.5 l-0.8,0.1 l0.2,-1.2 l1.4,0.6 l1.9,1.8 l0.6,0.1 l0.4,-0.7 l-0.4,-0.7 l0.4,-0.6 l1,-0.8 l0.4,-1 l-1.1,-0.6 l-0.9,0.9 l-0.3,-1 l-1,0.3 l-0.6,-0.1 l-0.4,-1.7 l-1.4,-1.4 l0.5,-0.8 l0.8,0.6 l0.7,-0.5 l0.7,-0.1 l1.8,-2 l-0.2,-0.4 l-1.7,-0.4 l0.3,-0.4 l5.5,-1.4 l-0.2,0.8 l1,0.3 l-0.2,0.7 l1.2,0.1 l1.7,1.9 l-0.3,0.9  z m20.4,-28.8 l0.7,1.3 l1.6,-0.6 l0.5,1.5 l1.4,2.9 l2.4,1 l0.4,0.6 l0.3,2.4 l0.8,0.7 l0,1.1 l-1.3,2.3 l-5,3.3 l-1.6,-0.4 l-2,-2 l-1.6,-0.3 l0,-0.9 l1.2,0.7 l-0.3,-1.2 l-0.5,-0.7 l-0.9,-0.6 l-1.5,-2.3 l-0.7,-0.5 l-2.9,-5.4 l0.9,-0.4 l0.5,0.5 l0.5,-0.1 l0.6,-0.7 l1.1,-0.5 l0.7,-0.9 l0.6,-1.9 l2.1,-0.8 l1.2,-1.5 l0.7,-0.3 l0.5,1.1 l-0.7,1.5 l0.3,1.1  z m48.7,-4.7 l0,9.2 l-1.3,0.5 l-1.2,1.3 l-6.9,1.5 l-0.7,0.9 l0.2,1.7 l1.2,0.9 l0.7,2 l3.5,-0.4 l0.7,-0.6 l2.4,0.2 l0.5,0.9 l0,1.7 l-0.3,1.4 l0.2,1.2 l0.3,0.7 l-0.1,0.7 l0.4,0.7 l-0.1,0.6 l-0.8,0.8 l-0.5,0.9 l0.7,0.7 l0.2,0.8 l-0.3,1.5 l-0.5,0.6 l-0.9,1.5 l-3.8,2.5 l-1.5,0.1 l-1,0.5 l-0.4,1 l-0.6,0.6 l-3.5,-0.4 l-1,-0.6 l-1.3,1.5 l-5.5,2.6 l-1.2,1.2 l-1.3,0.2 l-4.1,-2.3 l-0.4,-0.9 l-1.1,-3.4 l-0.4,-0.6 l-1.6,0.9 l-1.7,-0.9 l-0.3,-0.3 l-0.2,-1.6 l-0.7,-0.9 l-1.5,0.2 l-0.3,-0.7 l-0.3,-2.5 l-0.2,-0.3 l0.3,-1 l1.4,-1.2 l-1.9,-2.5 l0.4,-0.6 l0.1,-1.5 l-0.2,-0.9 l0.5,-0.7 l-0.9,-1 l-0.4,-0.9 l-0.2,-1.7 l0.1,-1.6 l0.3,-1.3 l0.8,-1.5 l-0.3,-0.8 l1.1,-1 l0.6,0 l0.7,1.3 l0.8,-0.2 l0.4,-1.4 l7.3,-4.7 l1.2,0.4 l1.3,-0.9 l1.2,0.2 l1.4,-1.7 l0.5,1.2 l1,-0.1 l0.6,-0.9 l1.2,-1 l1.6,-0.3 l1.3,-1 l0.8,0.5 l2.2,-0.8 l0.3,1.3 l1.4,0.2 l0.4,-0.3 l1.2,-1.6 l8,0.2  z m0,-33 l0,20.3 l-3.7,2.4 l-5.7,-1.6 l-0.3,-1.3 l-0.9,-0.7 l-0.9,-1.3 l-1.5,-0.9 l-0.7,0.5 l-0.8,0.1 l-0.3,0.5 l0.7,1.7 l-0.3,1 l-1.5,-0.4 l-0.2,1.2 l0.3,0.4 l-0.3,1.5 l-3.9,0.2 l-0.6,-0.8 l-0.4,-1 l-0.3,-1.5 l-1,-1.2 l-0.5,-0.1 l-1.7,-1.4 l-6.5,2.9 l-0.4,1 l-0.6,0.1 l-2.5,1.8 l-1.4,0 l-0.7,-0.6 l-0.5,-1.7 l0.1,-0.4 l-0.6,-0.8 l1.3,-1.5 l0.1,-2.4 l0.7,-0.2 l0.6,-1 l3.6,-2.6 l1.1,-1.4 l2.1,-0.8 l1.6,-1.6 l2.3,-0.9 l1.3,0.3 l1.2,-0.5 l1.3,0.6 l4.4,-3.3 l0.5,-0.9 l-0.7,-1.2 l1.4,-0.3 l0.5,-1.2 l1.2,-1.7 l0.4,0.5 l1.7,-1.7 l1.6,-0.6 l0.5,-0.8 l0.9,-0.5 l3.3,-0.8 l0.6,1.3 l1.5,1 l1.1,1.6 l1.5,0.7  z " id="CAN635" new_attribute_1="0" fill="#a0e876" name="Northwest Territories"></path><text stroke="none" style="outline-style:none;" id="inuvikLabel" stroke-width="1px" x="84.5px" text-rendering="geometricPrecision" font-family="Futura-CondensedMedium" fill="#ffffff" font-size="10px" y="431px" transform="" text-anchor="start">Inuvik</text><path d="M52.5,412.4 l0,20.8 l0,15.4 l0.4,2.2 l1.5,0.5 l0.6,0.9 l0.4,1.2 l0.2,2.1 l-0.4,2.5 l1,0.9 l-0.2,0.5 l0.4,1.8 l-0.2,0.7 l-0.2,1.4 l-1.1,1.1 l0.3,1.2 l-0.2,0.8 l0,1.6 l0.7,1.8 l26.3,0 l-0.5,0.5 l-1.7,0 l-0.7,0.6 l0.2,0.6 l1.6,0.9 l1,1.4 l0.2,1 l0.7,0.9 l-0.2,0.9 l-0.6,1.2 l0.9,1.3 l-0.3,0.6 l0.8,0.9 l0.2,0.8 l0.9,0.5 l0.1,0.6 l-0.8,0.7 l-0.1,1 l0.5,1.1 l-0.2,0.7 l-0.9,-0.5 l-0.3,0.5 l-0.1,1.5 l-0.6,2 l0.7,0.4 l1.4,-0.2 l0.6,0.3 l0.2,0.9 l-0.1,1.1 l0.2,1.2 l-0.1,0.7 l-1.1,1 l-0.5,1.3 l1.1,0.6 l-0.2,1.8 l0.2,0.7 l1.2,0.1 l0.9,0.4 l0.8,-0.6 l0.1,-0.5 l0.7,-0.1 l1.8,-1 l2.3,-0.1 l0,1.3 l-0.8,1.5 l0.6,0.5 l0.9,-0.1 l0.6,-0.5 l0.3,-1.1 l0.6,-0.4 l0.7,-1 l1.1,-0.3 l0.5,1.1 l0.4,0.3 l1.1,-0.5 l0.4,0.2 l0.1,1.3 l-1.9,1.1 l-0.6,1 l0,0.6 l2.2,2 l0.9,1.5 l0.1,0.8 l0.7,0.8 l0.5,1.5 l-0.1,0.6 l-1,1 l-0.6,2.9 l-1.9,1.8 l-0.7,1.3 l0,1.1 l-1,0.3 l-0.8,1.2 l-0.1,1 l-0.5,0.5 l0.6,0.5 l1,-0.5 l0.4,-0.5 l0.7,0.9 l-0.3,1.5 l1.1,0.6 l0.8,-0.1 l0.4,0.4 l0.2,1 l-0.8,0.5 l-0.3,0.8 l-0.7,0.3 l-0.2,0.8 l0.3,1 l-0.2,1.1 l-0.9,0.4 l-0.4,0.7 l0.6,1.2 l0.9,-0.2 l1.9,0.4 l1.8,1.7 l1.2,0.2 l1.2,2.5 l1.1,1.2 l1.3,0.3 l0.6,0.6 l-0.4,0.9 l-1,1.6 l0,1.3 l1.4,-0.4 l0.7,0.6 l2.2,-1.2 l0.2,-1.2 l0.4,-0.1 l1.3,0.9 l1.2,0.2 l0.9,1.3 l0.1,0.6 l0.6,0.7 l-0.6,1.2 l1,0.4 l0.4,1.4 l0.7,0.5 l-0.8,1 l0.2,1 l0.6,0.7 l0.1,1.1 l1,-0.2 l0,1 l0.4,1 l1.4,0.8 l0.8,0.2 l1.3,1.1 l0.8,1.3 l1.6,0.9 l0.9,-0.1 l0.5,0.7 l-0.4,0.6 l-0.8,0 l-0.9,0.5 l-0.4,0.6 l0.5,1.1 l0.6,0.1 l1,-0.9 l0.5,0.4 l-0.2,0.7 l0.2,0.8 l1.2,0.1 l0.3,1.1 l0.7,0.5 l0.8,2.1 l-0.8,0.6 l-0.3,2.1 l-0.6,0.5 l-1.1,0.3 l-0.7,0.6 l-0.2,1.1 l1.3,0.3 l0.6,1.4 l1,0.5 l0.5,2.3 l1.2,0.7 l1.4,-0.2 l0.2,0.7 l-0.7,1.1 l-0.5,1.3 l-0.2,1 l-0.5,0.6 l0,0.8 l0.7,0.7 l0.8,1.7 l0.1,1.2 l1.1,0.7 l0.4,1.7 l-0.7,0.4 l0,0.6 l1.2,-0.6 l1.3,1.4 l1.5,0.7 l0.3,0.7 l-1.1,0.5 l-0.4,0.8 l0.3,0.7 l0.7,0.5 l-0.6,0.5 l-0.4,0.8 l0.3,1.4 l0.7,1.7 l-0.7,0.5 l1.7,1.4 l1.5,-0.5 l1.3,0.6 l0.4,1 l0.9,0.2 l0.5,-1 l0.4,-0.4 l1.6,0 l0.9,1.4 l0.8,0.5 l0.1,1.2 l1.1,0.9 l0.5,0.9 l0.1,1.1 l0.4,0.6 l1,-0.3 l0.5,0.5 l0.7,1.7 l0,0.9 l0.4,0.9 l0.6,0.3 l0.9,1.2 l0.7,0.6 l0.8,0.3 l0.5,1.1 l1.4,0.8 l1.7,0.1 l0.8,-0.4 l1.9,1.4 l0.2,1.3 l0.6,0.7 l0.1,1.3 l0.4,1.4 l0.3,1.8 l-0.3,0.8 l0.2,0.6 l-0.9,0.9 l0.3,1 l0.8,-0.5 l0.7,0.4 l0,1.2 l0.4,1.4 l-0.3,0.6 l0.1,1.4 l0.4,0.5 l-0.1,1.1 l0.4,0.5 l0.7,-0.5 l1.5,0.8 l1,-1.2 l0.7,-0.3 l1.3,0.8 l1.7,-0.2 l0.2,-0.8 l0,-0.9 l1.2,-0.1 l0.3,1.2 l1.1,0 l0.4,-1.3 l0.6,-0.6 l0.9,0.3 l1.2,1.1 l1.9,0.3 l1.6,0.8 l1,0 l1.8,-1.5 l1.6,-0.2 l1.4,0.1 l0.3,-0.2 l0,-1.4 l0.5,-0.8 l1.8,0.1 l0.8,-0.2 l0.3,0.6 l0.4,2 l0.6,1.5 l-0.3,0.6 l-1.1,1 l-0.2,0.8 l0.5,1 l1.2,1.4 l0.3,0.6 l0.3,1.7 l1.5,-0.1 l0.8,0.5 l0,2 l0.2,1 l1.3,3 l0.7,0.9 l0.4,1.4 l-0.5,1.3 l0.4,0.5 l1.1,-0.5 l0.6,0.4 l0.3,0.5 l-172.1,0 l-1.4,-1.6 l0,-0.6 l1.2,-4.6 l-0.3,-1.1 l-5.9,0.3 l-1.2,0.6 l-2.1,2.3 l-1.1,0.5 l-4.6,-2.4 l-0.5,0.1 l-0.8,1.6 l-5,-1.8 l-0.3,-0.6 l0,-159.2 l0,-92.9 l2.1,0.4 l2,0.7 l2.7,0.5 l2,0.1 l0.8,-0.7 l2.7,-0.1 l2.3,1.1 l0.1,0.5 l3.8,0.9 l0.8,0.9 l1.7,0.1 l0.4,0.5 l0.9,1.8 l0.8,1.2 l2.2,1.5 l1.4,2.4 l0.4,1.3 l0.5,-0.4 l1.2,0.7 l0.4,-0.7 l0.3,-1.7 l0.4,0.1 l0.5,2.4 l1,1.5 l1.5,1.4 l6.5,3.9 l1,0.1 l0,0.6 l1.4,0.6 l1.3,0.9 l1.4,-0.3 l0.8,0.3 l0.4,0.6 l0.6,0.2 l1.2,1 l1.5,0.4 l0.7,-0.7 l1.2,-0.5 l0.6,0.2  z m-27.4,-21.8 l-0.4,0.4 l-0.9,-0.2 l-0.7,0.3 l-0.7,1.3 l-0.7,-0.2 l-1,-1.4 l-0.6,0 l1.1,-1.5 l1.2,-0.7 l1.1,0.7 l0.7,0.3 l0.9,1  z " id="CAN636" new_attribute_1="0" name="Yukon" fill="#a0e876"></path><circle stroke="#ffffff" transform="" id="whitehorse" stroke-width="3px" cy="630px" fill="#ffffff" r="1px" cx="72px"></circle><circle stroke="#ffffff" id="dawsonCity" cy="555px" stroke-width="3px" fill="#ffffff" r="1px" cx="17px" transform=""></circle><text stroke="none" style="outline-style:none;" id="whitehorseLabel" stroke-width="1px" x="94.5px" text-rendering="geometricPrecision" font-family="Futura-CondensedMedium" fill="#ffffff" font-size="10px" y="634px" transform="" text-anchor="middle">Whitehorse</text><text stroke="none" style="outline-style:none;" id="dawsonCityLabel" stroke-width="1px" x="34.5px" text-rendering="geometricPrecision" font-family="Futura-CondensedMedium" fill="#ffffff" font-size="10px" y="559px" transform="" text-anchor="middle">Dawson</text><circle stroke="#ffffff" transform="" id="eaglePlains" stroke-width="3px" cy="486px" fill="#ffffff" r="1px" cx="46px"></circle><text stroke="none" style="outline-style:none;" id="eaglePlainsLabel" stroke-width="1px" x="132px" dy="0" text-rendering="geometricPrecision" font-family="Futura-CondensedMedium" fill="#ffffff" font-size="10px" y="478.5px" transform="" text-anchor="start"><tspan id="tspan1" dy="0.6em" x="52" rotate="0">Eagle</tspan><tspan id="tspan2" dy="1.2em" x="52" rotate="0">Plains</tspan></text><circle stroke="#ffffff" transform="" id="inuvik" stroke-width="3px" cy="427px" fill="#ffffff" r="1px" cx="79.5px"></circle><circle stroke="#000000" transform="" id="tuktoyaktuk" stroke-width="3px" cy="388px" fill="#000000" r="1px" cx="96.5px"></circle><text stroke="none" style="outline-style:none;" id="tuktoyaktukLabel" stroke-width="1px" x="52.5px" text-rendering="geometricPrecision" font-family="Futura-CondensedMedium" fill="#000000" font-size="10px" y="382.5px" transform="" text-anchor="start">Tuktoyaktuk</text></svg>